<svg width="362" height="349" viewBox="0 0 362 349" fill="none" xmlns="http://www.w3.org/2000/svg">
<path d="M15.2294 315.292H350.781" stroke="#072B2C" stroke-miterlimit="10"/>
<path d="M0.963257 315.292H6.2154" stroke="#072B2C" stroke-miterlimit="10"/>
<path d="M159.122 50.1193H117.072C116.326 50.1193 115.721 50.7244 115.721 51.471V76.9174C115.721 77.664 116.326 78.2691 117.072 78.2691H159.122C159.869 78.2691 160.474 77.664 160.474 76.9174V51.471C160.474 50.7244 159.869 50.1193 159.122 50.1193Z" stroke="#072B2C" stroke-miterlimit="10"/>
<path d="M160.474 66.7225H115.721V73.2205H160.474V66.7225Z" stroke="#072B2C" stroke-miterlimit="10"/>
<path d="M153.439 58.6041C155.134 58.6041 156.508 57.2297 156.508 55.5343C156.508 53.8388 155.134 52.4644 153.439 52.4644C151.743 52.4644 150.369 53.8388 150.369 55.5343C150.369 57.2297 151.743 58.6041 153.439 58.6041Z" stroke="#072B2C" stroke-miterlimit="10"/>
<path d="M148.748 58.6041C150.444 58.6041 151.818 57.2297 151.818 55.5343C151.818 53.8388 150.444 52.4644 148.748 52.4644C147.053 52.4644 145.678 53.8388 145.678 55.5343C145.678 57.2297 147.053 58.6041 148.748 58.6041Z" stroke="#072B2C" stroke-miterlimit="10"/>
<path d="M119.694 54.6304H131.966" stroke="#072B2C" stroke-miterlimit="10"/>
<path d="M64.1519 175.674H22.1022C21.3557 175.674 20.7505 176.279 20.7505 177.026V202.472C20.7505 203.219 21.3557 203.824 22.1022 203.824H64.1519C64.8985 203.824 65.5037 203.219 65.5037 202.472V177.026C65.5037 176.279 64.8985 175.674 64.1519 175.674Z" stroke="#072B2C" stroke-miterlimit="10"/>
<path d="M65.5037 192.277H20.7505V198.775H65.5037V192.277Z" stroke="#072B2C" stroke-miterlimit="10"/>
<path d="M61.5299 181.089C61.5299 181.696 61.3498 182.29 61.0125 182.795C60.6752 183.299 60.1957 183.693 59.6348 183.925C59.0738 184.158 58.4566 184.218 57.8611 184.1C57.2656 183.982 56.7186 183.689 56.2893 183.26C55.86 182.83 55.5676 182.283 55.4491 181.688C55.3307 181.092 55.3915 180.475 55.6238 179.914C55.8562 179.353 56.2496 178.874 56.7545 178.537C57.2593 178.199 57.8528 178.019 58.46 178.019C59.2742 178.019 60.055 178.343 60.6307 178.918C61.2064 179.494 61.5299 180.275 61.5299 181.089Z" stroke="#072B2C" stroke-miterlimit="10"/>
<path d="M53.7698 184.159C55.4652 184.159 56.8397 182.785 56.8397 181.089C56.8397 179.394 55.4652 178.019 53.7698 178.019C52.0744 178.019 50.7 179.394 50.7 181.089C50.7 182.785 52.0744 184.159 53.7698 184.159Z" stroke="#072B2C" stroke-miterlimit="10"/>
<path d="M24.716 180.185H36.9873" stroke="#072B2C" stroke-miterlimit="10"/>
<path d="M300.873 23.0443H273.065V50.8521H300.873V23.0443Z" stroke="#072B2C" stroke-miterlimit="10"/>
<path d="M295.564 34.8107H288.472V27.7264H285.467V34.8107H278.383V37.8154H285.467V44.9078H288.472V37.8154H295.564V34.8107Z" stroke="#072B2C" stroke-miterlimit="10"/>
<path d="M328.624 23.0443H300.816V50.8521H328.624V23.0443Z" stroke="#072B2C" stroke-miterlimit="10"/>
<path d="M322.118 34.8107H307.306V37.3838H322.118V34.8107Z" stroke="#072B2C" stroke-miterlimit="10"/>
<path d="M300.873 50.8033H273.065V78.6112H300.873V50.8033Z" stroke="#072B2C" stroke-miterlimit="10"/>
<path d="M291.981 56.9348L286.973 61.9427L281.965 56.9348L279.84 59.0601L284.848 64.068L279.84 69.0758L281.965 71.2011L286.973 66.1933L291.981 71.2011L294.106 69.0758L289.099 64.068L294.106 59.0601L291.981 56.9348Z" stroke="#072B2C" stroke-miterlimit="10"/>
<path d="M328.624 50.8033H300.816V78.6112H328.624V50.8033Z" stroke="#072B2C" stroke-miterlimit="10"/>
<path d="M322.118 62.5615H307.306V65.1347H322.118V62.5615Z" stroke="#072B2C" stroke-miterlimit="10"/>
<path d="M314.716 60.2083C315.085 60.2083 315.445 60.0989 315.752 59.894C316.059 59.6891 316.298 59.3979 316.439 59.0571C316.58 58.7164 316.617 58.3415 316.545 57.9797C316.473 57.618 316.295 57.2858 316.034 57.025C315.774 56.7642 315.441 56.5866 315.08 56.5147C314.718 56.4427 314.343 56.4796 314.002 56.6208C313.662 56.7619 313.37 57.0009 313.165 57.3076C312.961 57.6142 312.851 57.9747 312.851 58.3435C312.851 58.8381 313.048 59.3124 313.397 59.6621C313.747 60.0118 314.221 60.2083 314.716 60.2083Z" stroke="#072B2C" stroke-miterlimit="10"/>
<path d="M314.716 71.5187C315.746 71.5187 316.581 70.6839 316.581 69.654C316.581 68.6242 315.746 67.7893 314.716 67.7893C313.686 67.7893 312.851 68.6242 312.851 69.654C312.851 70.6839 313.686 71.5187 314.716 71.5187Z" stroke="#072B2C" stroke-miterlimit="10"/>
<path d="M21.524 266.874H3.95987V284.438H21.524V266.874Z" stroke="#072B2C" stroke-miterlimit="10"/>
<path d="M18.161 274.309H13.6906V269.83H11.7933V274.309H7.3147V276.206H11.7933V280.676H13.6906V276.206H18.161V274.309Z" stroke="#072B2C" stroke-miterlimit="10"/>
<path d="M39.0474 266.874H21.4833V284.438H39.0474V266.874Z" stroke="#072B2C" stroke-miterlimit="10"/>
<path d="M34.9434 274.309H25.5873V275.937H34.9434V274.309Z" stroke="#072B2C" stroke-miterlimit="10"/>
<path d="M21.524 284.406H3.95987V301.97H21.524V284.406Z" stroke="#072B2C" stroke-miterlimit="10"/>
<path d="M15.9055 288.274L12.7379 291.441L9.57849 288.274L8.23492 289.617L11.4025 292.785L8.23492 295.944L9.57849 297.288L12.7379 294.12L15.9055 297.288L17.2491 295.944L14.0815 292.785L17.2491 289.617L15.9055 288.274Z" stroke="#072B2C" stroke-miterlimit="10"/>
<path d="M39.0474 284.406H21.4833V301.97H39.0474V284.406Z" stroke="#072B2C" stroke-miterlimit="10"/>
<path d="M34.9434 291.832H25.5873V293.461H34.9434V291.832Z" stroke="#072B2C" stroke-miterlimit="10"/>
<path d="M30.2613 290.342C30.9089 290.342 31.4339 289.817 31.4339 289.169C31.4339 288.522 30.9089 287.997 30.2613 287.997C29.6137 287.997 29.0887 288.522 29.0887 289.169C29.0887 289.817 29.6137 290.342 30.2613 290.342Z" stroke="#072B2C" stroke-miterlimit="10"/>
<path d="M30.2613 295.13C30.0278 295.13 29.7995 295.199 29.6054 295.329C29.4112 295.459 29.2599 295.643 29.1705 295.859C29.0811 296.075 29.0578 296.312 29.1033 296.541C29.1489 296.77 29.2613 296.98 29.4265 297.145C29.5916 297.311 29.802 297.423 30.031 297.469C30.26 297.514 30.4974 297.491 30.7132 297.401C30.9289 297.312 31.1133 297.161 31.2431 296.967C31.3728 296.772 31.4421 296.544 31.4421 296.311C31.4421 295.997 31.3177 295.697 31.0962 295.476C30.8748 295.254 30.5745 295.13 30.2613 295.13Z" stroke="#072B2C" stroke-miterlimit="10"/>
<path d="M216.814 57.7654C216.77 57.7729 216.729 57.7957 216.699 57.8299C216.67 57.864 216.653 57.9074 216.651 57.9527V59.1578C216.661 59.2199 216.656 59.2835 216.637 59.3432C216.617 59.403 216.584 59.4573 216.539 59.5018C216.495 59.5462 216.441 59.5796 216.381 59.599C216.321 59.6185 216.258 59.6236 216.195 59.6138H214.608C214.545 59.6236 214.482 59.6185 214.422 59.599C214.362 59.5796 214.308 59.5462 214.264 59.5018C214.219 59.4573 214.186 59.403 214.166 59.3432C214.147 59.2835 214.142 59.2199 214.152 59.1578L214.209 57.9283C214.206 57.8824 214.189 57.8386 214.16 57.8034C214.13 57.7681 214.09 57.7434 214.046 57.7328C210.984 57.3583 209.217 55.5098 209.217 52.9285V51.7804C209.209 51.7186 209.215 51.6558 209.235 51.5969C209.256 51.5379 209.289 51.4843 209.333 51.4403C209.377 51.3962 209.431 51.3629 209.49 51.3428C209.548 51.3227 209.611 51.3164 209.673 51.3244H212.458C212.759 51.3244 212.922 51.4547 212.922 51.6664V52.0491C212.905 52.4018 212.964 52.7541 213.096 53.0817C213.228 53.4093 213.429 53.7044 213.686 53.9467C213.943 54.189 214.25 54.3726 214.584 54.485C214.919 54.5974 215.274 54.6359 215.625 54.5978C217.344 54.5978 218.068 53.5474 218.068 52.4725C218.068 50.5671 214.583 50.274 212.002 48.6128C210.373 47.5868 209.184 46.2758 209.184 43.9958C209.184 41.1784 210.935 39.1915 214.021 38.7355C214.064 38.7251 214.102 38.7012 214.13 38.6675C214.158 38.6338 214.174 38.5919 214.176 38.5482L214.127 37.0988C214.117 37.0367 214.123 36.9732 214.142 36.9134C214.161 36.8536 214.195 36.7993 214.239 36.7549C214.284 36.7104 214.338 36.6771 214.398 36.6576C214.458 36.6382 214.521 36.6331 214.583 36.6428H216.114C216.176 36.6348 216.239 36.6411 216.298 36.6612C216.357 36.6813 216.41 36.7147 216.454 36.7587C216.498 36.8027 216.532 36.8563 216.552 36.9153C216.572 36.9743 216.578 37.037 216.57 37.0988V38.5157C216.569 38.5602 216.585 38.6035 216.613 38.6378C216.641 38.6721 216.681 38.6952 216.725 38.703C219.982 39.0531 221.773 41.0155 221.773 43.776V44.6635C221.78 44.725 221.772 44.7871 221.752 44.8453C221.731 44.9036 221.698 44.9564 221.654 45.0001C221.61 45.0438 221.557 45.0772 221.499 45.0979C221.441 45.1185 221.379 45.1259 221.317 45.1195H218.5C218.207 45.1195 218.044 45.0137 218.044 44.8508V44.574C218.073 44.2126 218.024 43.8492 217.899 43.5087C217.775 43.1682 217.578 42.8585 217.323 42.601C217.068 42.3435 216.76 42.1442 216.421 42.0167C216.081 41.8892 215.718 41.8366 215.357 41.8624C213.858 41.8624 212.914 42.6767 212.914 43.8493C212.914 45.5918 215.357 45.8605 217.873 46.968C220.641 48.1975 221.847 49.9157 221.847 52.2771C221.887 55.2411 220.088 57.3338 216.814 57.7654Z" stroke="#072B2C" stroke-miterlimit="10"/>
<path d="M215.332 63.5306C223.76 63.5306 230.592 56.6985 230.592 48.2708C230.592 39.8431 223.76 33.0111 215.332 33.0111C206.905 33.0111 200.073 39.8431 200.073 48.2708C200.073 56.6985 206.905 63.5306 215.332 63.5306Z" stroke="#072B2C" stroke-miterlimit="10"/>
<path d="M94.5493 29.3875C94.5183 29.3931 94.4901 29.409 94.4694 29.4327C94.4487 29.4564 94.4366 29.4864 94.4353 29.5178V30.3321C94.4409 30.3737 94.4367 30.4161 94.423 30.4558C94.4093 30.4955 94.3865 30.5314 94.3564 30.5607C94.3263 30.59 94.2898 30.6118 94.2498 30.6245C94.2097 30.6371 94.1673 30.6401 94.1258 30.6334H93.0672C93.0258 30.6401 92.9834 30.6371 92.9433 30.6245C92.9033 30.6118 92.8667 30.59 92.8367 30.5607C92.8066 30.5314 92.7838 30.4955 92.7701 30.4558C92.7564 30.4161 92.7522 30.3737 92.7578 30.3321L92.7985 29.5178C92.7959 29.489 92.7843 29.4616 92.7653 29.4397C92.7463 29.4178 92.7209 29.4024 92.6927 29.3957C90.6407 29.1433 89.4355 27.9055 89.4355 26.1385V25.365C89.4318 25.3234 89.4372 25.2815 89.4514 25.2423C89.4657 25.203 89.4883 25.1674 89.5179 25.1379C89.5474 25.1084 89.583 25.0857 89.6223 25.0715C89.6615 25.0572 89.7034 25.0518 89.745 25.0555H91.6097C91.8133 25.0555 91.9191 25.1451 91.9191 25.2917V25.5441C91.9056 25.7814 91.9442 26.0188 92.0322 26.2396C92.1202 26.4604 92.2555 26.6593 92.4286 26.8223C92.6016 26.9852 92.8082 27.1083 93.0339 27.1829C93.2596 27.2575 93.4989 27.2818 93.735 27.2541C93.9382 27.2821 94.1451 27.2661 94.3416 27.2072C94.5381 27.1484 94.7197 27.048 94.8741 26.9129C95.0285 26.7778 95.1521 26.6111 95.2366 26.4242C95.321 26.2372 95.3643 26.0343 95.3635 25.8291C95.3635 24.5588 93.0265 24.3553 91.2921 23.2397C90.7271 22.9479 90.2556 22.5029 89.9315 21.9557C89.6075 21.4085 89.4441 20.7811 89.46 20.1454C89.4333 19.2483 89.7595 18.3765 90.3685 17.7173C90.9775 17.058 91.8207 16.6639 92.7171 16.6195C92.7468 16.6144 92.774 16.5997 92.7946 16.5776C92.8152 16.5556 92.828 16.5274 92.8311 16.4974L92.7904 15.5284C92.7833 15.4862 92.7864 15.4429 92.7995 15.4021C92.8125 15.3613 92.8351 15.3242 92.8654 15.294C92.8957 15.2637 92.9328 15.2411 92.9735 15.2281C93.0143 15.215 93.0576 15.2119 93.0998 15.219H94.1258C94.1671 15.215 94.2087 15.2203 94.2476 15.2346C94.2866 15.2489 94.3218 15.2717 94.3507 15.3014C94.3796 15.3311 94.4015 15.3669 94.4147 15.4062C94.4279 15.4455 94.4322 15.4873 94.4271 15.5284V16.4811C94.4284 16.5104 94.4396 16.5384 94.4588 16.5606C94.478 16.5827 94.5041 16.5978 94.533 16.6033C96.6908 16.8394 97.9123 18.1504 97.9123 19.9988V20.5933C97.9371 20.6454 97.9451 20.704 97.935 20.7609C97.9249 20.8177 97.8973 20.87 97.856 20.9104C97.8147 20.9508 97.7618 20.9773 97.7048 20.9861C97.6477 20.9949 97.5893 20.9857 97.5377 20.9597H95.6567C95.4531 20.9597 95.3473 20.8945 95.3473 20.7805V20.6014C95.3679 20.3598 95.3359 20.1167 95.2535 19.8887C95.1711 19.6606 95.0403 19.4532 94.87 19.2806C94.6998 19.108 94.4941 18.9744 94.2672 18.8889C94.0404 18.8035 93.7976 18.7682 93.5558 18.7855C92.5461 18.7855 91.9273 19.3067 91.9273 20.121C91.9273 21.2854 93.5558 21.4645 95.2495 22.2055C97.1061 23.0198 97.9123 24.1843 97.9123 25.764C97.9448 27.702 96.7234 29.1025 94.5493 29.3875Z" stroke="#072B2C" stroke-miterlimit="10"/>
<path d="M100.779 30.262C104.77 26.2711 104.77 19.8006 100.779 15.8097C96.788 11.8188 90.3175 11.8188 86.3266 15.8097C82.3357 19.8006 82.3357 26.2711 86.3266 30.262C90.3175 34.2528 96.788 34.2528 100.779 30.262Z" stroke="#072B2C" stroke-miterlimit="10"/>
<path d="M15.4495 131.76C15.42 131.764 15.393 131.778 15.3735 131.801C15.354 131.823 15.3434 131.852 15.3436 131.882V132.696C15.3436 132.916 15.2378 133.005 15.0423 133.005H13.9919C13.7965 133.005 13.6906 132.916 13.6906 132.696V131.882C13.6897 131.851 13.6788 131.822 13.6597 131.799C13.6406 131.775 13.6143 131.759 13.5848 131.751C11.5328 131.507 10.3276 130.261 10.3276 128.535V127.721C10.3223 127.68 10.3264 127.638 10.3397 127.599C10.3529 127.56 10.375 127.525 10.4041 127.496C10.4332 127.467 10.4686 127.445 10.5076 127.431C10.5466 127.418 10.5881 127.414 10.6289 127.419H12.5018C12.6972 127.419 12.8031 127.509 12.8031 127.656V127.908C12.7908 128.145 12.8303 128.381 12.9189 128.601C13.0074 128.821 13.1429 129.019 13.3158 129.181C13.4887 129.343 13.6949 129.465 13.9199 129.539C14.145 129.613 14.3836 129.637 14.6189 129.61C14.8215 129.638 15.0277 129.622 15.2236 129.564C15.4196 129.505 15.6008 129.406 15.755 129.271C15.9093 129.137 16.033 128.971 16.118 128.785C16.2029 128.599 16.2471 128.397 16.2475 128.193C16.2475 126.915 13.9105 126.719 12.1761 125.604C11.4997 125.251 10.9565 124.688 10.6286 124C10.3006 123.312 10.2059 122.535 10.3586 121.788C10.5114 121.041 10.9033 120.364 11.4751 119.859C12.0469 119.355 12.7675 119.05 13.5278 118.992C13.5579 118.986 13.5851 118.97 13.6045 118.946C13.6239 118.922 13.6342 118.892 13.6336 118.861V117.892C13.6265 117.851 13.6293 117.809 13.642 117.769C13.6546 117.729 13.6766 117.693 13.7061 117.663C13.7357 117.634 13.7719 117.612 13.8117 117.599C13.8515 117.587 13.8938 117.584 13.9349 117.591H14.9609C15.0021 117.586 15.0438 117.59 15.0831 117.603C15.1224 117.617 15.1582 117.639 15.1879 117.667C15.2176 117.696 15.2404 117.732 15.2547 117.77C15.269 117.809 15.2743 117.851 15.2703 117.892V118.845C15.2731 118.876 15.2856 118.905 15.3061 118.929C15.3266 118.952 15.354 118.968 15.3843 118.975C17.5341 119.203 18.7636 120.514 18.7636 122.371V122.965C18.7676 123.007 18.7623 123.048 18.748 123.087C18.7337 123.126 18.7109 123.161 18.6812 123.19C18.6515 123.219 18.6157 123.241 18.5764 123.254C18.5371 123.267 18.4954 123.272 18.4542 123.267H16.5814C16.3859 123.267 16.2801 123.193 16.2801 123.087V122.908C16.2958 122.668 16.2599 122.428 16.1749 122.203C16.0899 121.978 15.9577 121.773 15.7873 121.604C15.6168 121.434 15.412 121.303 15.1866 121.219C14.9612 121.135 14.7204 121.1 14.4805 121.117C13.4708 121.117 12.8519 121.638 12.8519 122.444C12.8519 123.617 14.4805 123.796 16.1823 124.529C18.0308 125.343 18.8369 126.507 18.8369 128.087C18.8451 130.074 17.6399 131.466 15.4495 131.76Z" stroke="#072B2C" stroke-miterlimit="10"/>
<path d="M21.6784 132.627C25.6693 128.636 25.6693 122.166 21.6784 118.175C17.6875 114.184 11.217 114.184 7.22613 118.175C3.23525 122.166 3.23524 128.636 7.22612 132.627C11.217 136.618 17.6875 136.618 21.6784 132.627Z" stroke="#072B2C" stroke-miterlimit="10"/>
<path d="M351.774 271.605C351.745 271.609 351.718 271.624 351.698 271.646C351.679 271.669 351.668 271.697 351.668 271.727V272.542C351.668 272.761 351.562 272.851 351.367 272.851H350.3C350.105 272.851 349.999 272.761 349.999 272.542V271.727C349.998 271.697 349.987 271.668 349.968 271.644C349.949 271.621 349.923 271.604 349.893 271.597C347.841 271.345 346.636 270.107 346.636 268.381V267.607C346.631 267.566 346.635 267.525 346.648 267.486C346.661 267.447 346.683 267.411 346.712 267.382C346.742 267.353 346.777 267.331 346.816 267.318C346.855 267.304 346.896 267.3 346.937 267.306H348.81C349.006 267.306 349.111 267.395 349.111 267.542V267.786C349.098 268.023 349.136 268.261 349.224 268.482C349.312 268.702 349.448 268.901 349.621 269.064C349.794 269.227 350.001 269.35 350.226 269.425C350.452 269.5 350.691 269.524 350.927 269.496C351.13 269.524 351.336 269.508 351.532 269.45C351.728 269.391 351.909 269.292 352.063 269.158C352.218 269.023 352.341 268.858 352.426 268.672C352.511 268.486 352.555 268.284 352.556 268.079C352.556 266.801 350.219 266.605 348.484 265.49C347.808 265.138 347.265 264.575 346.937 263.886C346.609 263.198 346.514 262.421 346.667 261.674C346.82 260.927 347.212 260.25 347.783 259.745C348.355 259.241 349.076 258.936 349.836 258.878C349.866 258.871 349.892 258.854 349.911 258.831C349.93 258.807 349.941 258.778 349.942 258.748V257.779C349.935 257.737 349.938 257.695 349.95 257.655C349.963 257.615 349.985 257.579 350.014 257.55C350.044 257.52 350.08 257.498 350.12 257.486C350.16 257.473 350.202 257.47 350.243 257.477H351.269C351.31 257.472 351.352 257.476 351.391 257.49C351.431 257.503 351.467 257.525 351.496 257.554C351.526 257.583 351.549 257.618 351.563 257.657C351.577 257.696 351.583 257.737 351.579 257.779V258.731C351.58 258.762 351.593 258.791 351.614 258.813C351.634 258.835 351.662 258.85 351.693 258.853C353.842 259.09 355.072 260.401 355.072 262.257V262.803C355.077 262.845 355.073 262.887 355.059 262.927C355.046 262.967 355.023 263.003 354.993 263.033C354.963 263.063 354.927 263.086 354.887 263.099C354.847 263.113 354.804 263.117 354.763 263.112H352.873C352.678 263.112 352.572 263.039 352.572 262.933V262.803C352.593 262.56 352.561 262.316 352.478 262.088C352.395 261.859 352.263 261.651 352.092 261.479C351.921 261.306 351.714 261.172 351.487 261.087C351.259 261.003 351.015 260.968 350.773 260.987C349.763 260.987 349.144 261.508 349.144 262.314C349.144 263.487 350.773 263.666 352.474 264.399C354.323 265.213 355.129 266.377 355.129 267.957C355.17 269.911 353.965 271.312 351.774 271.605Z" stroke="#072B2C" stroke-miterlimit="10"/>
<path d="M350.781 275.465C356.425 275.465 361 270.889 361 265.246C361 259.602 356.425 255.026 350.781 255.026C345.137 255.026 340.562 259.602 340.562 265.246C340.562 270.889 345.137 275.465 350.781 275.465Z" stroke="#072B2C" stroke-miterlimit="10"/>
<path d="M168.788 289.845C168.788 289.845 175.563 318.964 172.615 323.744C168.755 330.006 127.707 333.776 127.707 333.776H218.223C218.223 333.776 229.566 330.592 226.154 321.472C223.516 314.42 210.854 289.845 210.854 289.845H168.788Z" fill="white" stroke="#072B2C" stroke-linecap="round" stroke-linejoin="round"/>
<path d="M166.801 289.845C166.801 289.845 174.032 319.208 170.628 323.744C167.224 328.279 127.707 331.756 127.707 331.756H218.647C218.647 331.756 226.293 328.67 224.167 321.472C222.042 314.274 208.875 289.845 208.875 289.845H166.801Z" fill="white" stroke="#072B2C" stroke-linecap="round" stroke-linejoin="round"/>
<path d="M208.875 289.845H166.801C166.801 289.845 171.084 307.238 171.499 317.319H222.596C218.459 307.629 208.875 289.845 208.875 289.845Z" fill="#072B2C" stroke="#072B2C" stroke-linecap="round" stroke-linejoin="round"/>
<path d="M218.215 331.903H127.707V333.776H218.215V331.903Z" fill="white" stroke="#072B2C" stroke-linecap="round" stroke-linejoin="round"/>
<path d="M320.563 87.8859H61.2776C57.464 87.8859 54.3724 90.9774 54.3724 94.791V285.798C54.3724 289.612 57.464 292.703 61.2776 292.703H320.563C324.376 292.703 327.468 289.612 327.468 285.798V94.791C327.468 90.9774 324.376 87.8859 320.563 87.8859Z" fill="white" stroke="#072B2C" stroke-linecap="round" stroke-linejoin="round"/>
<path d="M314.13 87.8859H54.8447C51.0311 87.8859 47.9395 90.9774 47.9395 94.791V285.798C47.9395 289.612 51.0311 292.703 54.8447 292.703H314.13C317.943 292.703 321.035 289.612 321.035 285.798V94.791C321.035 90.9774 317.943 87.8859 314.13 87.8859Z" fill="#072B2C" stroke="#072B2C" stroke-linecap="round" stroke-linejoin="round"/>
<path d="M47.9395 260.873H321.035V285.798C321.035 287.629 320.307 289.386 319.012 290.681C317.717 291.976 315.961 292.703 314.13 292.703H54.8447C53.0133 292.703 51.257 291.976 49.962 290.681C48.667 289.386 47.9395 287.629 47.9395 285.798V260.873Z" fill="white" stroke="#072B2C" stroke-linecap="round" stroke-linejoin="round"/>
<path d="M307.298 100.629H61.6766V245.336H307.298V100.629Z" fill="white" stroke="#072B2C" stroke-linecap="round" stroke-linejoin="round"/>
<path d="M282.495 183.939H73.9886V193.092H282.495V183.939Z" fill="#43916F"/>
<path d="M282.495 201.234H73.9886V210.387H282.495V201.234Z" fill="#43916F"/>
<path d="M73.9723 129.349H110.656" stroke="#072B2C" stroke-miterlimit="10"/>
<path d="M73.9723 134.74H110.656" stroke="#072B2C" stroke-miterlimit="10"/>
<path d="M192.915 134.74H229.599" stroke="#072B2C" stroke-miterlimit="10"/>
<path d="M192.915 140.106H229.599" stroke="#072B2C" stroke-miterlimit="10"/>
<path d="M192.915 145.472H229.599" stroke="#072B2C" stroke-miterlimit="10"/>
<path d="M73.9723 140.139H110.656" stroke="#072B2C" stroke-miterlimit="10"/>
<path d="M73.9723 230.679H110.656" stroke="#072B2C" stroke-miterlimit="10"/>
<path d="M73.9723 235.679H110.656" stroke="#072B2C" stroke-miterlimit="10"/>
<path d="M73.9723 145.529H110.656" stroke="#072B2C" stroke-miterlimit="10"/>
<path d="M161.899 150.928H73.9723V160.634H161.899V150.928Z" fill="#43916F"/>
<path d="M282.185 141.213H235.795V146.067H282.185V141.213Z" fill="#43916F"/>
<path d="M282.185 128.812H235.795V146.075H282.185V128.812Z" stroke="#072B2C" stroke-miterlimit="10"/>
<path d="M282.185 133.665H235.795V141.213H282.185V133.665Z" stroke="#072B2C" stroke-miterlimit="10"/>
<path d="M242.855 128.958V145.863" stroke="#072B2C" stroke-miterlimit="10"/>
<path d="M282.495 167.157H73.9886V225.639H282.495V167.157Z" stroke="#072B2C" stroke-miterlimit="10"/>
<path d="M282.495 167.157H73.9886V176.309H282.495V167.157Z" fill="#43916F" stroke="#072B2C" stroke-miterlimit="10"/>
<path d="M221.187 167.376V225.541" stroke="#072B2C" stroke-miterlimit="10"/>
<path d="M243.849 167.376V225.541" stroke="#072B2C" stroke-miterlimit="10"/>
<path d="M243.775 229.116H221V242.657H243.775V229.116Z" fill="#43916F"/>
<path d="M229.599 234.246V235.288C229.599 236.566 228.988 237.259 227.726 237.259H227.14V240.263H225.885V232.275H227.726C228.988 232.275 229.599 232.967 229.599 234.246ZM227.156 233.431V236.135H227.742C228.149 236.135 228.361 235.956 228.361 235.386V234.181C228.361 233.611 228.149 233.431 227.742 233.431H227.156Z" fill="#072B2C"/>
<path d="M234.55 240.263H233.279L233.068 238.814H231.529L231.309 240.263H230.161L231.431 232.275H233.271L234.55 240.263ZM231.683 237.731H232.897L232.294 233.659L231.683 237.731Z" fill="#072B2C"/>
<path d="M236.203 237.617L234.574 232.275H235.966L236.927 235.915L237.88 232.275H239.085L237.497 237.617V240.263H236.243L236.203 237.617Z" fill="#072B2C"/>
<path d="M74.4283 113.682H76.3093V125.652H74.4283V113.682Z" fill="#072B2C"/>
<path d="M79.6967 116.98V125.652H77.9949V113.682H80.3563L82.2862 120.848V113.682H83.9636V125.652H82.0663L79.6967 116.98Z" fill="#072B2C"/>
<path d="M88.4991 123.446L89.9404 113.674H91.6667L89.8183 125.644H87.0171L85.1687 113.674H87.066L88.4991 123.446Z" fill="#072B2C"/>
<path d="M92.7091 116.557C92.7091 114.635 93.7188 113.544 95.5672 113.544C97.4157 113.544 98.4172 114.635 98.4172 116.557V122.745C98.4172 124.659 97.4157 125.75 95.5672 125.75C93.7188 125.75 92.7091 124.659 92.7091 122.745V116.557ZM94.5901 122.9C94.5901 123.714 94.9647 124.073 95.5672 124.073C96.1698 124.073 96.5362 123.747 96.5362 122.9V116.435C96.5362 115.58 96.1617 115.254 95.5672 115.254C94.9728 115.254 94.5901 115.58 94.5901 116.435V122.9Z" fill="#072B2C"/>
<path d="M99.9806 113.682H101.862V125.652H99.9806V113.682Z" fill="#072B2C"/>
<path d="M109.019 121.19V122.745C109.019 124.659 108.067 125.75 106.218 125.75C104.37 125.75 103.417 124.659 103.417 122.745V116.557C103.417 114.635 104.37 113.544 106.218 113.544C108.067 113.544 109.019 114.635 109.019 116.557V117.713H107.244V116.435C107.244 115.58 106.87 115.254 106.267 115.254C105.664 115.254 105.298 115.58 105.298 116.435V122.9C105.298 123.714 105.673 124.056 106.267 124.056C106.861 124.056 107.244 123.747 107.244 122.9V121.19H109.019Z" fill="#072B2C"/>
<path d="M112.39 118.723H114.972V120.433H112.39V123.942H115.647V125.652H110.517V113.682H115.647V115.417H112.39V118.723Z" fill="#072B2C"/>
<path d="M307.298 100.629H61.6766V107.315H307.298V100.629Z" fill="#43916F" stroke="#072B2C" stroke-linecap="round" stroke-linejoin="round"/>
<path d="M189.552 276.792C189.554 275.795 189.259 274.819 188.706 273.989C188.153 273.159 187.366 272.511 186.444 272.129C185.523 271.746 184.509 271.646 183.53 271.84C182.552 272.034 181.653 272.514 180.948 273.22C180.242 273.925 179.762 274.824 179.568 275.803C179.373 276.781 179.474 277.795 179.856 278.717C180.239 279.638 180.886 280.425 181.716 280.978C182.547 281.532 183.522 281.826 184.52 281.824C185.854 281.822 187.133 281.291 188.076 280.348C189.019 279.405 189.55 278.126 189.552 276.792Z" fill="#072B2C" stroke="#072B2C" stroke-linecap="round" stroke-linejoin="round"/>
<path d="M276.029 195.624C276.029 195.624 272.544 196.927 271.461 201.829C270.378 206.731 268.082 221.535 266.885 228.505C265.688 235.475 259.263 258.112 259.263 258.112L262.642 260.401C262.642 260.401 270.916 248.317 273.228 242.657C275.541 236.998 277.796 233.073 278.114 228.717C278.431 224.36 277.902 200.412 277.902 198.588C277.902 196.764 277.015 195.404 276.029 195.624Z" fill="#43916F" stroke="#072B2C" stroke-linecap="round" stroke-linejoin="round"/>
<path d="M279.189 337.774C279.189 337.774 270.59 343.327 269.605 345.282C268.619 347.236 270.476 347.79 275.305 347.138C280.133 346.487 283.447 343.979 285.752 342.668C288.056 341.357 289.131 341.259 288.366 338.32C287.6 335.38 279.189 337.774 279.189 337.774Z" fill="white" stroke="#072B2C" stroke-linecap="round" stroke-linejoin="round"/>
<path d="M312.827 338.645C312.827 338.645 322.305 345.062 321.784 346.479C321.263 347.896 318.405 348.547 313.397 346.918C308.389 345.29 307.298 343.979 305.254 342.236C303.21 340.494 303.951 338.32 303.951 336.789C303.951 335.258 312.827 338.645 312.827 338.645Z" fill="white" stroke="#072B2C" stroke-linecap="round" stroke-linejoin="round"/>
<path d="M274.726 239.188C274.726 239.188 272.764 256.386 272.544 270.131C272.324 283.876 278.643 336.178 278.643 336.724V338.352C280.26 339.085 281.994 339.526 283.765 339.655C285.616 339.701 287.469 339.627 289.31 339.435C289.31 339.435 289.31 329.745 289.53 322.237C289.75 314.73 290.947 280.465 290.947 280.465L291.273 265.661L293.447 267.078L303.682 339.655L312.827 338.678C312.827 338.678 313.918 290.374 313.698 277.093C313.478 263.812 310.881 240.369 310.881 240.369L274.726 239.188Z" fill="#072B2C" stroke="#072B2C" stroke-linecap="round" stroke-linejoin="round"/>
<path d="M291.818 190.51C291.818 190.51 277.34 194.973 276.029 195.624C274.718 196.275 273.855 199.761 273.855 204.117C273.855 208.473 275.484 230.028 275.272 232.617C275.06 235.206 273.749 238.496 274.832 240.345C275.915 242.193 290.304 243.39 298.023 243.064C305.743 242.739 310.107 243.504 311.198 241.322C312.289 239.139 312.941 212.26 314.024 206.047C315.107 199.834 315.88 196.577 313.698 194.834C311.516 193.092 299.986 191.023 297.152 190.372L291.818 190.51Z" fill="#43916F" stroke="#072B2C" stroke-linecap="round" stroke-linejoin="round"/>
<path d="M291.338 187.766C291.338 187.766 288.936 188.58 288.138 190.38C287.34 192.18 284.946 201.137 285.817 201.568C286.688 202 293.447 198.735 294.465 198.954C295.483 199.174 299.619 204.549 300.857 203.84C302.095 203.132 305.002 195.486 303.91 191.561C302.819 187.636 292.421 186.748 291.338 187.766Z" fill="white" stroke="#072B2C" stroke-linecap="round" stroke-linejoin="round"/>
<path d="M290.019 185.299C290.019 185.299 289.945 189.289 289.945 191.325C289.945 193.36 291.696 200.624 293.203 200.339C294.709 200.054 301.052 192.929 302.07 191.031C303.088 189.134 303.3 185.226 303.3 185.226C303.3 185.226 298.797 188.418 295.385 187.4C293.532 186.875 291.735 186.171 290.019 185.299Z" fill="#CCCCCC" stroke="#072B2C" stroke-linecap="round" stroke-linejoin="round"/>
<path d="M295.409 187.4C293.551 186.876 291.749 186.172 290.027 185.299C290.027 185.299 290.027 186.871 289.978 188.556C290.475 189.623 290.947 190.519 291.281 191.154C291.714 192.153 292.518 192.946 293.522 193.366C294.527 193.787 295.656 193.802 296.671 193.409C299.035 192.367 301.138 190.812 302.827 188.857C303.082 187.666 303.248 186.458 303.324 185.242C303.324 185.242 298.813 188.418 295.409 187.4Z" fill="#072B2C" stroke="#072B2C" stroke-linecap="round" stroke-linejoin="round"/>
<path d="M288.309 173.606C288.309 173.606 287.902 170.707 286.534 171.888C285.166 173.068 285.41 176.032 286.061 177.457C286.713 178.882 287.421 178.703 287.6 178.638C287.779 178.573 288.309 173.606 288.309 173.606Z" fill="#CCCCCC" stroke="#072B2C" stroke-linecap="round" stroke-linejoin="round"/>
<path d="M307.265 176.391C307.444 176.097 309.635 168.753 309.757 164.779C309.879 160.805 304.13 157.084 300.043 156.31C295.955 155.537 289.913 156.546 288.643 158.859C287.372 161.172 287.218 170.259 287.218 171.774C287.218 173.288 288.406 173.549 288.7 173.19C288.993 172.832 289.888 163.891 290.418 163.24C290.947 162.588 300.425 162.89 301.907 163.297C303.389 163.704 304.22 165.259 303.927 167.507C303.634 169.754 303.984 169.64 304.578 170.943C305.173 172.246 305.164 172.718 305.164 174.493C305.164 176.268 305.995 178.402 307.265 176.391Z" fill="#072B2C" stroke="#072B2C" stroke-linecap="round" stroke-linejoin="round"/>
<path d="M289.62 162.947C288.612 167.296 287.899 171.709 287.486 176.154C287.185 181.423 290.092 186.87 291.273 189.126C292.453 191.382 294.595 192.147 296.663 191.373C299.498 190.115 301.965 188.153 303.829 185.673C306.019 182.832 307.151 176.016 307.151 176.016C307.151 176.016 306.256 176.488 306.199 175.723C306.142 174.957 306.736 172.287 306.142 170.568C305.547 168.85 304.244 168.435 305.018 166.774C305.512 165.844 305.871 164.849 306.085 163.818C306.085 163.517 303.121 161.742 297.73 161.269C292.339 160.797 289.913 161.465 289.62 162.947Z" fill="#CCCCCC" stroke="#072B2C" stroke-linecap="round" stroke-linejoin="round"/>
<path d="M290.206 167.8C290.206 167.8 291.794 166.424 294.001 168.012" stroke="#072B2C" stroke-linecap="round" stroke-linejoin="round"/>
<path d="M298.219 168.427C298.219 168.427 302.013 166.904 303.536 169.599" stroke="#072B2C" stroke-linecap="round" stroke-linejoin="round"/>
<path d="M306.557 176.863C306.557 176.863 307.738 174.2 309.456 174.078C311.174 173.956 310.938 177.335 309.342 179.534C307.746 181.732 305.433 182.612 305.368 181.008" fill="#CCCCCC"/>
<path d="M306.557 176.863C306.557 176.863 307.738 174.2 309.456 174.078C311.174 173.956 310.938 177.335 309.342 179.534C307.746 181.732 305.433 182.612 305.368 181.008" stroke="#072B2C" stroke-linecap="round" stroke-linejoin="round"/>
<path d="M294.945 172.067C294.945 172.067 292.991 177.693 293.406 178.467C293.821 179.241 295.417 180.096 297.372 179.175" stroke="#072B2C" stroke-linecap="round" stroke-linejoin="round"/>
<path d="M295.719 181.838C296.573 182.131 297.488 182.203 298.377 182.048C299.267 181.893 300.103 181.516 300.808 180.951" stroke="#072B2C" stroke-linecap="round" stroke-linejoin="round"/>
<path d="M292.966 172.27C292.966 172.914 292.738 173.427 292.462 173.427C292.185 173.427 291.957 172.914 291.957 172.27C291.957 171.627 292.185 171.122 292.462 171.122C292.738 171.122 292.966 171.603 292.966 172.27Z" fill="#072B2C"/>
<path d="M299.896 174.2C300.175 174.2 300.401 173.683 300.401 173.044C300.401 172.405 300.175 171.888 299.896 171.888C299.617 171.888 299.391 172.405 299.391 173.044C299.391 173.683 299.617 174.2 299.896 174.2Z" fill="#072B2C"/>
<path d="M295.002 171.92C295.002 172.593 294.803 173.251 294.429 173.811C294.054 174.371 293.523 174.807 292.901 175.065C292.279 175.322 291.595 175.39 290.934 175.259C290.274 175.127 289.668 174.803 289.192 174.327C288.716 173.851 288.391 173.244 288.26 172.584C288.129 171.924 288.196 171.24 288.454 170.618C288.711 169.996 289.148 169.464 289.707 169.09C290.267 168.716 290.925 168.516 291.598 168.516C292.501 168.516 293.367 168.875 294.005 169.513C294.644 170.152 295.002 171.017 295.002 171.92Z" stroke="#072B2C" stroke-linecap="round" stroke-linejoin="round"/>
<path d="M303.837 172.653C303.836 173.361 303.624 174.053 303.229 174.641C302.835 175.229 302.275 175.687 301.62 175.957C300.965 176.227 300.245 176.297 299.55 176.158C298.856 176.019 298.218 175.677 297.718 175.175C297.218 174.674 296.877 174.036 296.74 173.341C296.602 172.646 296.674 171.926 296.945 171.272C297.216 170.618 297.676 170.059 298.265 169.665C298.854 169.272 299.546 169.062 300.254 169.062C300.726 169.062 301.192 169.155 301.627 169.336C302.063 169.516 302.458 169.781 302.791 170.114C303.123 170.448 303.387 170.844 303.567 171.279C303.746 171.715 303.838 172.182 303.837 172.653Z" stroke="#072B2C" stroke-linecap="round" stroke-linejoin="round"/>
<path d="M295.002 171.293C295.269 171.157 295.573 171.113 295.868 171.167C296.162 171.222 296.43 171.372 296.631 171.594" stroke="#072B2C" stroke-linecap="round" stroke-linejoin="round"/>
<path d="M303.772 173.011L308.039 174.795" stroke="#072B2C" stroke-linecap="round" stroke-linejoin="round"/>
<path d="M260.134 255.613L264.711 257.461" stroke="#072B2C" stroke-linecap="round" stroke-linejoin="round"/>
<path d="M255.916 269.553C255.916 269.553 256.56 273.315 256.999 273.519C257.439 273.722 257.594 271.687 257.447 270.4L257.301 269.113C257.301 269.113 257.993 272.476 258.685 272.778C259.377 273.079 258.986 271.589 258.783 270.84L258.587 270.099C258.587 270.099 260.322 271.931 260.468 271.483C260.615 271.035 259.426 268.812 259.377 268.666C259.11 267.813 258.906 266.942 258.766 266.06C258.718 265.368 257.732 262.591 256.739 264.325C255.745 266.06 255.916 269.553 255.916 269.553Z" fill="#CCCCCC" stroke="#072B2C" stroke-linecap="round" stroke-linejoin="round"/>
<path d="M259.263 258.112C259.263 258.112 256.006 263.34 255.127 265.083C254.247 266.825 253.604 273.356 254.369 273.796C255.135 274.235 255.338 272.639 255.517 271.54C255.83 270.233 256.294 268.968 256.902 267.77C256.902 267.77 256.438 271.939 257.089 271.841C257.74 271.744 258.286 267.925 258.718 266.956C259.149 265.987 261.771 264.562 262.642 260.441L259.263 258.112Z" fill="#CCCCCC" stroke="#072B2C" stroke-linecap="round" stroke-linejoin="round"/>
<path d="M256.902 267.77C256.902 267.77 256.902 267.216 257.301 265.148L256.902 267.77Z" fill="white"/>
<path d="M256.902 267.77C256.902 267.77 256.902 267.216 257.301 265.148" stroke="#072B2C" stroke-linecap="round" stroke-linejoin="round"/>
<path d="M313.267 194.647C315.735 196.51 317.622 199.038 318.706 201.935C320.774 207.057 327.851 229.376 328.07 229.808C328.29 230.239 328.07 234.596 324.585 236.013C321.1 237.429 319.472 234.384 317.403 230.899C315.335 227.414 310.547 211.95 310.547 211.95" fill="#43916F"/>
<path d="M313.267 194.647C315.735 196.51 317.622 199.038 318.706 201.935C320.774 207.057 327.851 229.376 328.07 229.808C328.29 230.239 328.07 234.596 324.585 236.013C321.1 237.429 319.472 234.384 317.403 230.899C315.335 227.414 310.547 211.95 310.547 211.95" stroke="#072B2C" stroke-linecap="round" stroke-linejoin="round"/>
<path d="M322.191 223.497L339.096 215.191L342.035 218.571C342.035 218.571 329.609 233.725 326.873 235.467C324.137 237.21 320.774 236.778 319.471 233.839" fill="#43916F"/>
<path d="M322.191 223.497L339.096 215.191L342.035 218.571C342.035 218.571 329.609 233.725 326.873 235.467C324.137 237.21 320.774 236.778 319.471 233.839" stroke="#072B2C" stroke-linecap="round" stroke-linejoin="round"/>
<path d="M337.247 216.388L340.399 220.199" stroke="#072B2C" stroke-linecap="round" stroke-linejoin="round"/>
<path d="M339.096 215.191C339.096 215.191 342.801 209.426 343.884 208.987C344.967 208.547 348.02 207.904 349.763 206.593C351.505 205.281 352.483 205.615 351.506 207.032C350.528 208.449 349.437 208.661 348.46 209.1C347.963 209.303 347.488 209.557 347.043 209.858C347.043 209.858 349.763 209.972 351.506 210.078C352.564 210.14 353.626 210.067 354.665 209.858C354.665 209.858 359.127 207.903 358.036 210.297C356.945 212.691 357.059 214.214 352.702 215.517C349.872 216.324 346.941 216.729 343.998 216.722L342.035 218.571L339.096 215.191Z" fill="#CCCCCC" stroke="#072B2C" stroke-linecap="round" stroke-linejoin="round"/>
<path d="M356.188 213.889C356.878 213.64 357.502 213.236 358.012 212.708C358.521 212.18 358.903 211.542 359.127 210.843C359.893 208.441 359.453 208.335 358.476 209.215C357.52 210.197 356.745 211.341 356.188 212.594C355.667 213.669 356.188 213.889 356.188 213.889Z" fill="#CCCCCC" stroke="#072B2C" stroke-linecap="round" stroke-linejoin="round"/>
<path d="M355.211 213.994C355.211 213.994 356.513 214.866 357.499 212.252C358.484 209.638 358.362 207.57 357.499 208.009C356.636 208.449 356.408 208.555 355.316 210.843C354.225 213.131 353.248 214.1 353.9 214.32C354.128 214.368 354.365 214.364 354.592 214.308C354.82 214.251 355.031 214.144 355.211 213.994Z" fill="#CCCCCC" stroke="#072B2C" stroke-linecap="round" stroke-linejoin="round"/>
<path d="M342.687 214.98C342.687 214.98 344.315 212.252 346.172 212.252C348.436 212.42 350.69 212.711 352.922 213.123C352.922 213.123 356.513 207.904 357.279 208.661C358.044 209.418 356.082 213.017 355.211 213.994C354.339 214.972 354.225 215.086 353.468 215.305" fill="#CCCCCC"/>
<path d="M342.687 214.98C342.687 214.98 344.315 212.252 346.172 212.252C348.436 212.42 350.69 212.711 352.922 213.123C352.922 213.123 356.513 207.904 357.279 208.661C358.044 209.418 356.082 213.017 355.211 213.994C354.339 214.972 354.225 215.086 353.468 215.305" stroke="#072B2C" stroke-linecap="round" stroke-linejoin="round"/>
<path d="M291.273 265.628L286.265 263.234" stroke="#7D7D7D" stroke-linecap="round" stroke-linejoin="round"/>
</svg>
