<svg width="466" height="364" viewBox="0 0 466 364" fill="none" xmlns="http://www.w3.org/2000/svg">
<path d="M242.17 67.0665H313.267V87.2872H242.17C240.647 87.2872 239.186 86.6821 238.109 85.6049C237.032 84.5278 236.427 83.0668 236.427 81.5435V72.7991C236.43 71.2777 237.036 69.8196 238.113 68.7449C239.19 67.6701 240.649 67.0665 242.17 67.0665Z" fill="#43916F"/>
<path d="M313.267 41.8411H246.537C243.864 41.8411 241.301 42.9027 239.412 44.7925C237.522 46.6822 236.46 49.2453 236.46 51.9178C236.46 54.5903 237.522 57.1534 239.412 59.0432C241.301 60.9329 243.864 61.9946 246.537 61.9946H313.267V41.8411Z" fill="#43916F"/>
<path d="M343.599 18.5862H319.336V86.3244H343.599V18.5862Z" fill="#43916F"/>
<path d="M373.93 18.5862H349.667V86.3244H373.93V18.5862Z" fill="#43916F"/>
<path d="M404.261 18.5862H379.998V86.3244H404.261V18.5862Z" fill="#43916F"/>
<path opacity="0.4" d="M242.17 67.0665H313.267V87.2872H242.17C240.647 87.2872 239.186 86.6821 238.109 85.6049C237.032 84.5278 236.427 83.0668 236.427 81.5435V72.7991C236.43 71.2777 237.036 69.8196 238.113 68.7449C239.19 67.6701 240.649 67.0665 242.17 67.0665Z" fill="white"/>
<path opacity="0.4" d="M313.267 41.8411H246.537C243.864 41.8411 241.301 42.9027 239.412 44.7925C237.522 46.6822 236.46 49.2453 236.46 51.9178C236.46 54.5903 237.522 57.1534 239.412 59.0432C241.301 60.9329 243.864 61.9946 246.537 61.9946H313.267V41.8411Z" fill="white"/>
<path opacity="0.4" d="M343.599 18.5862H319.336V86.3244H343.599V18.5862Z" fill="white"/>
<path opacity="0.4" d="M373.93 18.5862H349.667V86.3244H373.93V18.5862Z" fill="white"/>
<path opacity="0.4" d="M404.261 18.5862H379.998V86.3244H404.261V18.5862Z" fill="white"/>
<path d="M418.917 88.1382H228.376V99.4241H243.839V127.415H253.042V99.4241H389.761V127.415H398.965V99.4241H418.917V88.1382Z" fill="#43916F"/>
<path opacity="0.1" d="M418.917 88.1382H228.376V99.4241H243.839V127.415H253.042V99.4241H389.761V127.415H398.965V99.4241H418.917V88.1382Z" fill="black"/>
<path d="M191.339 121.727C189.17 122.432 187.043 123.258 184.968 124.202C186.088 123.362 187.207 122.511 188.327 121.627C193.389 117.573 198.201 113.217 202.737 108.583C197.399 113.762 191.697 118.551 185.673 122.914C186.499 121.471 187.228 119.975 187.857 118.436C188.976 115.614 189.189 112.837 186.491 111.259C183.132 109.4 179.157 112.188 180.221 116.969C180.855 119.622 182.106 122.088 183.871 124.168C179.958 126.883 175.869 129.337 171.633 131.513L171.23 131.714C172.126 130.165 172.915 128.557 173.592 126.9C174.712 124.079 174.936 121.246 172.238 119.723C168.879 117.853 164.893 120.641 165.968 125.433C166.593 128.053 167.82 130.491 169.551 132.554C164.456 135.062 159.194 137.19 153.954 139.507L153.193 139.854C154.216 138.753 155.166 137.586 156.036 136.361C157.738 133.864 158.656 131.166 156.384 129.061C153.596 126.475 149.028 128.255 148.949 133.159C148.954 135.879 149.586 138.561 150.797 140.996C145.901 143.265 141.249 146.026 136.913 149.237L136.779 149.338C137.371 148.412 137.906 147.451 138.38 146.46C139.667 143.728 140.138 140.862 137.562 139.205C137.037 138.84 136.436 138.599 135.805 138.502C135.173 138.404 134.527 138.451 133.916 138.64C133.305 138.829 132.746 139.154 132.279 139.591C131.813 140.029 131.453 140.567 131.225 141.164C130.89 140.628 130.424 140.185 129.871 139.877C127.273 138.376 124.72 140 122.537 142.295C121.966 142.888 121.417 143.527 120.913 144.176C122.606 139.484 124.731 134.96 127.262 130.662C129.664 131.724 132.26 132.28 134.886 132.297C140.059 132.297 142.243 127.986 139.701 125.31C137.641 123.138 134.73 123.967 131.987 125.545C131.08 126.071 130.195 126.665 129.367 127.27C132.006 123.308 135.005 119.598 138.324 116.185C140.486 117.933 142.999 119.197 145.691 119.891C150.718 121.134 153.876 117.484 152.051 114.293C150.573 111.684 147.572 111.785 144.504 112.658C143.071 113.092 141.665 113.612 140.294 114.215C141.66 112.882 143.082 111.595 144.515 110.329C146.408 108.717 148.356 107.161 150.338 105.649C152.475 107.351 154.947 108.583 157.593 109.266C162.609 110.509 165.766 106.858 163.952 103.668C162.474 101.059 159.474 101.171 156.406 102.044C155.701 102.246 154.984 102.492 154.29 102.749C156.91 100.88 159.575 99.0546 162.239 97.2296L164.702 95.5501C166.927 97.4043 169.535 98.7427 172.338 99.4689C177.366 100.712 180.512 97.0616 178.698 93.8707C177.22 91.2507 174.219 91.3627 171.152 92.236C169.96 92.5866 168.79 93.0053 167.647 93.49C168.162 93.1317 168.666 92.7622 169.17 92.3704C170.11 91.6986 171.028 91.0156 171.947 90.3102C173.066 89.4593 174.186 88.5076 175.305 87.6119C175.932 87.1081 176.537 86.5706 177.142 86.022C179.363 87.9098 181.986 89.2655 184.811 89.9855C189.838 91.2283 192.996 87.5895 191.182 84.3873C189.704 81.7786 186.703 81.8793 183.624 82.7526C181.941 83.272 180.292 83.8965 178.687 84.6224C180.736 82.7191 182.717 80.7373 184.598 78.666C184.733 78.5204 184.845 78.3749 184.968 78.2293C185.785 77.3336 186.58 76.4267 187.353 75.4974C188.125 74.5681 189.111 73.2581 189.962 72.1385C193.41 67.6167 196.245 62.6584 198.392 57.3928C196.151 62.6138 193.217 67.5095 189.67 71.9481C186.177 76.4037 182.279 80.5266 178.026 84.2642L177.567 84.656C178.541 82.9801 179.401 81.2407 180.142 79.4497C181.262 76.6282 181.486 73.7955 178.788 72.2728C175.429 70.4142 171.443 73.1909 172.518 77.983C173.202 80.8004 174.566 83.4069 176.492 85.5741L175.496 86.4251C175.104 86.7498 174.701 87.0857 174.298 87.3992C173.637 87.9366 172.965 88.4516 172.294 88.9555L171.174 89.784C170.211 90.4894 169.226 91.1947 168.241 91.8777L166.707 92.8182L165.094 93.9379C166.032 92.3279 166.859 90.6558 167.569 88.9331C168.688 86.1116 168.912 83.2789 166.214 81.7562C162.855 79.8864 158.869 82.6743 159.933 87.4663C160.596 90.1937 161.902 92.7233 163.74 94.8448L162.542 95.6173L158.063 98.506L157.201 99.077C156.372 99.6144 155.555 100.197 154.738 100.723C154.379 100.958 154.021 101.193 153.674 101.439C152.554 102.223 151.379 103.018 150.248 103.835C151.199 102.198 152.04 100.5 152.767 98.7523C153.887 95.9308 154.111 93.0869 151.412 91.5754C148.053 89.7056 144.068 92.4935 145.131 97.2744C145.802 100.045 147.135 102.611 149.016 104.754C147.091 106.164 145.187 107.62 143.329 109.131C141.985 110.251 140.653 111.438 139.354 112.625C139.92 111.576 140.425 110.496 140.865 109.389C141.985 106.567 142.209 103.791 139.511 102.212C136.152 100.353 132.166 103.13 133.229 107.922C133.866 110.543 135.095 112.983 136.823 115.054C133.148 118.706 129.837 122.707 126.937 127.001C127.269 125.764 127.519 124.508 127.687 123.239C128.057 120.238 127.62 117.417 124.642 116.599C120.969 115.592 117.734 119.264 119.928 123.653C121.188 126.063 122.989 128.148 125.19 129.744C122.338 134.401 119.952 139.329 118.069 144.456C118.022 143.383 117.914 142.314 117.745 141.254C117.241 138.276 116.032 135.656 112.942 135.756C109.135 135.824 107.075 140.235 110.422 143.851C112.21 145.712 114.39 147.15 116.804 148.061C115.515 152.03 114.461 156.072 113.647 160.165C113.524 160.814 113.412 161.463 113.3 162.113C113.155 162.228 113.02 162.355 112.897 162.493C112.762 161.934 112.606 161.374 112.427 160.825C111.464 157.959 109.874 155.596 106.828 156.134C103.078 156.794 101.734 161.497 105.586 164.52C107.548 166.022 109.814 167.08 112.225 167.621C112.26 167.733 112.305 167.842 112.359 167.946C111.945 171.025 111.632 174.115 111.441 177.228C111.299 179.542 111.206 181.867 111.161 184.203C107.914 184.203 105.563 187.752 107.87 191.615C108.808 193.214 110.012 194.642 111.43 195.836C111.71 200.203 112.135 204.569 112.718 208.902C112.259 208.479 111.697 208.183 111.088 208.043C110.479 207.904 109.844 207.926 109.247 208.107C107.198 208.656 106.28 210.347 105.955 212.329C105.241 213.082 104.841 214.079 104.835 215.116C103.313 212.877 101.88 210.537 100.491 208.186C102.617 206.552 104.379 204.493 105.664 202.14C108.105 197.583 105.362 193.619 101.801 194.593C98.9013 195.377 98.2631 198.333 98.3526 201.502C98.4014 202.701 98.5135 203.897 98.6885 205.084L97.289 202.364C96.035 200.124 94.9713 197.885 93.7957 195.556C93.4934 195.008 93.2359 194.437 92.9896 193.866C95.3827 192.661 97.4989 190.972 99.2036 188.906C102.451 184.886 100.491 180.475 96.8187 180.766C93.8181 180.99 92.6425 183.778 92.1387 186.902C91.9353 188.267 91.8119 189.642 91.7692 191.022L90.6495 188.559C88.3751 182.979 86.5042 177.242 85.0513 171.394C87.7463 170.446 90.2001 168.917 92.2394 166.916C95.8782 163.232 94.3779 158.653 90.6831 158.563C87.6825 158.496 86.2046 161.15 85.4096 164.162C85.009 165.806 84.7099 167.474 84.5139 169.155C83.719 165.796 83.036 162.437 82.4762 159C82.0843 156.884 81.838 154.745 81.5693 152.607C84.4826 152.042 87.2261 150.812 89.5859 149.013C93.6726 145.844 92.7656 141.108 89.1156 140.537C86.1598 140.078 84.3684 142.519 83.1591 145.452C82.4515 147.313 81.8607 149.217 81.3901 151.151C81.155 148.666 80.8975 146.191 80.7855 143.706C80.4608 138.575 80.4832 133.428 80.8527 128.3C80.3265 133.425 80.1469 138.579 80.3153 143.728C80.3153 146.102 80.5168 148.464 80.6623 150.838C80.027 149.224 79.2787 147.656 78.4231 146.147C76.878 143.549 74.8066 141.59 71.9516 142.788C68.4247 144.232 68.1224 149.125 72.5338 151.252C75.1344 152.443 77.9853 152.985 80.8415 152.831C81.043 154.947 81.2222 157.063 81.5357 159.157C81.9835 162.516 82.5545 165.875 83.2151 169.133C82.494 167.868 81.6898 166.652 80.8079 165.494C78.9269 163.12 76.6316 161.441 73.9445 162.975C70.5856 164.867 70.9663 169.749 75.624 171.283C78.2633 172.107 81.0602 172.295 83.7861 171.831C85.0704 177.748 86.7728 183.566 88.8805 189.242L89.5523 190.943C88.9477 190.171 88.2983 189.376 87.6153 188.704C85.5104 186.532 83.0584 185.099 80.5392 186.89C77.4378 189.13 78.2999 193.933 83.036 194.997C85.6869 195.537 88.4268 195.456 91.0414 194.761C91.2765 195.344 91.5117 195.881 91.7916 196.497C92.9112 198.826 93.9413 201.222 95.1505 203.517C95.4864 204.178 95.8335 204.827 96.1805 205.476C95.5871 204.972 94.9713 204.48 94.3331 204.032C91.8699 202.285 89.1828 201.334 87.0443 203.573C84.4243 206.327 86.1262 210.918 91.0302 211.063C93.5555 211.097 96.0579 210.582 98.3639 209.552C99.7634 212.093 101.219 214.601 102.775 217.065C103.357 218.005 103.962 218.934 104.567 219.864C103.678 219.034 102.74 218.26 101.756 217.546C99.282 215.799 96.5948 214.848 94.4675 217.087C91.8363 219.841 93.5382 224.432 98.4422 224.577C101.246 224.61 104.018 223.973 106.526 222.719C107.332 223.838 108.172 224.958 109.045 226.078C107.22 228.194 107.814 231.788 111.52 233.378C113.338 234.13 115.275 234.555 117.241 234.632C117.465 234.822 117.7 235.001 117.935 235.169L118.058 235.259C118.92 238.483 119.861 241.685 120.846 244.865H104.231V297.611H145.837V244.832H126.456C124.787 239.133 123.388 234.173 123.097 234.038L122.514 233.758C124.698 233.011 126.728 231.873 128.505 230.4C132.446 227.041 131.326 222.349 127.665 221.957C124.675 221.622 122.996 224.141 121.932 227.13C121.626 227.982 121.364 228.849 121.149 229.728C120.936 228.933 120.723 228.138 120.522 227.343C119.917 224.992 119.402 222.618 118.842 220.256C121.214 219.496 123.415 218.283 125.325 216.684C129.266 213.325 128.146 208.645 124.485 208.242C121.496 207.917 119.827 210.481 118.752 213.415C118.444 214.282 118.178 215.163 117.958 216.057C117.61 214.333 117.286 212.608 116.983 210.873C116.76 209.574 116.558 208.287 116.368 206.999C116.289 205.163 116.267 203.315 116.289 201.479C116.289 200.46 116.289 199.453 116.379 198.434C118.6 199.152 120.934 199.452 123.265 199.318C128.437 198.982 130.341 194.56 127.642 192.041C125.403 190.003 122.593 191.011 119.951 192.757C118.782 193.565 117.66 194.44 116.592 195.377C116.909 191.048 117.568 186.75 118.562 182.524C119.151 180.045 119.877 177.6 120.734 175.201C123.107 176.022 125.617 176.372 128.124 176.231C133.285 175.907 135.2 171.473 132.502 168.965C130.262 166.916 127.452 167.935 124.81 169.681C123.872 170.318 122.968 171.001 122.1 171.73C123.095 169.386 124.255 167.115 125.571 164.934C128.209 160.545 131.51 156.591 135.357 153.212C137.338 155.027 139.676 156.411 142.22 157.276C147.147 158.888 150.561 155.484 148.938 152.148C147.662 149.438 144.639 149.315 141.526 149.909C140.35 150.17 139.187 150.492 138.044 150.872H138.122C142.344 147.569 146.895 144.71 151.703 142.34C153.405 144.563 155.567 146.392 158.041 147.703C162.642 150.077 166.561 147.277 165.542 143.728C164.714 140.84 161.747 140.246 158.578 140.369C157.336 140.438 156.099 140.577 154.872 140.784C159.989 138.365 165.206 136.081 170.245 133.416L170.357 133.36C172.621 135.305 175.303 136.704 178.194 137.447C183.221 138.69 186.379 135.04 184.554 131.849C183.087 129.229 180.075 129.341 177.007 130.214C176.156 130.449 175.317 130.763 174.488 131.076C177.848 129.119 181.107 126.993 184.251 124.706L184.52 124.985C184.514 124.945 184.514 124.903 184.52 124.862C186.782 126.824 189.463 128.241 192.358 129.005C197.385 130.237 200.542 126.598 198.728 123.407C197.362 120.809 194.339 120.809 191.339 121.727ZM112.012 224.521C110.993 223.323 110.008 222.069 109.056 220.804C109.292 220.591 109.538 220.356 109.784 220.11C111.201 220.555 112.668 220.819 114.151 220.894V221.129L114.845 220.995C115.203 222.775 115.584 224.566 115.965 226.346C115.498 225.739 114.89 225.255 114.193 224.937C113.496 224.619 112.732 224.476 111.967 224.521H112.012ZM115.718 181.818C115.371 183.151 115.069 184.494 114.789 185.838L114.621 185.603C114.621 182.841 114.662 180.083 114.744 177.329C114.823 175.392 114.968 173.466 115.136 171.551C116.061 172.506 117.085 173.358 118.193 174.093C117.213 176.62 116.372 179.199 115.673 181.818H115.718ZM120.376 169.11C120.376 168.607 120.488 168.092 120.522 167.599C120.522 167.341 120.522 167.084 120.522 166.838C120.925 166.714 121.339 166.569 121.753 166.401C121.238 167.297 120.801 168.192 120.331 169.11H120.376ZM126.276 159.515C126.08 159.068 125.795 158.665 125.439 158.33C125.083 157.996 124.663 157.736 124.205 157.567C121.406 156.447 119.133 158.485 117.331 161.083L117.241 161.217L117.062 161.161L116.48 161.083C116.48 160.926 116.536 160.769 116.558 160.612C117.278 156.519 118.246 152.474 119.458 148.498C122.062 148.823 124.705 148.617 127.228 147.893C128.772 147.501 130.123 146.567 131.035 145.262C131.542 147.545 132.493 149.706 133.834 151.622C131.037 153.986 128.49 156.631 126.232 159.515H126.276Z" fill="#43916F"/>
<path d="M214.471 140.134H413.509C415.884 140.134 418.163 141.078 419.842 142.758C421.522 144.437 422.466 146.716 422.466 149.091V288.755H205.547V149.058C205.556 146.694 206.499 144.429 208.17 142.758C209.842 141.086 212.107 140.143 214.471 140.134Z" fill="#072B2C" stroke="#072B2C" stroke-linecap="round" stroke-linejoin="round"/>
<path d="M454.969 354.444H173.01L205.547 288.744H422.432L454.969 354.444Z" fill="white" stroke="#072B2C" stroke-linecap="round" stroke-linejoin="round"/>
<path d="M409.299 151.902H218.68V276.977H409.299V151.902Z" fill="#43916F" stroke="#072B2C" stroke-linecap="round" stroke-linejoin="round"/>
<path d="M304.937 309.536L305.318 301.53H293.853L293.092 309.536H304.937Z" fill="#072B2C" stroke="white" stroke-linecap="round" stroke-linejoin="round"/>
<path d="M328.629 309.536L328.237 301.53H316.772L316.783 309.536H328.629Z" fill="#072B2C" stroke="white" stroke-linecap="round" stroke-linejoin="round"/>
<path d="M390.31 318.101H402.559L399.681 309.536H387.847L390.31 318.101Z" fill="#072B2C" stroke="white" stroke-linecap="round" stroke-linejoin="round"/>
<path d="M293.092 309.536L293.853 301.53H282.399L281.257 309.536H293.092Z" fill="#072B2C" stroke="white" stroke-linecap="round" stroke-linejoin="round"/>
<path d="M269.411 309.536L270.934 301.53H259.48L257.565 309.536H269.411Z" fill="#072B2C" stroke="white" stroke-linecap="round" stroke-linejoin="round"/>
<path d="M376.001 309.536L374.075 301.53H362.621L364.155 309.536H376.001Z" fill="#072B2C" stroke="white" stroke-linecap="round" stroke-linejoin="round"/>
<path d="M387.847 309.536L385.54 301.53H374.075L376.001 309.536H387.847Z" fill="#072B2C" stroke="white" stroke-linecap="round" stroke-linejoin="round"/>
<path d="M257.565 309.536L259.48 301.53H248.015L245.72 309.536H257.565Z" fill="#072B2C" stroke="white" stroke-linecap="round" stroke-linejoin="round"/>
<path d="M340.464 309.536L339.691 301.53H328.237L328.629 309.536H340.464Z" fill="#072B2C" stroke="white" stroke-linecap="round" stroke-linejoin="round"/>
<path d="M399.681 309.536L396.994 301.53H385.54L387.847 309.536H399.681Z" fill="#072B2C" stroke="white" stroke-linecap="round" stroke-linejoin="round"/>
<path d="M364.155 309.536L362.621 301.53H351.156L352.309 309.536H364.155Z" fill="#072B2C" stroke="white" stroke-linecap="round" stroke-linejoin="round"/>
<path d="M352.309 309.536L351.156 301.53H339.691L340.464 309.536H352.309Z" fill="#072B2C" stroke="white" stroke-linecap="round" stroke-linejoin="round"/>
<path d="M316.783 309.536L316.772 301.53H305.318L304.937 309.536H316.783Z" fill="#072B2C" stroke="white" stroke-linecap="round" stroke-linejoin="round"/>
<path d="M233.885 309.536H222.039L218.77 318.101H231.019L233.885 309.536Z" fill="#072B2C" stroke="white" stroke-linecap="round" stroke-linejoin="round"/>
<path d="M236.55 301.53H225.096L222.039 309.536H233.885L236.55 301.53Z" fill="#072B2C" stroke="white" stroke-linecap="round" stroke-linejoin="round"/>
<path d="M245.72 309.536L248.015 301.53H236.55L233.885 309.536H245.72Z" fill="#072B2C" stroke="white" stroke-linecap="round" stroke-linejoin="round"/>
<path d="M215.265 327.271L211.492 337.124H224.659L227.951 327.271H215.265Z" fill="#072B2C" stroke="white" stroke-linecap="round" stroke-linejoin="round"/>
<path d="M231.019 318.101H218.77L215.265 327.271H227.951L231.019 318.101Z" fill="#072B2C" stroke="white" stroke-linecap="round" stroke-linejoin="round"/>
<path d="M227.951 327.271L224.659 337.124H237.826L240.648 327.271H227.951Z" fill="#072B2C" stroke="white" stroke-linecap="round" stroke-linejoin="round"/>
<path d="M281.257 309.536L282.399 301.53H270.934L269.411 309.536H281.257Z" fill="#072B2C" stroke="white" stroke-linecap="round" stroke-linejoin="round"/>
<path d="M280.025 318.101L281.257 309.536H269.411L267.776 318.101H280.025Z" fill="#072B2C" stroke="white" stroke-linecap="round" stroke-linejoin="round"/>
<path d="M267.777 318.101L269.411 309.536H257.565L255.528 318.101H267.777Z" fill="#072B2C" stroke="white" stroke-linecap="round" stroke-linejoin="round"/>
<path d="M292.285 318.101L293.092 309.536H281.257L280.025 318.101H292.285Z" fill="#072B2C" stroke="white" stroke-linecap="round" stroke-linejoin="round"/>
<path d="M245.72 309.536H233.885L231.019 318.101H243.268L245.72 309.536Z" fill="#072B2C" stroke="white" stroke-linecap="round" stroke-linejoin="round"/>
<path d="M392.952 327.271H405.649L402.559 318.101H390.31L392.952 327.271Z" fill="#072B2C" stroke="white" stroke-linecap="round" stroke-linejoin="round"/>
<path d="M255.528 318.101L257.565 309.536H245.72L243.268 318.101H255.528Z" fill="#072B2C" stroke="white" stroke-linecap="round" stroke-linejoin="round"/>
<path d="M231.019 318.101L227.951 327.271H240.648L243.268 318.101H231.019Z" fill="#072B2C" stroke="white" stroke-linecap="round" stroke-linejoin="round"/>
<path d="M365.801 318.101L364.155 309.536H352.309L353.552 318.101H365.801Z" fill="#072B2C" stroke="white" stroke-linecap="round" stroke-linejoin="round"/>
<path d="M353.552 318.101L352.309 309.536H340.464L341.292 318.101H353.552Z" fill="#072B2C" stroke="white" stroke-linecap="round" stroke-linejoin="round"/>
<path d="M390.31 318.101L387.847 309.536H376.001L378.05 318.101H390.31Z" fill="#072B2C" stroke="white" stroke-linecap="round" stroke-linejoin="round"/>
<path d="M316.794 318.101L316.783 309.536H304.937L304.534 318.101H316.794Z" fill="#072B2C" stroke="white" stroke-linecap="round" stroke-linejoin="round"/>
<path d="M341.292 318.101L340.464 309.536H328.629L329.043 318.101H341.292Z" fill="#072B2C" stroke="white" stroke-linecap="round" stroke-linejoin="round"/>
<path d="M329.043 318.101L328.629 309.536H316.783L316.794 318.101H329.043Z" fill="#072B2C" stroke="white" stroke-linecap="round" stroke-linejoin="round"/>
<path d="M304.534 318.101L304.937 309.536H293.092L292.285 318.101H304.534Z" fill="#072B2C" stroke="white" stroke-linecap="round" stroke-linejoin="round"/>
<path d="M341.292 318.101L342.188 327.271H354.873L353.552 318.101H341.292Z" fill="#072B2C" stroke="white" stroke-linecap="round" stroke-linejoin="round"/>
<path d="M353.552 318.101L354.873 327.271H367.57L365.801 318.101H353.552Z" fill="#072B2C" stroke="white" stroke-linecap="round" stroke-linejoin="round"/>
<path d="M243.268 318.101L240.648 327.271H253.344L255.528 318.101H243.268Z" fill="#072B2C" stroke="white" stroke-linecap="round" stroke-linejoin="round"/>
<path d="M365.801 318.101L367.57 327.271H380.256L378.05 318.101H365.801Z" fill="#072B2C" stroke="white" stroke-linecap="round" stroke-linejoin="round"/>
<path d="M316.794 318.101V327.271H329.491L329.043 318.101H316.794Z" fill="#072B2C" stroke="white" stroke-linecap="round" stroke-linejoin="round"/>
<path d="M378.05 318.101L380.255 327.271H392.952L390.31 318.101H378.05Z" fill="#072B2C" stroke="white" stroke-linecap="round" stroke-linejoin="round"/>
<path d="M329.043 318.101L329.491 327.271H342.188L341.292 318.101H329.043Z" fill="#072B2C" stroke="white" stroke-linecap="round" stroke-linejoin="round"/>
<path d="M267.777 318.101L266.03 327.271H278.727L280.025 318.101H267.777Z" fill="#072B2C" stroke="white" stroke-linecap="round" stroke-linejoin="round"/>
<path d="M255.528 318.101L253.344 327.271H266.03L267.776 318.101H255.528Z" fill="#072B2C" stroke="white" stroke-linecap="round" stroke-linejoin="round"/>
<path d="M304.534 318.101L304.109 327.271H316.794V318.101H304.534Z" fill="#072B2C" stroke="white" stroke-linecap="round" stroke-linejoin="round"/>
<path d="M292.285 318.101L291.412 327.271H304.109L304.534 318.101H292.285Z" fill="#072B2C" stroke="white" stroke-linecap="round" stroke-linejoin="round"/>
<path d="M280.025 318.101L278.727 327.271H291.412L292.285 318.101H280.025Z" fill="#072B2C" stroke="white" stroke-linecap="round" stroke-linejoin="round"/>
<path d="M378.05 318.101L376.001 309.536H364.155L365.801 318.101H378.05Z" fill="#072B2C" stroke="white" stroke-linecap="round" stroke-linejoin="round"/>
<path d="M236.55 301.53L239.293 293.334H228.22L225.096 301.53H236.55Z" fill="#072B2C" stroke="white" stroke-linecap="round" stroke-linejoin="round"/>
<path d="M225.096 301.53H214.515L211.1 309.536H222.039L225.096 301.53Z" fill="#072B2C" stroke="white" stroke-linecap="round" stroke-linejoin="round"/>
<path d="M228.22 293.334H218.009L214.515 301.53H225.096L228.22 293.334Z" fill="#072B2C" stroke="white" stroke-linecap="round" stroke-linejoin="round"/>
<path d="M222.039 309.536H211.1L207.462 318.101H218.77L222.039 309.536Z" fill="#072B2C" stroke="white" stroke-linecap="round" stroke-linejoin="round"/>
<path d="M218.77 318.101H207.462L203.543 327.271H215.265L218.77 318.101Z" fill="#072B2C" stroke="white" stroke-linecap="round" stroke-linejoin="round"/>
<path d="M215.265 327.271H203.543L199.344 337.124H211.492L215.265 327.271Z" fill="#072B2C" stroke="white" stroke-linecap="round" stroke-linejoin="round"/>
<path d="M411.527 309.536L414.819 318.101H425.657L422.007 309.536H411.527Z" fill="#072B2C" stroke="white" stroke-linecap="round" stroke-linejoin="round"/>
<path d="M418.334 327.271H429.564L425.657 318.101H414.819L418.334 327.271Z" fill="#072B2C" stroke="white" stroke-linecap="round" stroke-linejoin="round"/>
<path d="M422.119 337.124H433.763L429.564 327.271H418.334L422.119 337.124Z" fill="#072B2C" stroke="white" stroke-linecap="round" stroke-linejoin="round"/>
<path d="M328.237 301.53L327.834 293.334H316.772V301.53H328.237Z" fill="#072B2C" stroke="white" stroke-linecap="round" stroke-linejoin="round"/>
<path d="M411.527 309.536H422.007L418.592 301.53H408.459L411.527 309.536Z" fill="#072B2C" stroke="white" stroke-linecap="round" stroke-linejoin="round"/>
<path d="M405.649 327.271H418.334L414.819 318.101H402.559L405.649 327.271Z" fill="#072B2C" stroke="white" stroke-linecap="round" stroke-linejoin="round"/>
<path d="M248.015 301.53L250.355 293.334H239.293L236.55 301.53H248.015Z" fill="#072B2C" stroke="white" stroke-linecap="round" stroke-linejoin="round"/>
<path d="M396.994 301.53L399.681 309.536H411.527L408.459 301.53H396.994Z" fill="#072B2C" stroke="white" stroke-linecap="round" stroke-linejoin="round"/>
<path d="M418.592 301.53L415.099 293.334H405.313L408.459 301.53H418.592Z" fill="#072B2C" stroke="white" stroke-linecap="round" stroke-linejoin="round"/>
<path d="M408.459 301.53L405.313 293.334H394.24L396.994 301.53H408.459Z" fill="#072B2C" stroke="white" stroke-linecap="round" stroke-linejoin="round"/>
<path d="M367.57 327.271L369.462 337.124H382.629L380.256 327.271H367.57Z" fill="#072B2C" stroke="white" stroke-linecap="round" stroke-linejoin="round"/>
<path d="M408.952 337.124H422.119L418.334 327.271H405.649L408.952 337.124Z" fill="#072B2C" stroke="white" stroke-linecap="round" stroke-linejoin="round"/>
<path d="M396.994 301.53L394.24 293.334H383.178L385.54 301.53H396.994Z" fill="#072B2C" stroke="white" stroke-linecap="round" stroke-linejoin="round"/>
<path d="M392.952 327.271L395.796 337.124H408.952L405.649 327.271H392.952Z" fill="#072B2C" stroke="white" stroke-linecap="round" stroke-linejoin="round"/>
<path d="M380.256 327.271L382.629 337.124H395.796L392.952 327.271H380.256Z" fill="#072B2C" stroke="white" stroke-linecap="round" stroke-linejoin="round"/>
<path d="M402.559 318.101H414.819L411.527 309.536H399.681L402.559 318.101Z" fill="#072B2C" stroke="white" stroke-linecap="round" stroke-linejoin="round"/>
<path d="M293.853 301.53L294.637 293.334H283.563L282.399 301.53H293.853Z" fill="#072B2C" stroke="white" stroke-linecap="round" stroke-linejoin="round"/>
<path d="M385.54 301.53L383.178 293.334H372.105L374.075 301.53H385.54Z" fill="#072B2C" stroke="white" stroke-linecap="round" stroke-linejoin="round"/>
<path d="M282.399 301.53L283.563 293.334H272.501L270.934 301.53H282.399Z" fill="#072B2C" stroke="white" stroke-linecap="round" stroke-linejoin="round"/>
<path d="M316.772 301.53V293.334H305.699L305.318 301.53H316.772Z" fill="#072B2C" stroke="white" stroke-linecap="round" stroke-linejoin="round"/>
<path d="M270.934 301.53L272.501 293.334H261.428L259.48 301.53H270.934Z" fill="#072B2C" stroke="white" stroke-linecap="round" stroke-linejoin="round"/>
<path d="M259.48 301.53L261.428 293.334H250.355L248.015 301.53H259.48Z" fill="#072B2C" stroke="white" stroke-linecap="round" stroke-linejoin="round"/>
<path d="M305.318 301.53L305.699 293.334H294.637L293.853 301.53H305.318Z" fill="#072B2C" stroke="white" stroke-linecap="round" stroke-linejoin="round"/>
<path d="M374.075 301.53L372.105 293.334H361.042L362.621 301.53H374.075Z" fill="#072B2C" stroke="white" stroke-linecap="round" stroke-linejoin="round"/>
<path d="M362.621 301.53L361.042 293.334H349.969L351.156 301.53H362.621Z" fill="#072B2C" stroke="white" stroke-linecap="round" stroke-linejoin="round"/>
<path d="M339.691 301.53L338.907 293.334H327.834L328.237 301.53H339.691Z" fill="#072B2C" stroke="white" stroke-linecap="round" stroke-linejoin="round"/>
<path d="M367.57 327.271H354.873H342.188H329.491H316.794H304.109H291.412H278.727H266.03H253.344H240.648L237.826 337.124H250.993H264.149H277.316H290.483H303.65H316.806H329.973H343.139H356.295H369.462L367.57 327.271Z" fill="#072B2C" stroke="white" stroke-linecap="round" stroke-linejoin="round"/>
<path d="M351.156 301.53L349.969 293.334H338.907L339.691 301.53H351.156Z" fill="#072B2C" stroke="white" stroke-linecap="round" stroke-linejoin="round"/>
<path d="M455.092 354.433H173.01V358.43H455.092V354.433Z" fill="#072B2C" stroke="#072B2C" stroke-linecap="round" stroke-linejoin="round"/>
<path opacity="0.15" d="M389.414 180.43V288.016L358.143 328.782L352.88 330.753L192.458 354.422V359.684L133.7 362.842V305.113H233.885V179.915L389.414 180.43Z" fill="black"/>
<path d="M97.6697 293.57C90.448 293.928 82.6217 299.436 82.6217 299.436L1 362.842H133.7C133.7 362.842 217.482 299.616 219.99 297.802C223.965 294.935 231.847 293.48 231.847 293.48L228.119 293.57H97.6697Z" fill="white" stroke="#072B2C" stroke-linecap="round" stroke-linejoin="round"/>
<path d="M402.951 180.531H225.365" stroke="#072B2C" stroke-linecap="round" stroke-linejoin="round"/>
<path d="M376.169 142.261C374.428 142.26 372.704 142.602 371.096 143.268C369.487 143.934 368.026 144.91 366.796 146.142C365.565 147.373 364.59 148.835 363.925 150.444C363.261 152.053 362.921 153.777 362.923 155.518V318.325C362.919 320.472 362.4 322.587 361.411 324.492C360.421 326.398 358.988 328.038 357.234 329.276C355.48 330.514 353.454 331.313 351.327 331.607C349.2 331.901 347.034 331.681 345.009 330.966L244.544 295.283C239.275 293.406 233.576 293.087 228.13 294.364V155.518C228.13 152.005 229.526 148.636 232.01 146.152C234.494 143.668 237.863 142.273 241.375 142.273L376.169 142.261Z" fill="white"/>
<mask id="mask0_7388_32413" style="mask-type:luminance" maskUnits="userSpaceOnUse" x="228" y="142" width="149" height="190">
<path d="M376.169 142.261C374.428 142.26 372.704 142.602 371.096 143.268C369.487 143.934 368.026 144.91 366.796 146.142C365.565 147.373 364.59 148.835 363.925 150.444C363.261 152.053 362.921 153.777 362.923 155.518V318.325C362.919 320.472 362.4 322.587 361.411 324.492C360.421 326.398 358.988 328.038 357.234 329.276C355.48 330.514 353.454 331.313 351.327 331.607C349.2 331.901 347.034 331.681 345.009 330.966L244.544 295.283C239.275 293.406 233.576 293.087 228.13 294.364V155.518C228.13 152.005 229.526 148.636 232.01 146.152C234.494 143.668 237.863 142.273 241.375 142.273L376.169 142.261Z" fill="white"/>
</mask>
<g mask="url(#mask0_7388_32413)">
<path d="M256.882 299.672L344.998 330.966C347.022 331.681 349.189 331.901 351.316 331.607C353.443 331.314 355.468 330.514 357.223 329.276C358.977 328.038 360.409 326.398 361.399 324.492C362.389 322.587 362.908 320.472 362.912 318.325V299.672H256.882Z" fill="#43916F"/>
<path opacity="0.6" d="M256.882 299.672L344.998 330.966C347.022 331.681 349.189 331.901 351.316 331.607C353.443 331.314 355.468 330.514 357.223 329.276C358.977 328.038 360.409 326.398 361.399 324.492C362.389 322.587 362.908 320.472 362.912 318.325V299.672H256.882Z" fill="white"/>
<path d="M256.882 321.113L344.998 352.463C347.023 353.179 349.191 353.399 351.319 353.104C353.447 352.81 355.473 352.009 357.227 350.77C358.982 349.531 360.414 347.889 361.403 345.982C362.392 344.075 362.91 341.959 362.912 339.811V321.113H256.882Z" fill="#43916F"/>
</g>
<path d="M376.169 142.261C374.428 142.26 372.704 142.602 371.096 143.268C369.487 143.934 368.026 144.91 366.796 146.142C365.565 147.373 364.59 148.835 363.925 150.444C363.261 152.053 362.921 153.777 362.923 155.518V318.325C362.919 320.472 362.4 322.587 361.411 324.492C360.421 326.398 358.988 328.038 357.234 329.276C355.48 330.514 353.454 331.313 351.327 331.607C349.2 331.901 347.034 331.681 345.009 330.966L244.544 295.283C239.275 293.406 233.576 293.087 228.13 294.364V155.518C228.13 152.005 229.526 148.636 232.01 146.152C234.494 143.668 237.863 142.273 241.375 142.273L376.169 142.261Z" stroke="#072B2C" stroke-linecap="round" stroke-linejoin="round"/>
<path d="M233.829 293.57H228.119" stroke="#072B2C" stroke-linecap="round" stroke-linejoin="round"/>
<path d="M349.51 331.76H214.706C213.178 331.754 211.663 331.485 210.227 330.965L186.95 322.781L215.892 300.5C219.8 297.206 224.501 294.992 229.529 294.076C234.557 293.161 239.737 293.577 244.555 295.283L345.02 330.965C346.46 331.486 347.979 331.754 349.51 331.76Z" fill="white"/>
<mask id="mask1_7388_32413" style="mask-type:luminance" maskUnits="userSpaceOnUse" x="186" y="293" width="164" height="39">
<path d="M349.51 331.76H214.706C213.178 331.754 211.663 331.485 210.227 330.965L186.95 322.781L215.892 300.5C219.8 297.206 224.501 294.992 229.529 294.076C234.557 293.161 239.737 293.577 244.555 295.283L345.02 330.965C346.46 331.486 347.979 331.754 349.51 331.76Z" fill="white"/>
</mask>
<g mask="url(#mask1_7388_32413)">
<path d="M349.51 331.76H214.706C213.178 331.754 211.663 331.485 210.227 330.965L185.505 322.344L215.87 300.5C219.778 297.206 224.479 294.992 229.507 294.076C234.535 293.161 239.715 293.577 244.533 295.283L344.998 330.965C346.445 331.488 347.972 331.757 349.51 331.76Z" fill="#43916F"/>
<path opacity="0.2" d="M349.51 331.76H214.706C213.178 331.754 211.663 331.485 210.227 330.965L185.505 322.344L215.87 300.5C219.778 297.206 224.479 294.992 229.507 294.076C234.535 293.161 239.715 293.577 244.533 295.283L344.998 330.965C346.445 331.488 347.972 331.757 349.51 331.76Z" fill="black"/>
</g>
<path d="M349.51 331.76H214.706C213.178 331.754 211.663 331.485 210.227 330.965L186.95 322.781L215.892 300.5C219.8 297.206 224.501 294.992 229.529 294.076C234.557 293.161 239.737 293.577 244.555 295.283L345.02 330.965C346.46 331.486 347.979 331.754 349.51 331.76Z" stroke="#072B2C" stroke-linecap="round" stroke-linejoin="round"/>
<path d="M214.706 331.76H214.414" stroke="#072B2C" stroke-linecap="round" stroke-linejoin="round"/>
<path d="M349.768 331.76H349.51" stroke="#072B2C" stroke-linecap="round" stroke-linejoin="round"/>
<path d="M385.529 146.147C384.304 144.912 382.845 143.933 381.238 143.266C379.632 142.599 377.908 142.257 376.169 142.262C362.375 142.262 362.924 155.507 362.924 155.507V180.43H389.414V155.518C389.418 153.777 389.077 152.052 388.41 150.443C387.743 148.835 386.764 147.374 385.529 146.147Z" fill="white"/>
<mask id="mask2_7388_32413" style="mask-type:luminance" maskUnits="userSpaceOnUse" x="362" y="142" width="28" height="39">
<path d="M385.529 146.147C384.304 144.912 382.845 143.933 381.238 143.266C379.632 142.599 377.908 142.257 376.169 142.262C362.375 142.262 362.924 155.507 362.924 155.507V180.43H389.414V155.518C389.418 153.777 389.077 152.052 388.41 150.443C387.743 148.835 386.764 147.374 385.529 146.147Z" fill="white"/>
</mask>
<g mask="url(#mask2_7388_32413)">
<path d="M385.529 146.147C384.304 144.912 382.845 143.933 381.238 143.266C379.632 142.599 377.908 142.257 376.169 142.262C362.375 142.262 362.924 155.507 362.924 155.507V180.43H389.414V155.518C389.418 153.777 389.077 152.052 388.41 150.443C387.743 148.835 386.764 147.374 385.529 146.147Z" fill="#43916F"/>
<path opacity="0.2" d="M385.529 146.147C384.304 144.912 382.845 143.933 381.238 143.266C379.632 142.599 377.908 142.257 376.169 142.262C362.375 142.262 362.924 155.507 362.924 155.507V180.43H389.414V155.518C389.418 153.777 389.077 152.052 388.41 150.443C387.743 148.835 386.764 147.374 385.529 146.147Z" fill="black"/>
</g>
<path d="M385.529 146.147C384.304 144.912 382.845 143.933 381.238 143.266C379.632 142.599 377.908 142.257 376.169 142.262C362.375 142.262 362.924 155.507 362.924 155.507V180.43H389.414V155.518C389.418 153.777 389.077 152.052 388.41 150.443C387.743 148.835 386.764 147.374 385.529 146.147Z" stroke="#072B2C" stroke-linecap="round" stroke-linejoin="round"/>
<g opacity="0.15">
<path d="M240.491 165.08V165.315V170.969V171.204V176.858V177.094V182.736V182.972V188.626V188.861V194.515V194.75V200.393V200.628V206.283V206.518V212.172V212.407V218.05V218.285V223.939V224.174V230.064H253.288V224.174V223.939V218.285V218.05V212.407V212.172V206.518V206.283V200.628V200.393V194.75V194.515V188.861V188.626V182.972V182.736V177.094V176.858V171.204V170.969V165.315V165.08V159.202H240.491V165.08Z" fill="black"/>
<path d="M341.393 159.202H341.124H328.875H328.595H316.346H316.067H303.829H303.549H291.3H291.02H278.783H278.503H266.254H265.974H253.456V165.315H265.974H266.254H278.503H278.783H291.02H291.3H303.549H303.829H316.067H316.346H328.595H328.875H341.124H341.393H353.922V159.202H341.393Z" fill="black"/>
</g>
<path d="M253.288 159.202H240.491V165.326H253.288V159.202Z" stroke="#072B2C" stroke-width="0.25" stroke-linecap="round" stroke-linejoin="round"/>
<path d="M253.288 165.08H240.491V171.204H253.288V165.08Z" stroke="#072B2C" stroke-width="0.25" stroke-linecap="round" stroke-linejoin="round"/>
<path d="M253.288 170.969H240.491V177.094H253.288V170.969Z" stroke="#072B2C" stroke-width="0.25" stroke-linecap="round" stroke-linejoin="round"/>
<path d="M253.288 176.858H240.491V182.983H253.288V176.858Z" stroke="#072B2C" stroke-width="0.25" stroke-linecap="round" stroke-linejoin="round"/>
<path d="M253.288 182.736H240.491V188.861H253.288V182.736Z" stroke="#072B2C" stroke-width="0.25" stroke-linecap="round" stroke-linejoin="round"/>
<path d="M253.288 188.626H240.491V194.75H253.288V188.626Z" stroke="#072B2C" stroke-width="0.25" stroke-linecap="round" stroke-linejoin="round"/>
<path d="M253.288 194.515H240.491V200.639H253.288V194.515Z" stroke="#072B2C" stroke-width="0.25" stroke-linecap="round" stroke-linejoin="round"/>
<path d="M253.288 200.393H240.491V206.518H253.288V200.393Z" stroke="#072B2C" stroke-width="0.25" stroke-linecap="round" stroke-linejoin="round"/>
<path d="M253.288 206.282H240.491V212.407H253.288V206.282Z" stroke="#072B2C" stroke-width="0.25" stroke-linecap="round" stroke-linejoin="round"/>
<path d="M253.288 212.172H240.491V218.296H253.288V212.172Z" stroke="#072B2C" stroke-width="0.25" stroke-linecap="round" stroke-linejoin="round"/>
<path d="M253.288 218.05H240.491V224.174H253.288V218.05Z" stroke="#072B2C" stroke-width="0.25" stroke-linecap="round" stroke-linejoin="round"/>
<path d="M253.288 223.939H240.491V230.064H253.288V223.939Z" stroke="#072B2C" stroke-width="0.25" stroke-linecap="round" stroke-linejoin="round"/>
<path d="M266.254 159.202H253.456V165.326H266.254V159.202Z" stroke="#072B2C" stroke-width="0.25" stroke-linecap="round" stroke-linejoin="round"/>
<path d="M278.771 159.202H265.974V165.326H278.771V159.202Z" stroke="#072B2C" stroke-width="0.25" stroke-linecap="round" stroke-linejoin="round"/>
<path d="M291.3 159.202H278.503V165.326H291.3V159.202Z" stroke="#072B2C" stroke-width="0.25" stroke-linecap="round" stroke-linejoin="round"/>
<path d="M303.818 159.202H291.02V165.326H303.818V159.202Z" stroke="#072B2C" stroke-width="0.25" stroke-linecap="round" stroke-linejoin="round"/>
<path d="M316.346 159.202H303.549V165.326H316.346V159.202Z" stroke="#072B2C" stroke-width="0.25" stroke-linecap="round" stroke-linejoin="round"/>
<path d="M328.864 159.202H316.067V165.326H328.864V159.202Z" stroke="#072B2C" stroke-width="0.25" stroke-linecap="round" stroke-linejoin="round"/>
<path d="M341.393 159.202H328.595V165.326H341.393V159.202Z" stroke="#072B2C" stroke-width="0.25" stroke-linecap="round" stroke-linejoin="round"/>
<path d="M353.922 159.202H341.124V165.326H353.922V159.202Z" stroke="#072B2C" stroke-width="0.25" stroke-linecap="round" stroke-linejoin="round"/>
<path d="M353.91 165.315H253.288V230.052H353.91V165.315Z" stroke="#072B2C" stroke-width="0.25" stroke-linecap="round" stroke-linejoin="round"/>
<path d="M266.086 165.315V230.041" stroke="#072B2C" stroke-width="0.25" stroke-linecap="round" stroke-linejoin="round"/>
<path d="M278.615 165.315V230.041" stroke="#072B2C" stroke-width="0.25" stroke-linecap="round" stroke-linejoin="round"/>
<path d="M291.143 165.315V230.041" stroke="#072B2C" stroke-width="0.25" stroke-linecap="round" stroke-linejoin="round"/>
<path d="M303.672 165.315V230.041" stroke="#072B2C" stroke-width="0.25" stroke-linecap="round" stroke-linejoin="round"/>
<path d="M316.19 165.315V230.041" stroke="#072B2C" stroke-width="0.25" stroke-linecap="round" stroke-linejoin="round"/>
<path d="M328.719 165.315V230.041" stroke="#072B2C" stroke-width="0.25" stroke-linecap="round" stroke-linejoin="round"/>
<path d="M341.247 165.315V230.041" stroke="#072B2C" stroke-width="0.25" stroke-linecap="round" stroke-linejoin="round"/>
<path d="M253.288 171.204H353.843" stroke="#072B2C" stroke-width="0.25" stroke-linecap="round" stroke-linejoin="round"/>
<path d="M253.288 177.071H353.843" stroke="#072B2C" stroke-width="0.25" stroke-linecap="round" stroke-linejoin="round"/>
<path d="M253.288 182.938H353.843" stroke="#072B2C" stroke-width="0.25" stroke-linecap="round" stroke-linejoin="round"/>
<path d="M253.288 188.805H353.843" stroke="#072B2C" stroke-width="0.25" stroke-linecap="round" stroke-linejoin="round"/>
<path d="M253.288 194.672H353.843" stroke="#072B2C" stroke-width="0.25" stroke-linecap="round" stroke-linejoin="round"/>
<path d="M253.288 200.528H353.843" stroke="#072B2C" stroke-width="0.25" stroke-linecap="round" stroke-linejoin="round"/>
<path d="M253.288 206.394H353.843" stroke="#072B2C" stroke-width="0.25" stroke-linecap="round" stroke-linejoin="round"/>
<path d="M253.288 212.261H353.843" stroke="#072B2C" stroke-width="0.25" stroke-linecap="round" stroke-linejoin="round"/>
<path d="M253.288 218.128H353.843" stroke="#072B2C" stroke-width="0.25" stroke-linecap="round" stroke-linejoin="round"/>
<path d="M253.288 223.995H353.843" stroke="#072B2C" stroke-width="0.25" stroke-linecap="round" stroke-linejoin="round"/>
<path d="M189.144 309.334H81.267L88.7126 303.68H196.59L189.144 309.334Z" fill="#43916F"/>
<path d="M24.1765 354.724H21.5342L88.7125 303.68H91.3661L24.1765 354.724Z" fill="#43916F"/>
<path d="M165.374 327.36H57.5082L65.9391 321.045H173.805L165.374 327.36Z" fill="#072B2C"/>
<path d="M129.064 354.982H21.1871L88.7126 303.68H196.59L129.064 354.982Z" stroke="#072B2C" stroke-width="0.25" stroke-linecap="round" stroke-linejoin="round"/>
<path d="M99.8306 303.87L32.5962 354.948" stroke="#072B2C" stroke-width="0.25" stroke-linecap="round" stroke-linejoin="round"/>
<path d="M110.669 303.87L43.4343 354.948" stroke="#072B2C" stroke-width="0.25" stroke-linecap="round" stroke-linejoin="round"/>
<path d="M121.496 303.87L54.2613 354.948" stroke="#072B2C" stroke-width="0.25" stroke-linecap="round" stroke-linejoin="round"/>
<path d="M132.334 303.87L65.0994 354.948" stroke="#072B2C" stroke-width="0.25" stroke-linecap="round" stroke-linejoin="round"/>
<path d="M143.172 303.87L75.9375 354.948" stroke="#072B2C" stroke-width="0.25" stroke-linecap="round" stroke-linejoin="round"/>
<path d="M154.01 303.87L86.7644 354.948" stroke="#072B2C" stroke-width="0.25" stroke-linecap="round" stroke-linejoin="round"/>
<path d="M164.837 303.87L97.6025 354.948" stroke="#072B2C" stroke-width="0.25" stroke-linecap="round" stroke-linejoin="round"/>
<path d="M175.675 303.87L108.441 354.948" stroke="#072B2C" stroke-width="0.25" stroke-linecap="round" stroke-linejoin="round"/>
<path d="M186.513 303.87L119.268 354.948" stroke="#072B2C" stroke-width="0.25" stroke-linecap="round" stroke-linejoin="round"/>
<path d="M74.6611 314.496H182.214" stroke="#072B2C" stroke-width="0.25" stroke-linecap="round" stroke-linejoin="round"/>
<path d="M66.0735 321.023H173.626" stroke="#072B2C" stroke-width="0.25" stroke-linecap="round" stroke-linejoin="round"/>
<path d="M57.4858 327.551H165.038" stroke="#072B2C" stroke-width="0.25" stroke-linecap="round" stroke-linejoin="round"/>
<path d="M48.8982 334.067H156.451" stroke="#072B2C" stroke-width="0.25" stroke-linecap="round" stroke-linejoin="round"/>
<path d="M40.3105 340.594H147.863" stroke="#072B2C" stroke-width="0.25" stroke-linecap="round" stroke-linejoin="round"/>
<path d="M31.7229 347.122H139.275" stroke="#072B2C" stroke-width="0.25" stroke-linecap="round" stroke-linejoin="round"/>
<path d="M354.09 235.001H240.39V239.177H354.09V235.001Z" fill="#43916F"/>
<path d="M243.178 235.001H240.39V288.789H243.178V235.001Z" fill="#43916F"/>
<path d="M354.09 235.001H240.39V289.069H354.09V235.001Z" stroke="#072B2C" stroke-width="0.25" stroke-linecap="round" stroke-linejoin="round"/>
<path d="M252.37 235.203V289.035" stroke="#072B2C" stroke-width="0.25" stroke-linecap="round" stroke-linejoin="round"/>
<path d="M263.791 235.203V289.035" stroke="#072B2C" stroke-width="0.25" stroke-linecap="round" stroke-linejoin="round"/>
<path d="M275.211 235.203V289.035" stroke="#072B2C" stroke-width="0.25" stroke-linecap="round" stroke-linejoin="round"/>
<path d="M286.631 235.203V289.035" stroke="#072B2C" stroke-width="0.25" stroke-linecap="round" stroke-linejoin="round"/>
<path d="M298.052 235.203V289.035" stroke="#072B2C" stroke-width="0.25" stroke-linecap="round" stroke-linejoin="round"/>
<path d="M309.472 235.203V289.035" stroke="#072B2C" stroke-width="0.25" stroke-linecap="round" stroke-linejoin="round"/>
<path d="M320.892 235.203V289.035" stroke="#072B2C" stroke-width="0.25" stroke-linecap="round" stroke-linejoin="round"/>
<path d="M332.301 235.203V289.035" stroke="#072B2C" stroke-width="0.25" stroke-linecap="round" stroke-linejoin="round"/>
<path d="M343.722 235.203V289.035" stroke="#072B2C" stroke-width="0.25" stroke-linecap="round" stroke-linejoin="round"/>
<path d="M240.58 246.399H353.944" stroke="#072B2C" stroke-width="0.25" stroke-linecap="round" stroke-linejoin="round"/>
<path d="M240.58 253.285H353.944" stroke="#072B2C" stroke-width="0.25" stroke-linecap="round" stroke-linejoin="round"/>
<path d="M240.58 260.159H353.944" stroke="#072B2C" stroke-width="0.25" stroke-linecap="round" stroke-linejoin="round"/>
<path d="M240.58 267.034H353.944" stroke="#072B2C" stroke-width="0.25" stroke-linecap="round" stroke-linejoin="round"/>
<path d="M240.58 273.909H353.944" stroke="#072B2C" stroke-width="0.25" stroke-linecap="round" stroke-linejoin="round"/>
<path d="M240.58 280.783H353.944" stroke="#072B2C" stroke-width="0.25" stroke-linecap="round" stroke-linejoin="round"/>
<path d="M316.447 269.509H311.711V280.571H316.447V269.509Z" fill="#072B2C" stroke="#072B2C" stroke-width="0.5" stroke-miterlimit="10"/>
<path d="M324.038 262.88H319.302V280.582H324.038V262.88Z" fill="#43916F" stroke="#072B2C" stroke-width="0.5" stroke-miterlimit="10"/>
<path d="M331.618 251.818H326.882V280.582H331.618V251.818Z" fill="#072B2C" stroke="#072B2C" stroke-width="0.5" stroke-miterlimit="10"/>
<path d="M339.209 262.556H334.473V280.571H339.209V262.556Z" fill="#43916F" stroke="#072B2C" stroke-width="0.5" stroke-miterlimit="10"/>
<path d="M346.789 251.818H342.053V280.582H346.789V251.818Z" fill="#072B2C" stroke="#072B2C" stroke-width="0.5" stroke-miterlimit="10"/>
<path d="M267.687 267.28V280.425C264.201 280.425 260.857 279.04 258.392 276.575C255.927 274.11 254.542 270.766 254.542 267.28C254.542 263.794 255.927 260.451 258.392 257.986C260.857 255.521 264.201 254.136 267.687 254.136V267.28Z" fill="#43916F" stroke="#072B2C" stroke-width="0.5" stroke-miterlimit="10"/>
<path d="M267.687 267.28L280.182 263.216C280.72 264.858 280.929 266.591 280.796 268.314C280.663 270.037 280.192 271.716 279.408 273.257C278.625 274.797 277.546 276.168 276.232 277.291C274.918 278.413 273.395 279.265 271.751 279.798C270.441 280.237 269.068 280.456 267.687 280.447V267.28Z" fill="white" stroke="#072B2C" stroke-width="0.5" stroke-miterlimit="10"/>
<path d="M267.687 267.28V254.136C270.469 254.104 273.188 254.97 275.439 256.606C277.69 258.241 279.354 260.56 280.182 263.216L267.687 267.28Z" fill="#072B2C" stroke="#072B2C" stroke-width="0.5" stroke-miterlimit="10"/>
</svg>
