<svg width="530" height="333" viewBox="0 0 530 333" fill="none" xmlns="http://www.w3.org/2000/svg">
<g opacity="0.15">
<path d="M355.67 75.1283C358.193 73.5773 360.528 71.9582 362.76 70.339C361.789 68.6346 357.46 61.2888 356.982 57.1812C356.505 53.0737 356.982 48.1139 360.067 45.2506C360.758 44.5469 361.588 43.9962 362.505 43.634C363.422 43.2717 364.405 43.1062 365.39 43.1479C366.375 43.1897 367.34 43.4379 368.223 43.8764C369.106 44.315 369.887 44.9341 370.515 45.6937C374.163 50.3807 370.975 60.5899 367.993 64.9702C367.839 65.2088 365.913 67.4586 364.584 69.0607C365.59 68.3108 366.629 67.5609 367.567 66.828C371.112 64.0669 374.18 61.3228 376.873 58.8685C378.407 57.471 379.753 56.1586 380.997 54.9314C380.878 52.8521 380.503 44.4666 381.935 40.6658C383.366 36.8651 386.161 32.6552 390.184 31.4792C391.114 31.1694 392.099 31.058 393.075 31.152C394.051 31.246 394.997 31.5434 395.851 32.0251C396.705 32.5068 397.449 33.1621 398.035 33.9487C398.62 34.7353 399.035 35.6359 399.251 36.5923C400.325 42.4213 392.791 50.0228 388.139 52.5453C387.729 52.7669 381.048 55.4257 381.031 55.3235V55.2041C379.838 56.4143 378.56 57.6925 377.145 59.0731C374.486 61.5785 371.47 64.3907 367.976 67.237C364.249 70.3547 360.339 73.2459 356.267 75.8953L353.71 77.4804H351.614C352.943 76.7475 354.341 75.9464 355.67 75.1283Z" fill="black"/>
<path d="M363.886 70.4928C363.886 70.4076 370.703 68.0726 371.095 67.9874C376.208 66.8625 386.929 67.7317 389.843 72.8619C390.657 74.2746 390.912 75.9405 390.559 77.5319H369.8C367.689 75.3061 365.714 72.9555 363.886 70.4928Z" fill="black"/>
</g>
<path d="M258.809 160.169C256.341 160.817 253.792 161.098 251.242 161.005C251.242 161.005 252.384 157.494 252.486 157.272C253.679 154.801 257.395 150.727 260.429 151.136C260.932 151.218 261.412 151.405 261.838 151.685C262.264 151.965 262.626 152.332 262.901 152.761C263.176 153.191 263.358 153.673 263.434 154.177C263.51 154.681 263.479 155.196 263.343 155.687C262.959 156.719 262.354 157.655 261.571 158.429C260.788 159.203 259.846 159.797 258.809 160.169Z" fill="#072B2C"/>
<path d="M256.951 175.73C254.425 175.718 251.914 175.328 249.503 174.571C248.706 177.313 247.733 180 246.589 182.616C245.924 184.15 245.208 185.667 244.475 187.184L245.379 185.888C247.168 183.826 251.838 180.878 254.668 182.071C255.122 182.286 255.528 182.593 255.858 182.973C256.189 183.352 256.437 183.796 256.587 184.277C256.738 184.757 256.787 185.263 256.733 185.763C256.678 186.264 256.52 186.747 256.27 187.184C255.627 188.077 254.796 188.819 253.837 189.358C252.877 189.897 251.811 190.219 250.713 190.303C248.257 190.302 245.814 189.929 243.47 189.195L242.601 190.899C241.22 193.677 239.822 196.421 238.527 199.166C238.067 200.137 237.658 201.108 237.249 202.08C237.641 201.5 237.965 201.023 238.033 200.955C239.822 198.893 244.492 195.944 247.305 197.154C247.763 197.366 248.172 197.671 248.506 198.05C248.839 198.429 249.089 198.874 249.24 199.355C249.391 199.837 249.439 200.345 249.382 200.847C249.325 201.348 249.163 201.832 248.907 202.267C248.264 203.161 247.434 203.903 246.474 204.442C245.514 204.981 244.448 205.303 243.35 205.386C240.958 205.402 238.578 205.045 236.294 204.33C235.902 205.335 235.51 206.341 235.169 207.329C234.948 208.011 234.692 208.659 234.522 209.341C234.351 210.022 234.147 210.721 233.959 211.386C233.636 212.698 233.312 214.045 233.039 215.323C232.834 216.226 232.664 217.027 232.494 217.931C232.92 216.959 233.84 215.084 233.925 214.948C235.374 212.63 239.55 209 242.447 209.835C242.937 209.973 243.392 210.212 243.783 210.538C244.174 210.863 244.491 211.268 244.715 211.725C244.939 212.182 245.063 212.681 245.081 213.189C245.098 213.698 245.008 214.204 244.816 214.675C244.317 215.656 243.61 216.516 242.744 217.196C241.879 217.876 240.876 218.359 239.805 218.612C237.313 218.981 234.781 218.981 232.289 218.612C232.016 220.027 231.744 221.408 231.522 222.72C231.011 225.617 230.619 228.225 230.329 230.424H228.318C228.676 228.14 229.136 225.43 229.732 222.396C230.022 220.947 230.346 219.414 230.704 217.828C229.268 217.261 227.868 216.606 226.511 215.868C224.665 217.451 222.612 218.776 220.41 219.806C220.955 221.135 221.5 222.447 222.114 223.657C223.222 226.214 224.278 228.481 225.199 230.475H223.034C222.233 228.685 221.33 226.657 220.444 224.424C219.881 223.061 219.302 221.595 218.739 220.078C216.289 220.648 213.766 220.843 211.257 220.658C210.168 220.489 209.13 220.085 208.214 219.472C207.298 218.86 206.528 218.054 205.956 217.113C205.732 216.656 205.606 216.156 205.587 215.648C205.568 215.139 205.656 214.632 205.845 214.159C206.035 213.686 206.322 213.259 206.688 212.905C207.053 212.55 207.489 212.277 207.968 212.102C210.865 211.13 215.296 214.42 216.916 216.635C217.018 216.755 217.904 218.34 218.432 219.26C218.211 218.63 217.972 218.033 217.751 217.402C217.291 216.141 216.864 214.863 216.404 213.482C216.2 212.818 215.995 212.153 215.791 211.454C215.586 210.755 215.433 210.056 215.245 209.341C214.853 207.636 214.529 205.932 214.24 204.228C211.975 205.167 209.577 205.742 207.132 205.932C206.032 205.93 204.946 205.687 203.95 205.219C202.955 204.75 202.074 204.069 201.372 203.222C201.078 202.807 200.876 202.334 200.778 201.835C200.68 201.336 200.688 200.822 200.803 200.327C200.917 199.831 201.134 199.365 201.441 198.96C201.748 198.554 202.136 198.218 202.582 197.972C205.309 196.575 210.183 199.166 212.126 201.091C212.246 201.211 213.49 202.796 214.137 203.614C213.984 202.574 213.814 201.535 213.677 200.495C213.302 197.461 213.013 194.376 212.723 191.291C212.621 190.354 212.518 189.416 212.433 188.479C210.081 189.402 207.606 189.977 205.087 190.183C203.985 190.176 202.898 189.93 201.901 189.463C200.903 188.995 200.019 188.316 199.309 187.474C199.016 187.058 198.814 186.585 198.716 186.087C198.618 185.588 198.626 185.074 198.74 184.578C198.855 184.083 199.072 183.617 199.379 183.211C199.685 182.806 200.074 182.469 200.52 182.224C203.247 180.809 208.121 183.4 210.064 185.326C210.217 185.479 211.99 187.695 212.416 188.275C212.194 186.212 211.956 184.15 211.632 182.139C211.24 179.406 210.671 176.702 209.928 174.043C207.561 174.976 205.067 175.551 202.531 175.747C201.43 175.746 200.344 175.502 199.348 175.034C198.353 174.566 197.473 173.884 196.77 173.037C196.477 172.622 196.274 172.149 196.176 171.65C196.078 171.152 196.087 170.638 196.201 170.142C196.315 169.647 196.533 169.181 196.839 168.775C197.146 168.369 197.534 168.033 197.98 167.788C200.707 166.39 205.581 168.981 207.524 170.907C207.678 171.06 209.587 173.446 209.894 173.907C209.894 173.753 209.894 173.583 209.774 173.429C208.941 170.786 207.868 168.225 206.57 165.777C205.871 164.413 205.138 163.152 204.388 161.942C202.19 163.108 199.829 163.935 197.383 164.396C196.289 164.516 195.183 164.394 194.14 164.041C193.098 163.688 192.146 163.111 191.35 162.351C191.013 161.969 190.76 161.519 190.607 161.032C190.455 160.546 190.407 160.032 190.467 159.526C190.526 159.019 190.692 158.531 190.953 158.093C191.213 157.654 191.564 157.276 191.981 156.982C194.537 155.278 199.667 157.323 201.815 159.027L203.775 160.987C203.434 160.442 203.076 159.88 202.735 159.368C201.457 157.442 200.162 155.755 199.003 154.255C198.338 153.403 197.724 152.67 197.145 151.971C194.669 151.998 192.203 151.647 189.833 150.932C188.81 150.53 187.886 149.91 187.127 149.116C186.368 148.321 185.791 147.37 185.436 146.33C185.311 145.837 185.292 145.323 185.38 144.822C185.468 144.321 185.66 143.844 185.945 143.422C186.23 143 186.6 142.644 187.032 142.375C187.465 142.107 187.948 141.933 188.452 141.864C191.503 141.541 195.117 145.716 196.242 148.205C196.327 148.426 197.452 151.971 197.383 151.971C197.946 152.636 198.559 153.335 199.207 154.119C200.4 155.585 201.747 157.255 203.059 159.232C204.517 161.271 205.855 163.394 207.064 165.589C208.427 168.045 209.568 170.617 210.473 173.276C210.473 173.276 210.473 173.276 210.473 173.361C210.473 172.475 210.473 169.952 210.473 169.765C210.831 167.055 213.098 162.027 216.115 161.465C216.617 161.388 217.13 161.417 217.62 161.551C218.11 161.684 218.567 161.92 218.96 162.241C219.354 162.562 219.675 162.963 219.905 163.416C220.134 163.869 220.265 164.366 220.29 164.873C220.25 165.973 219.97 167.051 219.47 168.032C218.969 169.012 218.26 169.871 217.393 170.549C215.288 171.926 212.99 172.983 210.575 173.685C211.429 176.41 212.101 179.188 212.586 182.002C212.876 183.707 213.115 185.309 213.353 186.979C213.353 186.195 213.353 185.496 213.353 185.411C213.711 182.684 215.978 177.656 218.995 177.094C219.497 177.017 220.01 177.046 220.5 177.18C220.99 177.314 221.447 177.549 221.84 177.87C222.234 178.191 222.556 178.592 222.785 179.045C223.014 179.499 223.145 179.995 223.171 180.503C223.127 181.604 222.844 182.682 222.341 183.663C221.837 184.643 221.126 185.501 220.256 186.178C218.201 187.533 215.955 188.573 213.592 189.263L213.848 191.172C214.206 194.257 214.564 197.325 215.007 200.324C215.16 201.381 215.348 202.404 215.535 203.444C215.535 202.762 215.535 202.182 215.535 202.08C215.893 199.37 218.16 194.342 221.177 193.78C221.679 193.703 222.192 193.732 222.682 193.866C223.172 193.999 223.629 194.235 224.022 194.556C224.416 194.877 224.737 195.277 224.967 195.731C225.196 196.184 225.327 196.681 225.352 197.188C225.309 198.29 225.026 199.368 224.522 200.348C224.019 201.329 223.308 202.187 222.438 202.864C220.449 204.189 218.271 205.207 215.978 205.881C216.2 206.937 216.421 207.994 216.677 209C216.881 209.699 217.018 210.363 217.256 211.045C217.495 211.727 217.683 212.391 217.904 213.056C218.364 214.317 218.825 215.63 219.319 216.857C219.643 217.709 219.966 218.561 220.29 219.328C220.137 218.272 219.847 216.209 219.847 216.039C219.878 213.641 220.53 211.292 221.739 209.221C221.714 208.955 221.714 208.687 221.739 208.42C221.804 207.915 221.975 207.428 222.24 206.993C222.505 206.558 222.859 206.183 223.279 205.894C223.698 205.604 224.174 205.407 224.675 205.313C225.177 205.22 225.692 205.233 226.187 205.352C229.136 206.136 231.011 211.335 231.164 214.062C231.164 214.232 231.062 215.988 230.977 217.096C231.13 216.448 231.266 215.817 231.42 215.153C231.727 213.857 232.085 212.545 232.442 211.164L233.056 209.136C233.261 208.454 233.533 207.756 233.772 207.057C234.368 205.455 235.033 203.87 235.749 202.285C233.359 201.776 231.061 200.908 228.931 199.711C228.014 199.103 227.241 198.301 226.667 197.361C226.092 196.422 225.731 195.368 225.608 194.274C225.594 193.765 225.688 193.26 225.883 192.79C226.078 192.32 226.37 191.897 226.74 191.547C227.11 191.198 227.55 190.931 228.03 190.764C228.511 190.596 229.021 190.532 229.528 190.575C232.579 190.899 235.221 195.689 235.766 198.433C235.766 198.603 235.988 200.563 236.056 201.637C236.499 200.699 236.925 199.745 237.402 198.791C238.749 196.046 240.214 193.319 241.663 190.592L242.975 188.07C240.499 187.565 238.114 186.686 235.902 185.462C234.986 184.849 234.214 184.043 233.64 183.101C233.066 182.16 232.704 181.104 232.579 180.008C232.565 179.5 232.659 178.994 232.854 178.524C233.049 178.054 233.341 177.631 233.711 177.282C234.081 176.933 234.521 176.666 235.001 176.498C235.482 176.331 235.992 176.266 236.499 176.31C239.533 176.634 242.174 181.423 242.737 184.167C242.737 184.372 243.027 187.201 243.061 187.917C244.015 186.076 244.953 184.218 245.805 182.36C246.969 179.854 247.971 177.275 248.804 174.64C246.31 174.131 243.908 173.246 241.68 172.015C240.764 171.405 239.992 170.602 239.418 169.663C238.844 168.724 238.482 167.671 238.357 166.578C238.343 166.07 238.437 165.565 238.631 165.096C238.824 164.626 239.115 164.203 239.483 163.853C239.85 163.503 240.288 163.234 240.766 163.063C241.244 162.892 241.753 162.824 242.26 162.862C245.311 163.203 247.952 167.975 248.498 170.719C248.498 170.941 248.822 173.975 248.839 174.537C248.839 174.384 248.941 174.23 248.992 174.077C249.749 171.413 250.268 168.686 250.543 165.93C250.713 164.396 250.782 162.948 250.833 161.516C248.357 161.286 245.931 160.676 243.64 159.709C242.656 159.193 241.797 158.468 241.123 157.585C240.448 156.701 239.976 155.681 239.737 154.596C239.67 154.091 239.71 153.578 239.853 153.089C239.997 152.601 240.241 152.148 240.57 151.759C240.899 151.371 241.306 151.055 241.764 150.834C242.223 150.612 242.722 150.488 243.231 150.471C246.282 150.471 249.452 155.005 250.287 157.613C250.287 157.749 250.645 159.232 250.85 160.323C250.85 159.675 250.85 159.01 250.85 158.397C250.85 156.079 250.696 153.965 250.543 152.091C250.458 151.017 250.355 150.062 250.253 149.159C248.178 147.814 246.317 146.165 244.731 144.268C244.1 143.366 243.671 142.339 243.474 141.256C243.277 140.174 243.316 139.061 243.589 137.995C243.76 137.514 244.031 137.075 244.384 136.705C244.737 136.336 245.164 136.045 245.637 135.852C246.11 135.659 246.618 135.568 247.129 135.585C247.64 135.602 248.141 135.726 248.6 135.95C251.327 137.365 252.009 142.768 251.583 145.529C251.583 145.767 250.526 149.347 250.475 149.312C250.594 150.182 250.713 151.017 250.816 152.125C251.003 154 251.191 156.113 251.242 158.448C251.335 160.949 251.278 163.453 251.071 165.947C250.859 168.751 250.391 171.529 249.674 174.248C249.674 174.248 249.674 174.248 249.674 174.333C250.151 173.583 251.566 171.503 251.685 171.367C253.474 169.288 258.161 166.356 260.974 167.549C261.43 167.763 261.838 168.069 262.169 168.448C262.501 168.828 262.751 169.272 262.901 169.753C263.052 170.234 263.101 170.741 263.045 171.242C262.989 171.743 262.829 172.227 262.576 172.662C261.921 173.555 261.077 174.292 260.105 174.823C259.133 175.353 258.056 175.663 256.951 175.73Z" fill="#072B2C"/>
<path d="M204.438 161.346C204.438 161.346 203.45 157.783 203.433 157.545C203.041 154.835 203.91 149.381 206.671 148.051C207.134 147.842 207.637 147.733 208.145 147.731C208.654 147.729 209.157 147.835 209.622 148.041C210.087 148.246 210.503 148.548 210.843 148.926C211.183 149.304 211.44 149.749 211.597 150.233C211.849 151.305 211.863 152.42 211.636 153.498C211.409 154.577 210.948 155.591 210.284 156.471C208.587 158.376 206.617 160.019 204.438 161.346Z" fill="#072B2C"/>
<path d="M215.501 226.605H238.306L236.039 279.373H217.785L215.501 226.605Z" fill="#072B2C"/>
<path d="M9.57834 274.166H304.811V331.365H9.57834V274.166Z" fill="white"/>
<path d="M9.57776 332.216H304.81C305.036 332.216 305.253 332.126 305.413 331.966C305.572 331.807 305.662 331.59 305.662 331.364V274.165C305.662 273.939 305.572 273.722 305.413 273.562C305.253 273.403 305.036 273.313 304.81 273.313H9.57776C9.35175 273.313 9.13501 273.403 8.97519 273.562C8.81537 273.722 8.72559 273.939 8.72559 274.165V331.364C8.72559 331.59 8.81537 331.807 8.97519 331.966C9.13501 332.126 9.35175 332.216 9.57776 332.216ZM303.958 330.512H10.43V275.017H303.958V330.512Z" fill="#072B2C"/>
<path d="M9.57834 274.166H304.811V293.255H9.57834V274.166Z" fill="#072B2C"/>
<path d="M9.57776 294.106H304.81C305.036 294.106 305.253 294.016 305.413 293.857C305.572 293.697 305.662 293.48 305.662 293.254V274.165C305.662 273.939 305.572 273.722 305.413 273.562C305.253 273.403 305.036 273.313 304.81 273.313H9.57776C9.35175 273.313 9.13501 273.403 8.97519 273.562C8.81537 273.722 8.72559 273.939 8.72559 274.165V293.254C8.72559 293.48 8.81537 293.697 8.97519 293.857C9.13501 294.016 9.35175 294.106 9.57776 294.106ZM303.958 292.402H10.43V275.017H303.958V292.402Z" fill="#072B2C"/>
<path d="M0.887085 274.166H313.504V284.341H0.887085V274.166Z" fill="white"/>
<path d="M0.852386 285.193H313.503C313.729 285.193 313.946 285.103 314.106 284.943C314.266 284.783 314.355 284.566 314.355 284.34V274.114C314.355 273.888 314.266 273.671 314.106 273.512C313.946 273.352 313.729 273.262 313.503 273.262H0.852386C0.626373 273.262 0.409637 273.352 0.249817 273.512C0.0899963 273.671 0.000213623 273.888 0.000213623 274.114V284.34C0.000213623 284.566 0.0899963 284.783 0.249817 284.943C0.409637 285.103 0.626373 285.193 0.852386 285.193ZM312.617 283.488H1.73865V274.966H312.651L312.617 283.488Z" fill="#072B2C"/>
<path d="M109.321 254.821L146.187 163.058C146.264 162.691 146.421 162.346 146.647 162.047C146.873 161.747 147.161 161.501 147.493 161.326C147.824 161.151 148.19 161.05 148.564 161.032C148.938 161.014 149.312 161.078 149.659 161.22C150.005 161.363 150.317 161.579 150.57 161.855C150.824 162.131 151.014 162.459 151.127 162.817C151.239 163.174 151.272 163.552 151.222 163.924C151.173 164.295 151.042 164.651 150.84 164.967L113.991 256.73C113.534 257.903 113.314 259.154 113.344 260.412C113.348 263.016 114.383 265.512 116.223 267.355C118.062 269.197 120.557 270.237 123.161 270.246H152.646V275.359H123.161C119.199 275.355 115.402 273.778 112.602 270.975C109.803 268.172 108.23 264.373 108.23 260.412C108.228 258.495 108.599 256.597 109.321 254.821Z" fill="#072B2C"/>
<path d="M135.315 72.2735L145.064 71.2986L162.512 245.776L152.763 246.751L135.315 72.2735Z" fill="white"/>
<path d="M153.838 242.907H153.923L163.638 241.953C163.75 241.942 163.859 241.91 163.958 241.857C164.058 241.805 164.146 241.733 164.217 241.646C164.355 241.466 164.422 241.241 164.405 241.015L147.361 67.3904C147.335 67.1689 147.225 66.9658 147.054 66.8231C146.883 66.6803 146.663 66.6088 146.441 66.6235L136.726 67.5779C136.613 67.5842 136.502 67.6149 136.402 67.6678C136.302 67.7208 136.215 67.7948 136.146 67.8847C136.009 68.0587 135.942 68.2775 135.959 68.4983L153.002 242.14C153.02 242.35 153.115 242.545 153.27 242.687C153.425 242.829 153.627 242.908 153.838 242.907ZM162.632 240.334L154.604 241.118L137.714 69.18L145.742 68.396L162.632 240.334Z" fill="#072B2C"/>
<path d="M185.353 264.758L280.576 268.95V273.74H185.353V264.758Z" fill="white"/>
<path d="M185.352 274.592H280.576C280.802 274.592 281.018 274.502 281.178 274.342C281.338 274.182 281.428 273.965 281.428 273.739V268.933C281.428 268.713 281.343 268.501 281.19 268.342C281.038 268.183 280.83 268.09 280.61 268.081L185.386 263.888C185.27 263.881 185.154 263.898 185.045 263.939C184.936 263.981 184.838 264.044 184.755 264.127C184.672 264.205 184.607 264.301 184.563 264.406C184.519 264.512 184.497 264.626 184.5 264.74V273.722C184.498 273.836 184.518 273.948 184.56 274.054C184.602 274.159 184.664 274.255 184.743 274.336C184.823 274.417 184.917 274.481 185.022 274.525C185.126 274.569 185.239 274.592 185.352 274.592ZM279.723 272.887H186.204V265.644L279.723 269.768V272.887Z" fill="#072B2C"/>
<path d="M453.536 257.377L462.467 331.159H311.63L356.898 309.394C356.898 309.394 352.364 303.054 351.921 298.964C351.478 294.873 363.852 272.58 364.977 270.569L365.982 263.854C365.982 263.854 368.147 232.101 366.903 225.931C365.658 219.761 362.591 205.274 368.76 188.929C374.93 172.584 390.917 144.53 390.917 144.53L438.64 130.656C438.64 130.656 460.524 160.875 456.519 192.934C454.093 214.325 453.096 235.854 453.536 257.377Z" fill="#43916F"/>
<path d="M311.63 331.994H462.467C462.587 331.995 462.707 331.97 462.817 331.921C462.927 331.872 463.025 331.799 463.104 331.709C463.183 331.618 463.242 331.511 463.276 331.396C463.311 331.28 463.319 331.159 463.302 331.039L454.388 257.291C454.002 235.828 455.032 214.363 457.473 193.036C461.478 161.011 439.662 130.451 439.441 130.145C439.333 130.005 439.187 129.9 439.021 129.842C438.854 129.785 438.674 129.777 438.503 129.821L390.781 143.694C390.676 143.727 390.578 143.779 390.493 143.85C390.408 143.92 390.338 144.006 390.287 144.103C390.133 144.376 374.146 172.396 368.027 188.622C361.909 204.847 364.823 219.488 366.067 225.726V226.084C367.278 232.066 365.164 263.461 365.13 263.768L364.159 270.261C360.869 276.21 350.626 295.145 351.069 299.048C351.444 302.457 354.375 307.144 355.637 309.053L311.323 330.375C311.149 330.459 311.009 330.6 310.925 330.774C310.842 330.948 310.82 331.146 310.864 331.334C310.908 331.522 311.014 331.69 311.165 331.81C311.317 331.93 311.505 331.995 311.698 331.994H311.63ZM461.495 330.289H315.362L357.273 310.144C357.384 310.091 357.482 310.014 357.561 309.92C357.641 309.826 357.699 309.717 357.733 309.598C357.782 309.351 357.733 309.094 357.597 308.883C357.597 308.883 353.182 302.679 352.756 298.861C352.484 296.321 359.284 282.618 365.727 270.96C365.736 270.864 365.736 270.767 365.727 270.67L366.749 263.955C366.834 262.592 368.897 231.947 367.652 225.743V225.402C366.442 219.3 363.579 204.95 369.544 189.218C375.271 174.032 389.775 148.313 391.514 145.245L438.384 131.61C441.128 135.616 459.416 163.619 455.769 192.78C453.318 214.21 452.282 235.777 452.667 257.342L461.495 330.289Z" fill="#072B2C"/>
<path d="M311.629 331.16L356.898 309.395L394.462 331.16H311.629Z" fill="#072B2C"/>
<path d="M311.629 331.995H394.462C394.648 331.993 394.828 331.93 394.975 331.816C395.122 331.703 395.228 331.544 395.276 331.364C395.325 331.184 395.313 330.994 395.243 330.822C395.173 330.649 395.048 330.505 394.888 330.41L357.392 308.645C357.268 308.582 357.131 308.549 356.991 308.549C356.852 308.549 356.715 308.582 356.591 308.645L311.323 330.41C311.149 330.494 311.009 330.635 310.925 330.809C310.842 330.983 310.82 331.181 310.864 331.369C310.907 331.557 311.014 331.725 311.165 331.845C311.317 331.965 311.504 332.03 311.698 332.029L311.629 331.995ZM391.292 330.291H315.362L356.864 310.349L391.292 330.291Z" fill="#072B2C"/>
<path d="M417.657 327.939C417.883 327.97 418.112 327.911 418.295 327.774C418.477 327.636 418.597 327.432 418.629 327.206C418.66 326.98 418.601 326.751 418.463 326.568C418.326 326.386 418.122 326.266 417.896 326.234L357.066 308.577C356.85 308.518 356.618 308.546 356.421 308.654C356.224 308.762 356.077 308.942 356.01 309.157C355.946 309.374 355.972 309.607 356.081 309.805C356.189 310.003 356.372 310.15 356.589 310.213L417.418 327.905L417.657 327.939Z" fill="#072B2C"/>
<path d="M420.827 330.666C420.955 330.664 421.081 330.634 421.196 330.578C421.31 330.522 421.412 330.441 421.492 330.342C421.564 330.256 421.618 330.157 421.651 330.05C421.684 329.944 421.696 329.831 421.685 329.72C421.673 329.609 421.64 329.501 421.586 329.403C421.533 329.305 421.46 329.218 421.372 329.149L408.675 318.718C408.5 318.577 408.277 318.51 408.054 318.532C407.83 318.555 407.625 318.664 407.482 318.837C407.41 318.923 407.355 319.022 407.322 319.129C407.289 319.235 407.278 319.348 407.289 319.459C407.3 319.57 407.333 319.678 407.387 319.776C407.441 319.875 407.513 319.961 407.601 320.03L420.299 330.461C420.444 330.591 420.632 330.664 420.827 330.666Z" fill="#072B2C"/>
<path d="M356.658 35.0922C354.649 40.82 353.389 46.7837 352.909 52.8347C351.886 63.7939 354.051 69.7763 351.307 73.1509C348.562 76.5256 345.853 77.4289 347.455 80.9911C349.057 84.5532 355.823 86.9393 355.823 86.9393C355.823 86.9393 362.283 101.461 366.169 106.028C370.055 110.596 384.763 106.028 384.763 106.028L389.774 121.623L424.015 105.057L419.584 89.1039L426.401 68.2423C426.401 68.2423 410.755 21.798 356.658 35.0922Z" fill="white"/>
<path d="M389.774 122.357C389.897 122.382 390.025 122.382 390.149 122.357L424.39 105.79C424.57 105.705 424.714 105.56 424.798 105.379C424.882 105.198 424.901 104.994 424.85 104.801L420.469 89.0871L427.287 68.4812C427.338 68.303 427.338 68.114 427.287 67.9358C427.134 67.4586 410.754 20.912 356.521 34.3084C356.392 34.3432 356.272 34.4074 356.172 34.4961C356.071 34.5848 355.992 34.6956 355.942 34.8197C353.891 40.6207 352.613 46.6664 352.141 52.8009C351.807 56.5352 351.733 60.2882 351.919 64.0327C352.039 68.1573 352.124 70.8502 350.709 72.6569C350.082 73.4066 349.416 74.1234 348.715 74.8044C346.892 76.6281 345.306 78.2131 346.755 81.3833C348.204 84.5534 353.794 87.093 355.277 87.6554C356.283 89.8882 361.975 102.33 365.606 106.608C369.236 110.886 380.945 108.04 384.354 107.051L389.126 121.845C389.161 121.964 389.221 122.073 389.304 122.164C389.387 122.256 389.489 122.327 389.603 122.374C389.66 122.375 389.718 122.369 389.774 122.357ZM423.009 104.495L390.285 120.311L385.564 105.637C385.531 105.531 385.477 105.433 385.406 105.348C385.335 105.263 385.248 105.194 385.15 105.143C385.051 105.092 384.944 105.061 384.833 105.053C384.723 105.044 384.612 105.057 384.507 105.091C380.553 106.335 369.696 108.807 366.816 105.415C363.066 101.001 356.675 86.6669 356.589 86.5475C356.542 86.4417 356.474 86.3465 356.389 86.2675C356.304 86.1885 356.204 86.1272 356.095 86.0874C354.306 85.4568 349.414 83.224 348.221 80.5822C347.266 78.4858 348.068 77.6848 349.925 75.9293C350.556 75.2816 351.289 74.5488 352.022 73.6455C353.845 71.3957 353.726 68.2426 353.624 63.8794C353.448 60.2088 353.516 56.5306 353.828 52.8691C354.322 47.0661 355.512 41.3437 357.373 35.8253C408.198 23.5368 424.117 64.118 425.548 68.2085L418.731 88.7973C418.68 88.9581 418.68 89.1308 418.731 89.2916L423.009 104.495Z" fill="#072B2C"/>
<path d="M384.762 105.961L392.159 101.99L388.291 114.551L384.762 105.961Z" fill="#072B2C"/>
<path d="M388.29 115.402C388.469 115.395 388.64 115.332 388.781 115.222C388.922 115.112 389.024 114.96 389.074 114.789L392.943 102.244C392.991 102.081 392.99 101.907 392.942 101.744C392.894 101.581 392.799 101.435 392.67 101.324C392.538 101.216 392.376 101.15 392.206 101.134C392.036 101.119 391.865 101.156 391.716 101.239L384.319 105.21C384.132 105.309 383.989 105.473 383.916 105.671C383.844 105.87 383.848 106.088 383.927 106.284L387.472 114.806C387.529 114.978 387.639 115.128 387.785 115.235C387.932 115.342 388.109 115.401 388.29 115.402ZM390.727 103.71L388.171 112.027L385.836 106.352L390.727 103.71Z" fill="#072B2C"/>
<path d="M363.509 91.6784C368.758 91.6784 372.661 86.5653 372.815 86.4119C372.891 86.3244 372.949 86.2221 372.985 86.1113C373.02 86.0006 373.033 85.8837 373.022 85.7679C373.01 85.6521 372.976 85.5399 372.919 85.4381C372.863 85.3363 372.786 85.2471 372.694 85.176C372.602 85.1049 372.497 85.0534 372.384 85.0247C372.271 84.9959 372.154 84.9906 372.039 85.009C371.924 85.0274 371.814 85.0691 371.716 85.1316C371.618 85.1941 371.533 85.2759 371.468 85.3722C371.468 85.3722 367.838 90.1274 363.372 89.9741C363.149 89.974 362.935 90.0614 362.776 90.2176C362.616 90.3737 362.525 90.5861 362.52 90.8092C362.516 90.9217 362.534 91.034 362.574 91.1393C362.614 91.2445 362.674 91.3407 362.752 91.4219C362.83 91.5031 362.924 91.5677 363.028 91.6117C363.131 91.6558 363.243 91.6785 363.355 91.6784H363.509Z" fill="#072B2C"/>
<path d="M357.067 65.7365C357.322 68.1056 358.413 69.9463 359.504 69.827C360.595 69.7077 361.31 67.6966 361.055 65.3275C360.799 62.9584 359.725 61.1347 358.618 61.237C357.51 61.3393 356.794 63.3675 357.067 65.7365Z" fill="#072B2C"/>
<path d="M362.69 58.2548C362.866 58.254 363.038 58.2006 363.184 58.1014C363.364 57.9656 363.484 57.7653 363.519 57.5428C363.554 57.3202 363.501 57.0928 363.372 56.9084C362.8 56.1089 362.069 55.437 361.224 54.9353C360.379 54.4336 359.439 54.113 358.463 53.9939C357.618 54.0437 356.798 54.2938 356.068 54.7235C355.339 55.1533 354.723 55.7503 354.27 56.4652C354.186 56.5516 354.12 56.655 354.079 56.7686C354.037 56.8821 354.02 57.0033 354.029 57.124C354.037 57.2446 354.072 57.362 354.129 57.4684C354.187 57.5747 354.267 57.6676 354.363 57.7407C354.459 57.8139 354.57 57.8658 354.688 57.8928C354.806 57.9198 354.929 57.9214 355.047 57.8975C355.166 57.8735 355.278 57.8246 355.376 57.754C355.474 57.6834 355.556 57.5927 355.617 57.4878C355.921 56.9864 356.338 56.5633 356.836 56.2525C357.333 55.9417 357.896 55.7519 358.48 55.6983C359.908 55.9402 361.182 56.7366 362.025 57.9139C362.104 58.0166 362.204 58.1005 362.319 58.1594C362.434 58.2184 362.561 58.251 362.69 58.2548Z" fill="#072B2C"/>
<path d="M404.621 4.41292C404.621 4.41292 431.687 2.23136 438.981 18.832C446.276 35.4326 446.48 58.3565 443.583 66.4011C440.686 74.4458 431.652 86.5298 428.056 90.0067C424.46 93.4837 418.444 95.9721 413.245 93.7052C408.047 91.4384 401.758 81.5701 400.173 75.2298C398.588 68.8895 399.525 62.8901 397.957 62.7538C394.199 63.0297 390.42 62.7947 386.725 62.055C379.141 60.6574 363.869 53.8739 355.552 42.3353C347.235 30.7967 348.735 17.9457 351.888 12.9689C355.041 7.99215 388.804 -4.80776 404.621 4.41292Z" fill="#072B2C"/>
<path d="M417.454 95.4272C421.643 95.2602 425.624 93.5551 428.635 90.6379C432.452 87.0246 441.503 74.702 444.383 66.6914C447.417 58.1695 447.127 35.2627 439.747 18.4916C432.606 2.23184 407.858 3.3397 404.824 3.54423C388.82 -5.45488 354.835 6.8166 351.171 12.5092C347.762 17.878 346.501 31.2574 354.852 42.8472C363.033 54.1642 378.321 61.3737 386.571 62.8906C389.842 63.6072 393.2 63.854 396.541 63.6235C397.052 63.6235 397.427 63.6235 397.751 63.6235C398.069 64.8194 398.235 66.0506 398.246 67.2879C398.368 70.0427 398.738 72.7809 399.353 75.4689C401.058 82.1671 407.449 92.1548 412.903 94.5239C414.344 95.1291 415.892 95.4364 417.454 95.4272ZM407.551 5.18042C414.608 5.18042 432.606 6.45869 438.23 19.1733C445.32 35.3138 445.678 58.1184 442.815 66.1119C439.952 74.1054 431.208 85.8827 427.476 89.3937C424.067 92.6661 418.408 95.0181 413.602 92.9388C408.796 90.8594 402.558 81.1786 401.024 75.0258C400.436 72.4322 400.083 69.7912 399.967 67.1345C399.745 63.9644 399.609 62.0214 398.058 61.9021C397.525 61.8518 396.989 61.8518 396.456 61.9021C393.251 62.1036 390.034 61.8627 386.894 61.1862C378.918 59.7205 364.158 52.7496 356.216 41.8075C348.273 30.8654 349.398 18.3723 352.568 13.3955C355.738 8.41875 389.008 -3.64827 404.16 5.11223C404.317 5.19582 404.493 5.23696 404.671 5.23155C404.671 5.23155 405.813 5.18042 407.551 5.18042Z" fill="#072B2C"/>
<path d="M388.802 70.2026C388.802 70.2026 394.767 55.9541 401.04 59.6355C407.312 63.317 405.522 79.0142 402.556 83.3434C399.591 87.6725 393.949 83.9229 393.949 83.9229" fill="white"/>
<path d="M398.621 86.292C399.541 86.3133 400.452 86.099 401.266 85.6694C402.08 85.2399 402.771 84.6094 403.274 83.8377C405.489 80.5653 406.989 71.9071 405.574 65.5498C405.385 64.2185 404.923 62.9406 404.216 61.7967C403.509 60.6528 402.573 59.6675 401.467 58.9027C400.843 58.5183 400.141 58.2789 399.412 58.2022C398.684 58.1255 397.947 58.2135 397.257 58.4596C392.144 60.164 388.19 69.4869 388.019 69.8789C387.964 69.9838 387.931 70.0993 387.922 70.2178C387.914 70.3363 387.93 70.4552 387.97 70.567C388.011 70.6788 388.074 70.7809 388.156 70.8668C388.238 70.9527 388.337 71.0206 388.447 71.0659C388.557 71.1113 388.675 71.1332 388.794 71.1302C388.912 71.1272 389.029 71.0994 389.137 71.0487C389.244 70.9979 389.34 70.9252 389.417 70.8352C389.495 70.7453 389.553 70.6402 389.587 70.5265C389.587 70.5265 393.405 61.5274 397.803 60.0787C398.262 59.91 398.755 59.8484 399.242 59.8986C399.729 59.9488 400.199 60.1095 400.615 60.3685C401.506 61.0286 402.256 61.8602 402.821 62.8144C403.386 63.7686 403.754 64.8261 403.904 65.9248C405.2 71.7537 403.904 79.9517 401.859 82.8662C399.422 86.4454 394.615 83.3605 394.411 83.2242C394.224 83.1238 394.006 83.0969 393.8 83.1487C393.594 83.2005 393.415 83.3274 393.298 83.5044C393.18 83.6814 393.133 83.8958 393.166 84.1056C393.198 84.3155 393.308 84.5056 393.473 84.6388C395.004 85.6534 396.785 86.2255 398.621 86.292Z" fill="#072B2C"/>
<path d="M429.623 101.58C429.623 101.58 384.338 113.596 381.526 117.243C378.714 120.891 379.361 124.061 380.912 126.191C382.524 129.25 383.864 132.443 384.918 135.736C384.918 135.736 382.753 142.553 383.98 145.297C384.96 146.891 386.394 148.154 388.098 148.926C389.802 149.697 391.698 149.941 393.542 149.626C396.951 148.706 437.327 134.832 438.861 133.912C440.395 132.992 441.026 125.902 437.941 123.686C434.856 121.47 436.407 123.993 434.856 121.521C433.305 119.05 438.248 102.5 429.623 101.58Z" fill="#43916F"/>
<path d="M391.99 150.717C392.565 150.717 393.138 150.643 393.694 150.496C397.239 149.524 437.599 135.65 439.235 134.679C440.377 133.997 440.854 131.799 440.94 129.992C440.94 128.816 440.94 124.879 438.383 123.072C437.712 122.486 436.892 122.097 436.014 121.947C435.912 121.777 435.758 121.521 435.52 121.163C435.283 119.536 435.283 117.882 435.52 116.255C435.912 110.357 436.491 101.461 429.691 100.728C429.589 100.711 429.486 100.711 429.384 100.728C424.714 101.972 383.69 112.948 380.826 116.766C377.418 121.368 378.952 124.964 380.196 126.719C381.737 129.619 383.01 132.654 383.996 135.787C383.57 137.235 381.968 142.928 383.195 145.689C384.423 148.45 388.547 150.717 391.99 150.717ZM435.98 123.635C436.518 123.816 437.016 124.099 437.446 124.47C438.894 125.475 439.338 127.878 439.286 129.89C439.37 131.061 439.071 132.227 438.434 133.213C437.02 133.997 397.393 147.734 393.319 148.842C391.681 149.089 390.005 148.859 388.494 148.179C386.983 147.499 385.699 146.398 384.798 145.007C383.894 142.979 385.19 137.849 385.752 136.059C385.819 135.89 385.819 135.701 385.752 135.531C384.68 132.15 383.3 128.875 381.627 125.748C380.434 124.044 379.582 121.351 382.241 117.806C384.116 115.3 412.289 107.068 429.708 102.466C434.327 103.097 434.327 109.284 433.867 116.186C433.662 119.425 433.577 121.146 434.173 122.101C435.043 123.498 435.247 123.805 436.014 123.669L435.98 123.635Z" fill="#072B2C"/>
<path d="M290.597 234.726C290.597 234.726 268.167 237.623 266.736 237.384C265.304 237.146 257.566 242.924 251.294 246.793C245.022 250.662 242.619 253.781 239.227 257.172C235.835 260.564 231.268 262.285 233.211 263.683C235.154 265.081 236.091 265.132 238.989 264.16C241.886 263.189 245.261 261.996 245.261 261.996C247.361 263.265 249.834 263.776 252.266 263.444C256.284 262.322 260.229 260.95 264.077 259.337C267.79 259.727 271.543 259.479 275.172 258.604C279.757 257.172 289.165 248.48 289.165 248.48L294.722 248.957L296.426 236.174L290.597 234.726Z" fill="white"/>
<path d="M236.058 265.678C237.18 265.615 238.285 265.373 239.331 264.962C241.649 264.195 244.29 263.257 245.245 262.934C247.448 264.177 250.003 264.65 252.505 264.28C256.515 263.177 260.449 261.817 264.283 260.207C268.044 260.599 271.844 260.333 275.515 259.423C279.827 258.059 287.905 250.901 289.542 249.367L294.655 249.81C294.871 249.821 295.084 249.753 295.254 249.618C295.424 249.483 295.538 249.291 295.575 249.077L297.279 236.294C297.306 236.086 297.255 235.874 297.135 235.701C297.016 235.528 296.836 235.406 296.632 235.357L290.837 233.908C290.736 233.883 290.631 233.883 290.53 233.908C282.008 234.999 268.066 236.703 266.89 236.567C265.714 236.431 263.482 237.828 257.499 241.765C255.301 243.231 253.017 244.765 250.869 246.077C247.013 248.446 243.513 251.349 240.473 254.701C239.876 255.332 239.279 255.946 238.649 256.576C237.502 257.677 236.265 258.681 234.95 259.576C233.127 260.905 231.917 261.775 231.917 262.985C231.919 263.272 231.994 263.553 232.134 263.803C232.274 264.054 232.474 264.264 232.718 264.416C233.65 265.213 234.832 265.659 236.058 265.678ZM245.33 261.144H245.04C245.04 261.144 241.632 262.337 238.802 263.309C235.973 264.28 235.394 264.161 233.791 262.951C233.672 262.951 233.655 262.814 233.655 262.814C234.362 262.083 235.151 261.437 236.007 260.888C237.394 259.942 238.7 258.882 239.91 257.718L241.751 255.809C244.682 252.559 248.069 249.752 251.807 247.475C253.988 246.128 256.289 244.595 258.505 243.112C261.777 240.93 265.834 238.22 266.72 238.186C268.152 238.425 286.525 236.073 290.581 235.544L295.49 236.771L294.007 247.986L289.269 247.577C289.027 247.564 288.79 247.643 288.604 247.799C288.519 247.884 279.298 256.321 274.969 257.752C271.456 258.595 267.823 258.826 264.232 258.434C264.093 258.393 263.945 258.393 263.805 258.434C260.009 260.031 256.115 261.386 252.148 262.49C249.934 262.771 247.69 262.303 245.773 261.161C245.615 261.098 245.441 261.092 245.279 261.144H245.33Z" fill="#072B2C"/>
<path d="M245.275 262.848C245.418 262.85 245.559 262.815 245.684 262.746C245.783 262.692 245.87 262.62 245.941 262.532C246.011 262.445 246.064 262.345 246.096 262.237C246.127 262.129 246.137 262.016 246.125 261.905C246.113 261.793 246.079 261.685 246.025 261.587C245.899 261.395 245.819 261.177 245.792 260.949C245.766 260.721 245.793 260.49 245.872 260.274C246.537 258.468 250.695 256.866 254.036 255.638C256.044 254.992 257.971 254.117 259.78 253.031C260.95 252.12 262.167 251.272 263.427 250.491C263.59 250.43 263.731 250.32 263.832 250.177C263.932 250.034 263.987 249.865 263.989 249.69C263.989 249.464 263.9 249.247 263.74 249.088C263.58 248.928 263.363 248.838 263.137 248.838C262.847 248.838 262.609 248.838 258.774 251.65C257.082 252.641 255.287 253.447 253.422 254.053C249.383 255.57 245.207 257.155 244.27 259.678C244.108 260.124 244.049 260.6 244.096 261.072C244.143 261.544 244.296 262 244.542 262.405C244.616 262.536 244.722 262.645 244.851 262.723C244.979 262.8 245.125 262.844 245.275 262.848Z" fill="#072B2C"/>
<path d="M224.978 251.752C224.978 251.752 224.569 255.638 225.182 256.661C225.796 257.684 228.029 257.684 229.256 255.229C230.09 253.141 230.573 250.93 230.688 248.685L224.978 251.752Z" fill="white"/>
<path d="M226.494 258.161H226.596C227.341 258.085 228.051 257.809 228.651 257.362C229.251 256.914 229.719 256.313 230.005 255.621C230.898 253.452 231.411 251.146 231.522 248.804V247.304L224.091 251.292V251.735C223.988 252.707 223.699 255.996 224.414 257.172C224.647 257.501 224.961 257.765 225.325 257.938C225.689 258.111 226.091 258.188 226.494 258.161ZM229.698 250.184C229.534 251.791 229.132 253.365 228.505 254.854C227.772 256.286 226.801 256.439 226.545 256.456C226.426 256.47 226.305 256.455 226.193 256.414C226.08 256.372 225.979 256.305 225.897 256.218C225.641 254.926 225.601 253.602 225.778 252.298L229.698 250.184Z" fill="#072B2C"/>
<path d="M229.001 251.275C229.521 252.839 230.311 254.298 231.336 255.587C232.342 256.235 234.353 255.247 234.387 252.502C234.215 250.264 233.674 248.07 232.785 246.009L229.001 251.275Z" fill="white"/>
<path d="M232.018 256.628C232.459 256.627 232.893 256.516 233.279 256.304C233.918 255.906 234.438 255.342 234.783 254.673C235.128 254.004 235.286 253.254 235.239 252.503C235.059 250.151 234.482 247.846 233.535 245.685L232.939 244.305L228.013 251.122L228.166 251.549C228.507 252.469 229.7 255.537 230.842 256.287C231.191 256.517 231.601 256.636 232.018 256.628ZM232.547 247.799C233.11 249.308 233.444 250.894 233.535 252.503C233.583 252.946 233.51 253.394 233.324 253.799C233.138 254.204 232.846 254.551 232.478 254.804C232.372 254.855 232.256 254.882 232.138 254.882C232.019 254.882 231.903 254.855 231.797 254.804C231.001 253.776 230.38 252.624 229.956 251.395L232.547 247.799Z" fill="#072B2C"/>
<path d="M225.181 247.867C225.181 247.867 221.091 251.548 221.5 255.23C221.909 258.911 224.772 258.093 225.573 255.639C226.374 253.184 227.278 250.321 227.278 250.321L225.181 247.867Z" fill="white"/>
<path d="M223.307 258.588C224.032 258.507 224.715 258.208 225.266 257.73C225.817 257.252 226.21 256.618 226.392 255.912C227.21 253.457 228.096 250.594 228.096 250.56L228.233 250.117L225.335 246.708L224.671 247.287C224.5 247.458 220.273 251.31 220.716 255.366C221.023 258.11 222.506 258.553 223.137 258.622L223.307 258.588ZM226.273 250.526C226.017 251.412 225.386 253.526 224.773 255.366C224.432 256.372 223.733 256.9 223.239 256.883C222.745 256.866 222.455 256.167 222.336 255.179C222.08 252.81 224.04 250.321 225.114 249.196L226.273 250.526Z" fill="#072B2C"/>
<path d="M295.813 220.272C295.813 220.272 272.378 215.96 265.901 216.574C259.424 217.188 241.239 224.891 239.091 226.118C236.944 227.346 224.28 236.345 223.973 238.765C223.915 241.348 224.126 243.93 224.604 246.469C224.604 246.469 218.434 247.713 220.582 250.474C222.729 253.235 227.399 252.639 230.143 251.718C232.887 250.798 241.869 244.901 244.017 244.014C246.164 243.128 253.885 244.935 259.748 243.077C265.611 241.219 274.849 232.595 274.849 232.595L294.006 238.151L295.813 220.272Z" fill="white"/>
<path d="M225.627 253.355C227.257 253.335 228.875 253.053 230.416 252.519C233.465 251.143 236.405 249.536 239.21 247.713C241.426 246.401 243.523 245.157 244.324 244.799C245.831 244.528 247.372 244.487 248.891 244.679C252.602 245.054 256.349 244.789 259.97 243.895C265.339 242.191 273.247 235.186 275.036 233.55L294.671 239.259L296.75 219.506L295.966 219.369C295.012 219.182 272.344 215.04 265.833 215.654C259.322 216.267 240.898 224.039 238.665 225.318C237.762 225.829 223.53 235.373 223.138 238.595C223.034 240.992 223.199 243.393 223.632 245.753C222.32 246.111 220.002 246.946 219.423 248.514C219.278 248.925 219.248 249.366 219.335 249.793C219.422 250.219 219.623 250.613 219.917 250.934C220.616 251.752 221.496 252.396 222.487 252.816C223.478 253.236 224.553 253.42 225.627 253.355ZM246.284 242.873C245.411 242.823 244.536 242.945 243.71 243.231C242.773 243.623 240.727 244.85 238.375 246.247C235.648 247.997 232.8 249.552 229.853 250.9C226.973 251.872 223.036 252.196 221.246 249.963C220.871 249.486 220.957 249.264 220.991 249.179C221.297 248.361 223.411 247.577 224.74 247.304L225.558 247.151L225.422 246.333C224.96 243.872 224.755 241.37 224.808 238.867C225.081 237.027 236.739 228.488 239.5 226.937C241.614 225.727 259.595 218.091 265.969 217.495C271.594 216.949 290.768 220.29 294.944 221.04L293.239 237.112L274.644 231.709L274.287 232.05C274.287 232.135 265.117 240.572 259.51 242.276C256.08 243.097 252.536 243.333 249.028 242.975C247.988 242.924 247.034 242.873 246.284 242.873Z" fill="#072B2C"/>
<path d="M242.532 227.858C239.976 228.492 237.69 229.925 236.004 231.948C232.596 235.613 224.602 246.469 224.602 246.469C233.414 245.072 241.305 236.635 241.305 236.635" fill="white"/>
<path d="M222.693 247.645L224.722 247.321C233.738 245.889 241.612 237.572 241.936 237.214L240.692 236.055C240.692 236.055 234.164 242.872 226.648 245.139C229.051 241.884 234.079 235.203 236.618 232.527C238.195 230.668 240.299 229.33 242.652 228.692L242.43 226.988C239.659 227.668 237.183 229.229 235.374 231.436C231.965 235.117 224.227 245.616 223.903 246.059L222.693 247.645Z" fill="#072B2C"/>
<path d="M430.235 160.142C430.235 160.142 439.166 177.408 434.241 220.58C429.315 263.752 412.084 289.027 402.181 289.334C392.279 289.641 318.326 268.37 310.912 264.041C303.498 259.712 288.755 255.417 287.801 255.11C286.846 254.804 284.392 245.856 286.556 233.84C287.388 228.534 288.526 223.282 289.965 218.108L318.94 223.358L363.015 230.755C362.866 229.899 362.997 229.018 363.386 228.242C363.776 227.466 364.404 226.835 365.179 226.443C368.058 225.134 371.054 224.101 374.127 223.358C374.127 223.358 382.138 168.818 398.79 154.603" fill="#43916F"/>
<path d="M401.96 290.186H402.199C412.425 289.863 430.031 264.928 435.093 220.682C439.985 177.749 431.361 160.466 430.986 159.768C430.941 159.659 430.874 159.562 430.789 159.48C430.705 159.399 430.604 159.336 430.495 159.296C430.385 159.255 430.268 159.238 430.151 159.244C430.034 159.251 429.919 159.282 429.815 159.335C429.71 159.388 429.617 159.461 429.543 159.552C429.468 159.642 429.413 159.747 429.38 159.859C429.348 159.972 429.339 160.09 429.354 160.206C429.369 160.322 429.408 160.434 429.469 160.535C429.571 160.705 438.229 178.158 433.389 220.477C428.276 265.269 410.601 288.209 402.148 288.482C392.552 288.721 318.633 267.586 311.356 263.308C308.271 261.519 301.845 258.536 288.721 254.497L288.21 254.343C287.409 253.15 285.449 244.867 287.409 233.976C289.011 224.977 290.119 220.648 290.562 219.08L318.787 224.193L362.879 231.59C363.018 231.614 363.161 231.604 363.295 231.559C363.429 231.514 363.549 231.437 363.646 231.334C363.741 231.234 363.809 231.111 363.845 230.977C363.881 230.843 363.883 230.702 363.85 230.567C363.735 229.892 363.838 229.197 364.144 228.584C364.451 227.971 364.945 227.472 365.555 227.159C368.371 225.893 371.298 224.889 374.298 224.159C374.46 224.117 374.607 224.029 374.719 223.904C374.831 223.78 374.904 223.626 374.929 223.46C375.014 222.915 383.093 169.039 399.301 155.285C399.387 155.212 399.456 155.123 399.507 155.024C399.558 154.924 399.588 154.815 399.597 154.704C399.606 154.592 399.593 154.48 399.558 154.373C399.523 154.267 399.468 154.168 399.395 154.083C399.322 153.998 399.234 153.929 399.134 153.878C399.034 153.827 398.925 153.796 398.814 153.788C398.702 153.779 398.59 153.792 398.484 153.827C398.377 153.862 398.279 153.917 398.194 153.99C382.224 167.625 374.332 216.557 373.327 222.71C370.392 223.426 367.536 224.436 364.805 225.727C364.068 226.122 363.442 226.696 362.983 227.396C362.525 228.095 362.249 228.899 362.18 229.732L319.145 222.506L290.17 217.273C289.971 217.241 289.766 217.28 289.592 217.383C289.418 217.485 289.285 217.646 289.216 217.836C287.769 223.048 286.631 228.34 285.807 233.686C283.728 245.276 285.807 255.315 287.614 255.843L288.312 256.065C301.283 260.053 307.572 262.968 310.572 264.723C318.173 269.274 390.95 290.186 401.96 290.186Z" fill="#072B2C"/>
<path d="M408.966 242.702C409.164 242.698 409.355 242.626 409.507 242.499C409.658 242.372 409.762 242.197 409.801 242.003C409.841 241.782 409.792 241.553 409.664 241.368C409.536 241.183 409.341 241.056 409.119 241.014C399.541 239.208 374.844 222.812 374.589 222.641C374.402 222.541 374.184 222.514 373.978 222.566C373.772 222.618 373.593 222.744 373.476 222.921C373.358 223.098 373.311 223.313 373.344 223.523C373.376 223.733 373.486 223.923 373.651 224.056C374.674 224.738 398.876 240.827 408.796 242.685L408.966 242.702Z" fill="#072B2C"/>
<path d="M412.357 261.502C412.513 261.505 412.667 261.463 412.799 261.382C412.932 261.3 413.039 261.182 413.107 261.042C413.21 260.843 413.229 260.612 413.162 260.398C413.095 260.184 412.947 260.005 412.749 259.9C410.382 258.669 408.104 257.274 405.932 255.725C405.84 255.66 405.736 255.613 405.627 255.589C405.517 255.564 405.404 255.561 405.293 255.58C405.182 255.599 405.076 255.639 404.981 255.699C404.886 255.759 404.804 255.837 404.739 255.929C404.674 256.021 404.628 256.124 404.603 256.234C404.578 256.344 404.575 256.457 404.594 256.568C404.613 256.679 404.653 256.785 404.713 256.88C404.773 256.975 404.851 257.057 404.943 257.122C407.162 258.708 409.485 260.143 411.897 261.417C412.038 261.492 412.199 261.521 412.357 261.502Z" fill="#072B2C"/>
<path d="M401.687 254.463C401.817 254.461 401.946 254.432 402.063 254.376C402.181 254.32 402.285 254.239 402.369 254.139C402.507 253.958 402.569 253.729 402.54 253.503C402.511 253.276 402.395 253.07 402.215 252.929C393.499 245.893 385.35 238.183 377.843 229.869C377.768 229.785 377.677 229.717 377.576 229.668C377.474 229.619 377.364 229.59 377.252 229.584C377.139 229.578 377.027 229.594 376.921 229.631C376.814 229.668 376.717 229.726 376.633 229.801C376.549 229.876 376.48 229.966 376.432 230.068C376.383 230.169 376.354 230.279 376.348 230.392C376.342 230.504 376.358 230.616 376.395 230.723C376.432 230.829 376.49 230.927 376.565 231.011C384.146 239.398 392.375 247.177 401.176 254.275C401.321 254.392 401.501 254.458 401.687 254.463Z" fill="#072B2C"/>
<path d="M377.826 258.417C377.957 258.419 378.086 258.391 378.204 258.335C378.323 258.279 378.426 258.196 378.507 258.093C378.639 257.911 378.694 257.685 378.663 257.462C378.631 257.24 378.514 257.038 378.337 256.9C377.121 255.956 376.017 254.875 375.048 253.679C374.976 253.592 374.888 253.519 374.788 253.466C374.689 253.413 374.58 253.38 374.467 253.369C374.355 253.358 374.241 253.369 374.133 253.402C374.025 253.434 373.925 253.488 373.837 253.56C373.75 253.631 373.678 253.719 373.625 253.819C373.571 253.919 373.538 254.028 373.527 254.14C373.516 254.252 373.527 254.366 373.56 254.474C373.593 254.582 373.647 254.682 373.718 254.77C374.779 256.037 375.98 257.18 377.297 258.178C377.44 258.317 377.627 258.402 377.826 258.417Z" fill="#072B2C"/>
<path d="M371.844 251.532C372.007 251.526 372.165 251.479 372.304 251.395C372.493 251.273 372.627 251.082 372.678 250.862C372.729 250.643 372.693 250.412 372.577 250.219C369.51 244.943 367.215 239.255 365.76 233.329C365.708 233.103 365.568 232.907 365.371 232.784C365.175 232.661 364.937 232.621 364.711 232.673C364.485 232.725 364.289 232.864 364.166 233.061C364.043 233.257 364.003 233.495 364.055 233.721C365.57 239.832 367.958 245.693 371.145 251.122C371.219 251.243 371.321 251.344 371.443 251.415C371.565 251.487 371.703 251.527 371.844 251.532Z" fill="#072B2C"/>
<path d="M308.765 253.798C308.878 253.794 308.989 253.767 309.092 253.719C309.195 253.671 309.287 253.603 309.364 253.519C309.44 253.435 309.499 253.336 309.536 253.229C309.574 253.122 309.59 253.008 309.583 252.895C309.48 251.191 309.446 249.384 309.446 247.782C309.449 247.671 309.429 247.56 309.388 247.457C309.347 247.354 309.286 247.26 309.208 247.18C309.13 247.101 309.037 247.038 308.935 246.995C308.832 246.952 308.722 246.93 308.611 246.93C308.497 246.92 308.383 246.934 308.275 246.972C308.168 247.011 308.069 247.071 307.987 247.15C307.905 247.229 307.84 247.325 307.798 247.431C307.756 247.537 307.737 247.651 307.742 247.765C307.742 249.469 307.742 251.174 307.878 253.066C307.904 253.278 308.01 253.472 308.175 253.609C308.34 253.745 308.551 253.813 308.765 253.798Z" fill="#072B2C"/>
<path d="M308.987 242.294C309.197 242.295 309.4 242.216 309.555 242.074C309.71 241.932 309.805 241.737 309.822 241.527C311.169 228.83 316.043 224.671 316.077 224.637C316.254 224.494 316.366 224.288 316.39 224.063C316.414 223.837 316.348 223.612 316.205 223.435C316.063 223.259 315.856 223.146 315.631 223.122C315.405 223.098 315.18 223.165 315.004 223.307C314.782 223.478 309.55 227.858 308.186 241.357C308.162 241.58 308.227 241.804 308.368 241.98C308.508 242.156 308.713 242.268 308.936 242.294H308.987Z" fill="#072B2C"/>
<path d="M458.836 331.365H486.6C486.6 331.365 504.599 259.61 497.355 204.269C497.012 201.698 495.745 199.34 493.791 197.634C491.838 195.928 489.33 194.991 486.737 194.997C485.329 194.995 483.935 195.272 482.635 195.811C481.335 196.351 480.155 197.143 479.163 198.141C478.171 199.14 477.387 200.325 476.855 201.628C476.324 202.932 476.056 204.327 476.067 205.735C476.204 225.455 474.397 271.013 458.836 331.365Z" fill="#072B2C"/>
<path d="M458.836 332.217H486.6C486.789 332.214 486.972 332.15 487.12 332.033C487.268 331.915 487.373 331.752 487.418 331.569C487.606 330.853 505.382 259.014 498.19 204.15C497.905 202.012 497.027 199.997 495.654 198.333C494.282 196.669 492.471 195.423 490.427 194.737C488.383 194.05 486.187 193.95 484.088 194.448C481.99 194.946 480.073 196.022 478.556 197.554C477.47 198.621 476.609 199.894 476.024 201.299C475.438 202.705 475.14 204.213 475.147 205.735C475.266 227.125 473.204 271.865 457.916 331.16C457.881 331.285 457.877 331.417 457.903 331.545C457.93 331.672 457.987 331.792 458.069 331.893C458.157 332.009 458.275 332.1 458.409 332.157C458.544 332.214 458.691 332.234 458.836 332.217ZM485.953 330.512H459.944C475.027 271.558 476.988 227.074 476.988 205.735C476.976 204.439 477.222 203.154 477.711 201.954C478.199 200.754 478.921 199.663 479.834 198.744C480.747 197.824 481.833 197.095 483.029 196.598C484.226 196.102 485.509 195.847 486.805 195.849C489.187 195.852 491.488 196.716 493.283 198.282C495.078 199.848 496.246 202.011 496.571 204.371C503.32 256.15 487.708 323.217 485.953 330.512Z" fill="#072B2C"/>
<path d="M4.85345 333H528.742C528.89 333 529.031 332.947 529.135 332.854C529.239 332.76 529.298 332.633 529.298 332.5C529.298 332.367 529.239 332.24 529.135 332.146C529.031 332.053 528.89 332 528.742 332H4.85345C4.70697 332.003 4.56732 332.056 4.46375 332.149C4.36017 332.242 4.30072 332.368 4.29785 332.5C4.29785 332.633 4.35638 332.76 4.46057 332.854C4.56476 332.947 4.70612 333 4.85345 333Z" fill="#072B2C"/>
</svg>
