<svg width="50" height="50" viewBox="0 0 50 50" fill="none" xmlns="http://www.w3.org/2000/svg">
<g clip-path="url(#clip0_7402_8831)">
<path opacity="0.2" d="M31.25 18.75C31.25 17.9212 31.5792 17.1263 32.1653 16.5403C32.7513 15.9542 33.5462 15.625 34.375 15.625H39.0625V12.5C39.0625 11.6712 38.7333 10.8763 38.1472 10.2903C37.5612 9.70424 36.7663 9.375 35.9375 9.375H7.8125C6.9837 9.375 6.18884 9.70424 5.60279 10.2903C5.01674 10.8763 4.6875 11.6712 4.6875 12.5V31.25C4.6875 32.0788 5.01674 32.8737 5.60279 33.4597C6.18884 34.0458 6.9837 34.375 7.8125 34.375H31.25V18.75Z" fill="#072B2C"/>
<path d="M46.875 37.5V18.75C46.875 17.0241 45.4759 15.625 43.75 15.625H34.375C32.6491 15.625 31.25 17.0241 31.25 18.75V37.5C31.25 39.2259 32.6491 40.625 34.375 40.625H43.75C45.4759 40.625 46.875 39.2259 46.875 37.5Z" stroke="#105F62" stroke-linecap="round" stroke-linejoin="round"/>
<path d="M25 40.625H17.1875" stroke="#105F62" stroke-linecap="round" stroke-linejoin="round"/>
<path d="M31.25 34.375H7.8125C6.9837 34.375 6.18884 34.0458 5.60279 33.4597C5.01674 32.8737 4.6875 32.0788 4.6875 31.25V12.5C4.6875 11.6712 5.01674 10.8763 5.60279 10.2903C6.18884 9.70424 6.9837 9.375 7.8125 9.375H35.9375C36.7663 9.375 37.5612 9.70424 38.1472 10.2903C38.7333 10.8763 39.0625 11.6712 39.0625 12.5V15.625" stroke="#105F62" stroke-linecap="round" stroke-linejoin="round"/>
<path d="M37.5 21.875H40.625" stroke="#105F62" stroke-linecap="round" stroke-linejoin="round"/>
</g>
<defs>
<clipPath id="clip0_7402_8831">
<rect width="50" height="50" fill="white"/>
</clipPath>
</defs>
</svg>
