<svg width="59" height="42" viewBox="0 0 59 42" fill="none" xmlns="http://www.w3.org/2000/svg">
<path d="M6.84821 38.2821C6.84821 36.3911 5.31518 34.858 3.4241 34.858C1.53302 34.858 -2.05824e-07 36.3911 -1.32595e-07 38.2821C-5.93651e-08 40.1732 1.53302 41.7062 3.4241 41.7062C5.31518 41.7062 6.84821 40.1732 6.84821 38.2821Z" fill="#43916F"/>
<path d="M24.2321 38.3047C24.2365 38.9839 24.0389 39.649 23.6644 40.2155C23.2899 40.782 22.7553 41.2244 22.1287 41.4863C21.5021 41.7483 20.8118 41.818 20.1455 41.6866C19.4792 41.5552 18.867 41.2286 18.3868 40.7484C17.9066 40.2682 17.58 39.656 17.4486 38.9897C17.3172 38.3234 17.3869 37.6331 17.6489 37.0065C17.9108 36.38 18.3532 35.8454 18.9197 35.4709C19.4862 35.0964 20.1514 34.8987 20.8305 34.9032C21.7308 34.9091 22.5926 35.2694 23.2292 35.906C23.8659 36.5427 24.2261 37.4044 24.2321 38.3047Z" fill="#43916F"/>
<path d="M41.6157 38.3047C41.6202 38.9839 41.4226 39.649 41.048 40.2155C40.6735 40.782 40.139 41.2244 39.5124 41.4863C38.8858 41.7483 38.1955 41.818 37.5292 41.6866C36.8629 41.5552 36.2507 41.2286 35.7705 40.7484C35.2902 40.2682 34.9637 39.656 34.8323 38.9897C34.7009 38.3234 34.7706 37.6331 35.0325 37.0065C35.2945 36.38 35.7369 35.8454 36.3034 35.4709C36.8699 35.0964 37.535 34.8987 38.2141 34.9032C39.1145 34.9091 39.9762 35.2694 40.6129 35.906C41.2495 36.5427 41.6098 37.4044 41.6157 38.3047Z" fill="#43916F"/>
<path d="M6.84821 3.42413C6.84821 1.53304 5.31518 -9.32217e-06 3.4241 -9.22886e-06C1.53302 -9.13555e-06 -2.05823e-07 1.53304 -1.32593e-07 3.42413C-5.93628e-08 5.31522 1.53302 6.84821 3.4241 6.84821C5.31518 6.84821 6.84821 5.31522 6.84821 3.42413Z" fill="#43916F"/>
<path d="M24.2321 3.44675C24.2365 4.12587 24.0389 4.79097 23.6644 5.3575C23.2899 5.92403 22.7553 6.3664 22.1287 6.62835C21.5021 6.8903 20.8118 6.96001 20.1455 6.82861C19.4792 6.69721 18.867 6.37064 18.3868 5.89042C17.9066 5.4102 17.58 4.79798 17.4486 4.13168C17.3172 3.46538 17.3869 2.77506 17.6489 2.14847C17.9108 1.52189 18.3532 0.987405 18.9197 0.61288C19.4862 0.238356 20.1514 0.040717 20.8305 0.0451706C21.7308 0.0510743 22.5926 0.411336 23.2292 1.04798C23.8659 1.68462 24.2261 2.54643 24.2321 3.44675Z" fill="#43916F"/>
<path d="M41.6157 3.44675C41.6202 4.12587 41.4226 4.79097 41.048 5.3575C40.6735 5.92403 40.139 6.3664 39.5124 6.62835C38.8858 6.8903 38.1955 6.96001 37.5292 6.82861C36.8629 6.69721 36.2507 6.37064 35.7705 5.89042C35.2902 5.4102 34.9637 4.79798 34.8323 4.13168C34.7009 3.46538 34.7706 2.77506 35.0325 2.14847C35.2945 1.52189 35.7369 0.987405 36.3034 0.61288C36.8699 0.238356 37.535 0.040717 38.2141 0.0451706C39.1145 0.0510743 39.9762 0.411336 40.6129 1.04798C41.2495 1.68462 41.6098 2.54643 41.6157 3.44675Z" fill="#43916F"/>
<path d="M6.84821 20.8531C6.84821 18.962 5.31518 17.429 3.4241 17.429C1.53302 17.429 -2.05824e-07 18.962 -1.32595e-07 20.8531C-5.93651e-08 22.7442 1.53302 24.2772 3.4241 24.2772C5.31518 24.2772 6.84821 22.7442 6.84821 20.8531Z" fill="#43916F"/>
<path d="M24.2321 20.8758C24.2365 21.5549 24.0389 22.22 23.6644 22.7865C23.2899 23.353 22.7553 23.7954 22.1287 24.0574C21.5021 24.3193 20.8118 24.389 20.1455 24.2576C19.4792 24.1262 18.867 23.7997 18.3868 23.3194C17.9066 22.8392 17.58 22.2271 17.4486 21.5607C17.3172 20.8944 17.3869 20.2041 17.6489 19.5775C17.9108 18.9509 18.3532 18.4164 18.9197 18.0419C19.4862 17.6673 20.1514 17.4698 20.8305 17.4742C21.7308 17.4801 22.5926 17.8404 23.2292 18.477C23.8659 19.1137 24.2261 19.9754 24.2321 20.8758Z" fill="#43916F"/>
<path d="M41.6157 20.8757C41.6202 21.5548 41.4226 22.2199 41.048 22.7864C40.6735 23.353 40.139 23.7954 39.5124 24.0573C38.8858 24.3193 38.1955 24.389 37.5292 24.2576C36.8629 24.1262 36.2507 23.7996 35.7705 23.3194C35.2902 22.8391 34.9637 22.227 34.8323 21.5607C34.7009 20.8944 34.7706 20.2041 35.0325 19.5775C35.2945 18.9509 35.7369 18.4163 36.3034 18.0418C36.8699 17.6673 37.535 17.4697 38.2141 17.4742C39.1145 17.4801 39.9762 17.8403 40.6129 18.477C41.2495 19.1136 41.6098 19.9754 41.6157 20.8757Z" fill="#43916F"/>
<path d="M58.9996 20.8531C58.9996 18.962 57.4666 17.429 55.5755 17.429C53.6844 17.429 52.1514 18.962 52.1514 20.8531C52.1514 22.7442 53.6844 24.2772 55.5755 24.2772C57.4666 24.2772 58.9996 22.7442 58.9996 20.8531Z" fill="#43916F"/>
</svg>
