<svg width="59" height="42" viewBox="0 0 59 42" fill="none" xmlns="http://www.w3.org/2000/svg">
<path d="M52.1518 38.2821C52.1518 36.3911 53.6848 34.858 55.5759 34.858C57.467 34.858 59 36.3911 59 38.2821C59 40.1732 57.467 41.7062 55.5759 41.7062C53.6848 41.7062 52.1518 40.1732 52.1518 38.2821Z" fill="#43916F"/>
<path d="M34.7679 38.3047C34.7635 38.9839 34.9611 39.649 35.3356 40.2155C35.7101 40.782 36.2447 41.2244 36.8713 41.4863C37.4979 41.7483 38.1882 41.818 38.8545 41.6866C39.5208 41.5552 40.133 41.2286 40.6132 40.7484C41.0934 40.2682 41.42 39.656 41.5514 38.9897C41.6828 38.3234 41.6131 37.6331 41.3511 37.0065C41.0892 36.38 40.6468 35.8454 40.0803 35.4709C39.5138 35.0964 38.8486 34.8987 38.1695 34.9032C37.2692 34.9091 36.4074 35.2694 35.7708 35.906C35.1341 36.5427 34.7739 37.4044 34.7679 38.3047Z" fill="#43916F"/>
<path d="M17.3843 38.3047C17.3798 38.9839 17.5774 39.649 17.952 40.2155C18.3265 40.782 18.861 41.2244 19.4876 41.4863C20.1142 41.7483 20.8045 41.818 21.4708 41.6866C22.1371 41.5552 22.7493 41.2286 23.2295 40.7484C23.7098 40.2682 24.0363 39.656 24.1677 38.9897C24.2991 38.3234 24.2294 37.6331 23.9675 37.0065C23.7055 36.38 23.2631 35.8454 22.6966 35.4709C22.1301 35.0964 21.465 34.8987 20.7859 34.9032C19.8855 34.9091 19.0238 35.2694 18.3871 35.906C17.7505 36.5427 17.3902 37.4044 17.3843 38.3047Z" fill="#43916F"/>
<path d="M52.1518 3.42413C52.1518 1.53304 53.6848 -9.32217e-06 55.5759 -9.22886e-06C57.467 -9.13555e-06 59 1.53304 59 3.42413C59 5.31522 57.467 6.84821 55.5759 6.84821C53.6848 6.84821 52.1518 5.31522 52.1518 3.42413Z" fill="#43916F"/>
<path d="M34.7679 3.44675C34.7635 4.12587 34.9611 4.79097 35.3356 5.3575C35.7101 5.92403 36.2447 6.3664 36.8713 6.62835C37.4979 6.8903 38.1882 6.96001 38.8545 6.82861C39.5208 6.69721 40.133 6.37064 40.6132 5.89042C41.0934 5.4102 41.42 4.79798 41.5514 4.13168C41.6828 3.46538 41.6131 2.77506 41.3511 2.14847C41.0892 1.52189 40.6468 0.987405 40.0803 0.61288C39.5138 0.238356 38.8486 0.040717 38.1695 0.0451706C37.2692 0.0510743 36.4074 0.411336 35.7708 1.04798C35.1341 1.68462 34.7739 2.54643 34.7679 3.44675Z" fill="#43916F"/>
<path d="M17.3843 3.44675C17.3798 4.12587 17.5774 4.79097 17.952 5.3575C18.3265 5.92403 18.861 6.3664 19.4876 6.62835C20.1142 6.8903 20.8045 6.96001 21.4708 6.82861C22.1371 6.69721 22.7493 6.37064 23.2295 5.89042C23.7098 5.4102 24.0363 4.79798 24.1677 4.13168C24.2991 3.46538 24.2294 2.77506 23.9675 2.14847C23.7055 1.52189 23.2631 0.987405 22.6966 0.61288C22.1301 0.238356 21.465 0.040717 20.7859 0.0451706C19.8855 0.0510743 19.0238 0.411336 18.3871 1.04798C17.7505 1.68462 17.3902 2.54643 17.3843 3.44675Z" fill="#43916F"/>
<path d="M52.1518 20.8531C52.1518 18.962 53.6848 17.429 55.5759 17.429C57.467 17.429 59 18.962 59 20.8531C59 22.7442 57.467 24.2772 55.5759 24.2772C53.6848 24.2772 52.1518 22.7442 52.1518 20.8531Z" fill="#43916F"/>
<path d="M34.7679 20.8758C34.7635 21.5549 34.9611 22.22 35.3356 22.7865C35.7101 23.353 36.2447 23.7954 36.8713 24.0574C37.4979 24.3193 38.1882 24.389 38.8545 24.2576C39.5208 24.1262 40.133 23.7997 40.6132 23.3194C41.0934 22.8392 41.42 22.2271 41.5514 21.5607C41.6828 20.8944 41.6131 20.2041 41.3511 19.5775C41.0892 18.9509 40.6468 18.4164 40.0803 18.0419C39.5138 17.6673 38.8486 17.4698 38.1695 17.4742C37.2692 17.4801 36.4074 17.8404 35.7708 18.477C35.1341 19.1137 34.7739 19.9754 34.7679 20.8758Z" fill="#43916F"/>
<path d="M17.3843 20.8757C17.3798 21.5548 17.5774 22.2199 17.952 22.7864C18.3265 23.353 18.861 23.7954 19.4876 24.0573C20.1142 24.3193 20.8045 24.389 21.4708 24.2576C22.1371 24.1262 22.7493 23.7996 23.2295 23.3194C23.7098 22.8391 24.0363 22.227 24.1677 21.5607C24.2991 20.8944 24.2294 20.2041 23.9675 19.5775C23.7055 18.9509 23.2631 18.4163 22.6966 18.0418C22.1301 17.6673 21.465 17.4697 20.7859 17.4742C19.8855 17.4801 19.0238 17.8403 18.3871 18.477C17.7505 19.1136 17.3902 19.9754 17.3843 20.8757Z" fill="#43916F"/>
<path d="M0.000418319 20.8531C0.000418392 18.962 1.53345 17.429 3.42453 17.429C5.31561 17.429 6.84863 18.962 6.84863 20.8531C6.84863 22.7442 5.31561 24.2772 3.42453 24.2772C1.53345 24.2772 0.000418246 22.7442 0.000418319 20.8531Z" fill="#43916F"/>
</svg>
