<svg width="351" height="92" viewBox="0 0 351 92" fill="none" xmlns="http://www.w3.org/2000/svg">
<path fill-rule="evenodd" clip-rule="evenodd" d="M274.528 0H350.716V76.1876H274.528V0ZM299.695 50.3859C298.856 51.0788 298.436 52.0636 298.436 53.3401C298.436 54.6167 298.856 55.6196 299.695 56.3491C300.534 57.0421 301.555 57.3886 302.758 57.3886C303.925 57.3886 304.928 57.0421 305.767 56.3491C306.606 55.6196 307.026 54.6167 307.026 53.3401C307.026 52.0636 306.606 51.0788 305.767 50.3859C304.928 49.6564 303.925 49.2917 302.758 49.2917C301.555 49.2917 300.534 49.6564 299.695 50.3859ZM318.142 57.115H325.637V18.819H318.142C317.412 20.2779 316.391 21.4815 315.078 22.4298C313.765 23.3416 312.288 23.7792 310.647 23.7428V30.3625C311.34 30.3625 312.051 30.2896 312.78 30.1437C313.51 29.9978 314.203 29.7972 314.859 29.5419C315.552 29.2866 316.172 28.9766 316.719 28.6118C317.303 28.2106 317.777 27.7912 318.142 27.3535V57.115Z" fill="#105F62"/>
<path fill-rule="evenodd" clip-rule="evenodd" d="M0 0H274.336V76.1876H0V0ZM44.6095 49.4558C43.0776 50.3676 41.3817 50.8235 39.5216 50.8235C38.0627 50.8235 36.695 50.55 35.4184 50.0029C34.1419 49.4193 33.0295 48.5805 32.0812 47.4863C31.1329 46.3921 30.3852 45.0427 29.8382 43.4379C29.2911 41.8331 29.0175 39.9912 29.0175 37.9123C29.0175 35.8698 29.2911 34.0645 29.8382 32.4961C30.3852 30.8914 31.1329 29.5419 32.0812 28.4477C33.0295 27.3535 34.1419 26.5329 35.4184 25.9858C36.695 25.4023 38.0627 25.1105 39.5216 25.1105C41.3817 25.1105 43.0776 25.5846 44.6095 26.5329C46.1413 27.4447 47.3631 28.8307 48.275 30.6908L54.457 26.6423C52.8522 24.0163 50.7368 22.0103 48.1108 20.6244C45.5213 19.2384 42.64 18.5454 39.4669 18.5454C36.9867 18.5454 34.6525 18.9831 32.4642 19.8585C30.3123 20.6973 28.4157 21.9556 26.7745 23.6333C25.1697 25.2746 23.8932 27.2988 22.9449 29.706C21.9966 32.1132 21.5224 34.8668 21.5224 37.967C21.5224 41.0672 21.9966 43.8208 22.9449 46.228C23.8932 48.6352 25.1697 50.6776 26.7745 52.3554C28.4157 53.9966 30.3123 55.2549 32.4642 56.1303C34.6525 56.9691 36.9867 57.3886 39.4669 57.3886C42.64 57.3886 45.5213 56.6956 48.1108 55.3096C50.7368 53.9237 52.8522 51.9177 54.457 49.2917L48.275 45.2432C47.3631 47.1033 46.1413 48.5075 44.6095 49.4558ZM66.7558 18.819H59.3154V57.115H66.7558V40.0459H81.8554V57.115H89.2957V18.819H81.8554V33.4262H66.7558V18.819ZM111.233 26.1499L115.884 41.7419H106.583L111.233 26.1499ZM101.933 57.115L104.559 48.3069H117.853L120.479 57.115H128.521L116.376 18.819H106.146L94.0002 57.115H101.933ZM140.698 38.0764V25.4387H144.637C147.263 25.4387 149.269 25.9676 150.655 27.0253C152.077 28.0465 152.788 29.6148 152.788 31.7302C152.788 33.8821 152.077 35.4869 150.655 36.5446C149.269 37.5658 147.263 38.0764 144.637 38.0764H140.698ZM140.698 57.115V44.6962H145.786C147.974 44.6962 149.962 44.4409 151.749 43.9302C153.573 43.3832 155.104 42.5808 156.345 41.5231C157.621 40.4289 158.606 39.0794 159.299 37.4746C159.992 35.8334 160.338 33.9186 160.338 31.7302C160.338 29.5419 159.937 27.6453 159.135 26.0405C158.369 24.4357 157.275 23.1045 155.852 22.0468C154.43 20.9526 152.716 20.1502 150.71 19.6396C148.704 19.0925 146.461 18.819 143.98 18.819H133.203V57.115H140.698ZM162.639 25.4387H173.307V57.115H180.802V25.4387H191.47V18.819H162.639V25.4387ZM220.389 18.819H195.606V57.115H220.389V50.4953H203.046V40.0459H216.45V33.4262H203.046V25.4387H220.389V18.819ZM233.393 37.037V25.4387H237.933C240.414 25.4387 242.328 25.9129 243.678 26.8612C245.027 27.8094 245.702 29.2501 245.702 31.1831C245.702 33.1526 245.027 34.6298 243.678 35.6145C242.328 36.5628 240.414 37.037 237.933 37.037H233.393ZM239.028 43.6567L245.593 57.115H253.307L246.14 42.4531C248.365 41.5778 250.097 40.2101 251.337 38.35C252.577 36.4899 253.197 34.1009 253.197 31.1831C253.197 29.1042 252.832 27.2988 252.103 25.767C251.374 24.1987 250.316 22.9039 248.93 21.8827C247.58 20.8614 245.939 20.0955 244.006 19.5849C242.073 19.0743 239.921 18.819 237.55 18.819H225.952V57.115H233.393V43.6567H239.028Z" fill="#43916F"/>
<path d="M58.2096 91.6576C57.6469 91.6576 57.1631 91.5547 56.7582 91.3488C56.3602 91.1429 56.0102 90.8444 55.7083 90.4533L56.3671 89.7945C56.5935 90.1102 56.8543 90.3503 57.1494 90.515C57.4445 90.6729 57.8082 90.7518 58.2405 90.7518C58.666 90.7518 59.0057 90.6591 59.2596 90.4739C59.5203 90.2886 59.6507 90.0347 59.6507 89.7121C59.6507 89.4445 59.589 89.2283 59.4654 89.0637C59.3419 88.899 59.1738 88.7651 58.9611 88.6622C58.7552 88.5524 58.5287 88.4563 58.2817 88.374C58.0346 88.2848 57.7876 88.1921 57.5405 88.0961C57.2935 87.9931 57.0636 87.8696 56.8509 87.7255C56.645 87.5745 56.4803 87.3789 56.3568 87.1388C56.2333 86.8986 56.1715 86.5966 56.1715 86.2329C56.1715 85.8349 56.2676 85.4918 56.4597 85.2036C56.6587 84.9154 56.9264 84.6958 57.2626 84.5448C57.6057 84.387 57.99 84.308 58.4155 84.308C58.8821 84.308 59.2973 84.4007 59.661 84.586C60.0316 84.7644 60.337 85.0011 60.5771 85.2962L59.9183 85.955C59.7056 85.708 59.4757 85.5227 59.2287 85.3992C58.9885 85.2756 58.7106 85.2139 58.3949 85.2139C58.0106 85.2139 57.7052 85.2996 57.4788 85.4712C57.2523 85.6359 57.1391 85.8692 57.1391 86.1712C57.1391 86.4113 57.2009 86.6069 57.3244 86.7579C57.4548 86.9089 57.6229 87.0358 57.8288 87.1388C58.0346 87.2348 58.2611 87.3275 58.5081 87.4167C58.762 87.499 59.0125 87.5917 59.2596 87.6946C59.5066 87.7975 59.7331 87.9279 59.9389 88.0858C60.1448 88.2436 60.3095 88.4495 60.433 88.7034C60.5634 88.9504 60.6286 89.2627 60.6286 89.6401C60.6286 90.2714 60.409 90.7655 59.9698 91.1224C59.5375 91.4792 58.9508 91.6576 58.2096 91.6576ZM69.7965 91.5547V88.4152L67.1511 84.411H68.2731L70.2906 87.499L72.3081 84.411H73.4096L70.7641 88.374V91.5547H69.7965ZM80.4671 91.5547V84.411H81.1464L85.1197 89.7121V84.411H86.0873V91.5547H85.408L81.4347 86.2535V91.5547H80.4671ZM97.1937 91.6576C96.6721 91.6576 96.1918 91.565 95.7526 91.3797C95.3202 91.1876 94.9394 90.9234 94.61 90.5871C94.2875 90.2508 94.037 89.8631 93.8586 89.4239C93.6801 88.9779 93.5909 88.4975 93.5909 87.9828C93.5909 87.4682 93.6801 86.9912 93.8586 86.552C94.037 86.106 94.2875 85.7148 94.61 85.3786C94.9325 85.0423 95.3099 84.7815 95.7423 84.5963C96.1815 84.4041 96.6618 84.308 97.1834 84.308C97.7392 84.308 98.2299 84.4041 98.6553 84.5963C99.0877 84.7884 99.4685 85.0492 99.7979 85.3786L99.1288 86.0476C98.9024 85.7937 98.6245 85.5947 98.2951 85.4506C97.9657 85.3065 97.5951 85.2345 97.1834 85.2345C96.6756 85.2345 96.2261 85.3545 95.8349 85.5947C95.4506 85.828 95.1452 86.1506 94.9188 86.5623C94.6992 86.9741 94.5894 87.4476 94.5894 87.9828C94.5894 88.5181 94.6992 88.9916 94.9188 89.4033C95.1452 89.8151 95.4541 90.141 95.8452 90.3812C96.2364 90.6145 96.6824 90.7312 97.1834 90.7312C97.6294 90.7312 98.0171 90.6591 98.3465 90.515C98.6759 90.3641 98.9539 90.1616 99.1803 89.9077L99.8494 90.5665C99.52 90.9096 99.1323 91.1773 98.6862 91.3694C98.247 91.5615 97.7495 91.6576 97.1937 91.6576ZM107.214 91.5547V84.411H108.182V91.5547H107.214ZM116.044 91.5547V84.411H116.723L120.697 89.7121V84.411H121.664V91.5547H120.985L117.012 86.2535V91.5547H116.044ZM132.76 91.6576C132.259 91.6576 131.789 91.565 131.35 91.3797C130.918 91.1876 130.537 90.9234 130.208 90.5871C129.885 90.2508 129.631 89.8597 129.446 89.4136C129.261 88.9676 129.168 88.4872 129.168 87.9725C129.168 87.4579 129.261 86.9809 129.446 86.5417C129.631 86.0957 129.889 85.7045 130.218 85.3683C130.547 85.032 130.932 84.7712 131.371 84.586C131.817 84.4007 132.301 84.308 132.822 84.308C133.392 84.308 133.917 84.4213 134.397 84.6477C134.877 84.8673 135.279 85.1796 135.601 85.5844L134.932 86.2535C134.706 85.9241 134.407 85.6736 134.037 85.5021C133.666 85.3237 133.261 85.2345 132.822 85.2345C132.294 85.2345 131.831 85.3511 131.433 85.5844C131.035 85.8178 130.722 86.1403 130.496 86.552C130.276 86.9638 130.166 87.4373 130.166 87.9725C130.166 88.5147 130.276 88.9916 130.496 89.4033C130.722 89.8151 131.028 90.1376 131.412 90.3709C131.803 90.6043 132.242 90.7209 132.73 90.7209C133.416 90.7209 133.972 90.5425 134.397 90.1856C134.829 89.8288 135.083 89.3107 135.159 88.6313H132.688V87.7461H136.188V87.8902C136.188 88.7205 136.041 89.4136 135.746 89.9695C135.457 90.5253 135.052 90.9474 134.531 91.2356C134.016 91.5169 133.426 91.6576 132.76 91.6576ZM153.791 91.5547V88.4152L151.146 84.411H152.268L154.285 87.499L156.303 84.411H157.404L154.759 88.374V91.5547H153.791ZM167.343 91.6576C166.835 91.6576 166.361 91.565 165.922 91.3797C165.49 91.1876 165.106 90.9234 164.769 90.5871C164.44 90.2508 164.183 89.8597 163.997 89.4136C163.819 88.9676 163.73 88.4872 163.73 87.9725C163.73 87.4579 163.819 86.9809 163.997 86.5417C164.183 86.0957 164.437 85.708 164.759 85.3786C165.088 85.0423 165.469 84.7815 165.902 84.5963C166.341 84.4041 166.814 84.308 167.322 84.308C167.83 84.308 168.3 84.4041 168.732 84.5963C169.172 84.7815 169.556 85.0423 169.885 85.3786C170.215 85.708 170.472 86.0957 170.657 86.5417C170.843 86.9878 170.935 87.4682 170.935 87.9828C170.935 88.4975 170.843 88.9779 170.657 89.4239C170.472 89.8631 170.215 90.2508 169.885 90.5871C169.563 90.9234 169.182 91.1876 168.743 91.3797C168.31 91.565 167.844 91.6576 167.343 91.6576ZM167.322 90.7312C167.83 90.7312 168.279 90.6145 168.671 90.3812C169.069 90.141 169.377 89.8151 169.597 89.4033C169.823 88.9847 169.937 88.5078 169.937 87.9725C169.937 87.4441 169.823 86.9741 169.597 86.5623C169.371 86.1506 169.062 85.828 168.671 85.5947C168.279 85.3545 167.83 85.2345 167.322 85.2345C166.814 85.2345 166.365 85.3545 165.974 85.5947C165.583 85.828 165.277 86.1506 165.058 86.5623C164.838 86.9672 164.728 87.4373 164.728 87.9725C164.728 88.5078 164.838 88.9847 165.058 89.4033C165.277 89.8151 165.583 90.141 165.974 90.3812C166.365 90.6145 166.814 90.7312 167.322 90.7312ZM181.115 91.6576C180.587 91.6576 180.113 91.5375 179.694 91.2973C179.283 91.0572 178.957 90.7312 178.717 90.3195C178.476 89.9077 178.356 89.4376 178.356 88.9092V84.411H179.324V88.8887C179.324 89.2661 179.403 89.5921 179.561 89.8665C179.718 90.141 179.931 90.3538 180.199 90.5047C180.473 90.6557 180.779 90.7312 181.115 90.7312C181.458 90.7312 181.763 90.6557 182.031 90.5047C182.299 90.3538 182.508 90.141 182.659 89.8665C182.817 89.5921 182.896 89.2695 182.896 88.899V84.411H183.874V88.9195C183.874 89.4479 183.754 89.918 183.513 90.3298C183.273 90.7415 182.944 91.0675 182.525 91.3076C182.113 91.541 181.643 91.6576 181.115 91.6576ZM191.641 91.5547V84.411H194.266C194.719 84.411 195.11 84.5002 195.44 84.6786C195.776 84.8502 196.037 85.0869 196.222 85.3889C196.407 85.6908 196.5 86.0374 196.5 86.4285C196.5 87.0118 196.311 87.4853 195.934 87.849C195.556 88.2127 195.052 88.4083 194.421 88.4357L196.984 91.5547H195.759L193.237 88.446H192.609V91.5547H191.641ZM194.235 85.255H192.609V87.6328H194.225C194.644 87.6328 194.966 87.5265 195.193 87.3137C195.419 87.101 195.532 86.8128 195.532 86.4491C195.532 86.106 195.419 85.8212 195.193 85.5947C194.966 85.3683 194.647 85.255 194.235 85.255ZM212.618 91.5547V84.411H213.298L217.271 89.7121V84.411H218.239V91.5547H217.559L213.586 86.2535V91.5547H212.618ZM228.779 91.6576C228.25 91.6576 227.777 91.5375 227.358 91.2973C226.947 91.0572 226.621 90.7312 226.38 90.3195C226.14 89.9077 226.02 89.4376 226.02 88.9092V84.411H226.988V88.8887C226.988 89.2661 227.067 89.5921 227.225 89.8665C227.382 90.141 227.595 90.3538 227.863 90.5047C228.137 90.6557 228.443 90.7312 228.779 90.7312C229.122 90.7312 229.427 90.6557 229.695 90.5047C229.963 90.3538 230.172 90.141 230.323 89.8665C230.481 89.5921 230.56 89.2695 230.56 88.899V84.411H231.538V88.9195C231.538 89.4479 231.417 89.918 231.177 90.3298C230.937 90.7415 230.608 91.0675 230.189 91.3076C229.777 91.541 229.307 91.6576 228.779 91.6576ZM239.305 91.5547V84.411H239.985L242.784 89.0122L245.574 84.411H246.253V91.5547H245.286V86.5314L243.124 90.093H242.445L240.273 86.5314V91.5547H239.305ZM254.116 91.5547V84.411H256.793C257.252 84.411 257.64 84.4968 257.956 84.6683C258.271 84.833 258.508 85.0526 258.666 85.3271C258.831 85.6016 258.913 85.9035 258.913 86.2329C258.906 86.8849 258.618 87.3858 258.048 87.7358C258.419 87.9142 258.707 88.1578 258.913 88.4666C259.119 88.7754 259.222 89.1323 259.222 89.5372C259.222 89.9146 259.129 90.2577 258.944 90.5665C258.759 90.8685 258.491 91.1086 258.141 91.2871C257.791 91.4655 257.369 91.5547 256.875 91.5547H254.116ZM256.772 85.255H255.084V87.3755H256.813C257.156 87.3755 257.427 87.2863 257.626 87.1079C257.832 86.9226 257.935 86.6584 257.935 86.3153C257.935 85.9722 257.829 85.7114 257.616 85.533C257.403 85.3477 257.122 85.255 256.772 85.255ZM256.957 88.2196H255.084V90.7106H256.926C257.331 90.7106 257.65 90.5905 257.884 90.3503C258.124 90.1033 258.244 89.8082 258.244 89.4651C258.244 89.122 258.127 88.8303 257.894 88.5901C257.661 88.3431 257.348 88.2196 256.957 88.2196ZM266.706 91.5547V84.411H271.41V85.2962H267.673V87.4784H271.122V88.3225H267.673V90.6694H271.461V91.5547H266.706ZM278.953 91.5547V84.411H281.578C282.031 84.411 282.422 84.5002 282.752 84.6786C283.088 84.8502 283.349 85.0869 283.534 85.3889C283.719 85.6908 283.812 86.0374 283.812 86.4285C283.812 87.0118 283.623 87.4853 283.246 87.849C282.868 88.2127 282.364 88.4083 281.733 88.4357L284.296 91.5547H283.071L280.549 88.446H279.921V91.5547H278.953ZM281.547 85.255H279.921V87.6328H281.537C281.956 87.6328 282.278 87.5265 282.505 87.3137C282.731 87.101 282.844 86.8128 282.844 86.4491C282.844 86.106 282.731 85.8212 282.505 85.5947C282.278 85.3683 281.959 85.255 281.547 85.255ZM293.238 91.6576C292.675 91.6576 292.192 91.5547 291.787 91.3488C291.389 91.1429 291.039 90.8444 290.737 90.4533L291.395 89.7945C291.622 90.1102 291.883 90.3503 292.178 90.515C292.473 90.6729 292.837 90.7518 293.269 90.7518C293.694 90.7518 294.034 90.6591 294.288 90.4739C294.549 90.2886 294.679 90.0347 294.679 89.7121C294.679 89.4445 294.617 89.2283 294.494 89.0637C294.37 88.899 294.202 88.7651 293.989 88.6622C293.784 88.5524 293.557 88.4563 293.31 88.374C293.063 88.2848 292.816 88.1921 292.569 88.0961C292.322 87.9931 292.092 87.8696 291.879 87.7255C291.673 87.5745 291.509 87.3789 291.385 87.1388C291.262 86.8986 291.2 86.5966 291.2 86.2329C291.2 85.8349 291.296 85.4918 291.488 85.2036C291.687 84.9154 291.955 84.6958 292.291 84.5448C292.634 84.387 293.018 84.308 293.444 84.308C293.911 84.308 294.326 84.4007 294.689 84.586C295.06 84.7644 295.365 85.0011 295.606 85.2962L294.947 85.955C294.734 85.708 294.504 85.5227 294.257 85.3992C294.017 85.2756 293.739 85.2139 293.423 85.2139C293.039 85.2139 292.734 85.2996 292.507 85.4712C292.281 85.6359 292.168 85.8692 292.168 86.1712C292.168 86.4113 292.229 86.6069 292.353 86.7579C292.483 86.9089 292.651 87.0358 292.857 87.1388C293.063 87.2348 293.29 87.3275 293.537 87.4167C293.79 87.499 294.041 87.5917 294.288 87.6946C294.535 87.7975 294.761 87.9279 294.967 88.0858C295.173 88.2436 295.338 88.4495 295.461 88.7034C295.592 88.9504 295.657 89.2627 295.657 89.6401C295.657 90.2714 295.437 90.7655 294.998 91.1224C294.566 91.4792 293.979 91.6576 293.238 91.6576Z" fill="#072B2C"/>
</svg>
