<svg width="55" height="55" viewBox="0 0 55 55" fill="none" xmlns="http://www.w3.org/2000/svg">
<g clip-path="url(#clip0_7434_32069)">
<path opacity="0.2" fill-rule="evenodd" clip-rule="evenodd" d="M8.93085 7.64038H46.7433C47.6926 7.64038 48.4621 8.56379 48.4621 9.70288V23.5469C46.5133 22.1876 44.1433 21.3904 41.5871 21.3904C34.9424 21.3904 29.5558 26.777 29.5558 33.4216C29.5558 40.0663 34.9424 45.4529 41.5871 45.4529C44.1433 45.4529 46.5133 44.6557 48.4621 43.2964V46.8279C48.4621 47.967 47.6926 48.8904 46.7433 48.8904H8.93085C7.98161 48.8904 7.2121 47.967 7.2121 46.8279V9.70288C7.2121 8.56379 7.98161 7.64038 8.93085 7.64038Z" fill="#105F62"/>
<path d="M12.3683 33.4216H24.3996" stroke="#105F62" stroke-linecap="round" stroke-linejoin="round"/>
<path d="M12.3683 28.2654H24.3996" stroke="#105F62" stroke-linecap="round" stroke-linejoin="round"/>
<path d="M12.3683 38.5779H24.3996" stroke="#105F62" stroke-linecap="round" stroke-linejoin="round"/>
<path fill-rule="evenodd" clip-rule="evenodd" d="M7.7121 9.70288C7.7121 8.75071 8.33924 8.14038 8.93085 8.14038H46.7433C47.335 8.14038 47.9621 8.75071 47.9621 9.70288V23.2163C48.3076 23.4326 48.6413 23.6659 48.9621 23.9151V9.70288C48.9621 8.37688 48.0502 7.14038 46.7433 7.14038H8.93085C7.62398 7.14038 6.7121 8.37688 6.7121 9.70288V46.8279C6.7121 48.1539 7.62398 49.3904 8.93085 49.3904H46.7433C48.0502 49.3904 48.9621 48.1539 48.9621 46.8279V42.9281C48.6413 43.1774 48.3076 43.4107 47.9621 43.627V46.8279C47.9621 47.7801 47.335 48.3904 46.7433 48.3904H8.93085C8.33924 48.3904 7.7121 47.7801 7.7121 46.8279V9.70288Z" fill="#105F62"/>
<path opacity="0.2" d="M38.8106 26.9431H41.0822C41.9525 26.9431 42.7871 27.3331 43.4024 28.0274C44.0178 28.7216 44.3635 29.6632 44.3635 30.645C44.3635 31.6268 44.0178 32.5684 43.4024 33.2627C42.7871 33.9569 41.9525 34.347 41.0822 34.347H38.8106V26.9431Z" fill="#072B2C"/>
<path d="M38.8106 30.645H46.2145" stroke="#105F62" stroke-linecap="round" stroke-linejoin="round"/>
<path d="M38.8106 26.9431H46.2145" stroke="#105F62" stroke-linecap="round" stroke-linejoin="round"/>
<path d="M41.0822 26.9431C41.9525 26.9431 42.7871 27.3289 43.4024 28.0156C44.0178 28.7023 44.3635 29.6337 44.3635 30.6048C44.3635 31.5759 44.0178 32.5073 43.4024 33.194C42.7871 33.8807 41.9525 34.2665 41.0822 34.2665H38.8106L44.3635 39.8998" stroke="#105F62" stroke-linecap="round" stroke-linejoin="round"/>
<path d="M53.1183 33.4216C53.1183 39.7902 47.9556 44.9529 41.5871 44.9529C35.2186 44.9529 30.0558 39.7902 30.0558 33.4216C30.0558 27.0531 35.2186 21.8904 41.5871 21.8904C47.9556 21.8904 53.1183 27.0531 53.1183 33.4216Z" stroke="#105F62"/>
<path d="M31.6284 12.9141V21.4741H30.1645V12.9141H31.6284ZM34.3151 12.9141V14.0899H27.5012V12.9141H34.3151Z" fill="#105F62"/>
<path d="M25.32 19.2695C25.32 19.0932 25.2926 18.9364 25.2377 18.7992C25.1868 18.662 25.0947 18.5366 24.9614 18.4229C24.8281 18.3093 24.64 18.1995 24.397 18.0937C24.1579 17.984 23.8522 17.8723 23.4799 17.7586C23.0722 17.6332 22.696 17.494 22.3511 17.3412C22.0101 17.1844 21.7122 17.0041 21.4575 16.8003C21.2027 16.5926 21.0048 16.3555 20.8637 16.0889C20.7226 15.8185 20.652 15.5069 20.652 15.1542C20.652 14.8053 20.7245 14.4879 20.8695 14.2017C21.0185 13.9156 21.2282 13.6687 21.4986 13.461C21.773 13.2493 22.0963 13.0867 22.4687 12.973C22.841 12.8554 23.2525 12.7966 23.7033 12.7966C24.3382 12.7966 24.885 12.9142 25.3436 13.1494C25.806 13.3845 26.1607 13.7001 26.4077 14.0959C26.6585 14.4918 26.7839 14.9288 26.7839 15.407H25.32C25.32 15.1248 25.2593 14.8759 25.1378 14.6603C25.0202 14.4408 24.8399 14.2684 24.5969 14.1429C24.3578 14.0175 24.0541 13.9548 23.6856 13.9548C23.3368 13.9548 23.0468 14.0077 22.8155 14.1136C22.5843 14.2194 22.4118 14.3624 22.2982 14.5427C22.1845 14.723 22.1277 14.9268 22.1277 15.1542C22.1277 15.3149 22.1649 15.4618 22.2394 15.5951C22.3138 15.7244 22.4275 15.8459 22.5804 15.9596C22.7332 16.0693 22.9253 16.1732 23.1565 16.2712C23.3878 16.3692 23.6602 16.4632 23.9737 16.5534C24.448 16.6945 24.8615 16.8513 25.2142 17.0237C25.567 17.1923 25.8609 17.3843 26.0961 17.5999C26.3312 17.8154 26.5076 18.0604 26.6252 18.3348C26.7428 18.6052 26.8016 18.9129 26.8016 19.2578C26.8016 19.6184 26.7291 19.9437 26.584 20.2337C26.439 20.5198 26.2313 20.7648 25.9609 20.9686C25.6943 21.1685 25.3729 21.3233 24.9967 21.4331C24.6243 21.5389 24.2089 21.5918 23.7503 21.5918C23.3388 21.5918 22.9331 21.5369 22.5333 21.4272C22.1375 21.3174 21.7769 21.1509 21.4516 20.9275C21.1263 20.7001 20.8676 20.4179 20.6755 20.0809C20.4835 19.7399 20.3875 19.3421 20.3875 18.8874H21.8631C21.8631 19.1657 21.9101 19.4028 22.0042 19.5988C22.1022 19.7947 22.2374 19.9554 22.4099 20.0809C22.5823 20.2024 22.7822 20.2925 23.0095 20.3513C23.2408 20.4101 23.4877 20.4395 23.7503 20.4395C24.0952 20.4395 24.3833 20.3905 24.6145 20.2925C24.8497 20.1945 25.0261 20.0573 25.1437 19.881C25.2612 19.7046 25.32 19.5008 25.32 19.2695Z" fill="#105F62"/>
<path d="M19.1822 17.1001V20.3689C19.0607 20.5296 18.8707 20.706 18.612 20.8981C18.3572 21.0862 18.0182 21.2488 17.5949 21.386C17.1716 21.5232 16.6444 21.5918 16.0134 21.5918C15.4764 21.5918 14.9846 21.5016 14.5377 21.3214C14.0909 21.1371 13.7049 20.8687 13.3796 20.5159C13.0582 20.1632 12.8093 19.734 12.6329 19.2284C12.4565 18.7189 12.3683 18.1388 12.3683 17.4882V16.8944C12.3683 16.2477 12.4487 15.6715 12.6094 15.1659C12.774 14.6564 13.0092 14.2253 13.3149 13.8725C13.6206 13.5198 13.989 13.2532 14.4202 13.0729C14.8552 12.8887 15.3471 12.7966 15.8958 12.7966C16.5974 12.7966 17.1775 12.9142 17.636 13.1494C18.0985 13.3806 18.4552 13.702 18.706 14.1136C18.9569 14.5251 19.1156 14.9954 19.1822 15.5245H17.736C17.689 15.2267 17.5968 14.9601 17.4597 14.725C17.3264 14.4898 17.1344 14.3056 16.8835 14.1723C16.6366 14.0352 16.3152 13.9666 15.9193 13.9666C15.5783 13.9666 15.2785 14.0312 15.0198 14.1606C14.7611 14.2899 14.5456 14.48 14.3731 14.7309C14.2046 14.9817 14.0772 15.2874 13.991 15.648C13.9048 16.0086 13.8616 16.4201 13.8616 16.8826V17.4882C13.8616 17.9585 13.9106 18.3759 14.0086 18.7404C14.1105 19.1049 14.2555 19.4126 14.4437 19.6634C14.6357 19.9143 14.8689 20.1044 15.1433 20.2337C15.4177 20.3591 15.7273 20.4219 16.0722 20.4219C16.4093 20.4219 16.6856 20.3944 16.9011 20.3395C17.1167 20.2808 17.2872 20.2122 17.4126 20.1338C17.542 20.0515 17.6419 19.9731 17.7125 19.8986V18.1995H15.9311V17.1001H19.1822Z" fill="#105F62"/>
</g>
<defs>
<clipPath id="clip0_7434_32069">
<rect width="55" height="55" fill="white"/>
</clipPath>
</defs>
</svg>
