<svg width="173" height="46" viewBox="0 0 173 46" fill="none" xmlns="http://www.w3.org/2000/svg">
<path fill-rule="evenodd" clip-rule="evenodd" d="M135.295 0H172.842V37.5474H135.295V0ZM147.698 25.1041C147.284 25.4456 147.077 25.9309 147.077 26.5601C147.077 27.1892 147.284 27.6835 147.698 28.043C148.111 28.3845 148.614 28.5552 149.207 28.5552C149.783 28.5552 150.277 28.3845 150.69 28.043C151.104 27.6835 151.31 27.1892 151.31 26.5601C151.31 25.9309 151.104 25.4456 150.69 25.1041C150.277 24.7446 149.783 24.5649 149.207 24.5649C148.614 24.5649 148.111 24.7446 147.698 25.1041ZM156.789 28.4204H160.483V9.54709H156.789C156.429 10.2661 155.926 10.8592 155.279 11.3266C154.632 11.7759 153.904 11.9916 153.095 11.9737V15.2361C153.437 15.2361 153.787 15.2001 154.147 15.1282C154.506 15.0563 154.848 14.9574 155.171 14.8316C155.513 14.7058 155.818 14.553 156.088 14.3733C156.375 14.1756 156.609 13.9688 156.789 13.7531V28.4204Z" fill="#105F62"/>
<path fill-rule="evenodd" clip-rule="evenodd" d="M0 0H135.2V37.5474H0V0ZM21.9848 24.6458C21.2299 25.0951 20.394 25.3198 19.4773 25.3198C18.7583 25.3198 18.0843 25.185 17.4552 24.9154C16.8261 24.6278 16.2778 24.2144 15.8105 23.6751C15.3432 23.1359 14.9747 22.4708 14.7051 21.68C14.4355 20.8891 14.3006 19.9814 14.3006 18.9568C14.3006 17.9502 14.4355 17.0605 14.7051 16.2876C14.9747 15.4967 15.3432 14.8316 15.8105 14.2924C16.2778 13.7531 16.8261 13.3487 17.4552 13.0791C18.0843 12.7915 18.7583 12.6477 19.4773 12.6477C20.394 12.6477 21.2299 12.8814 21.9848 13.3487C22.7397 13.7981 23.3419 14.4811 23.7912 15.3978L26.8379 13.4026C26.0471 12.1085 25.0045 11.1199 23.7104 10.4368C22.4342 9.7538 21.0142 9.41228 19.4504 9.41228C18.2281 9.41228 17.0777 9.62798 15.9992 10.0594C14.9387 10.4728 14.0041 11.0929 13.1952 11.9197C12.4043 12.7286 11.7752 13.7262 11.3079 14.9125C10.8405 16.0988 10.6069 17.4559 10.6069 18.9838C10.6069 20.5116 10.8405 21.8687 11.3079 23.055C11.7752 24.2413 12.4043 25.2479 13.1952 26.0747C14.0041 26.8836 14.9387 27.5037 15.9992 27.9351C17.0777 28.3485 18.2281 28.5552 19.4504 28.5552C21.0142 28.5552 22.4342 28.2137 23.7104 27.5307C25.0045 26.8477 26.0471 25.8591 26.8379 24.5649L23.7912 22.5697C23.3419 23.4864 22.7397 24.1784 21.9848 24.6458ZM32.8991 9.54709H29.2323V28.4204H32.8991V20.0083H40.3406V28.4204H44.0074V9.54709H40.3406V16.7459H32.8991V9.54709ZM54.8189 13.16L57.1107 20.8441H52.5272L54.8189 13.16ZM50.2354 28.4204L51.5296 24.0796H58.0813L59.3755 28.4204H63.3389L57.3533 9.54709H52.3115L46.3259 28.4204H50.2354ZM69.3398 19.0377V12.8095H71.2811C72.5752 12.8095 73.5639 13.0701 74.2469 13.5914C74.9479 14.0947 75.2984 14.8676 75.2984 15.9101C75.2984 16.9706 74.9479 17.7615 74.2469 18.2828C73.5639 18.786 72.5752 19.0377 71.2811 19.0377H69.3398ZM69.3398 28.4204V22.3001H71.8473C72.9258 22.3001 73.9054 22.1743 74.7861 21.9226C75.6849 21.653 76.4398 21.2575 77.0509 20.7363C77.68 20.197 78.1654 19.532 78.5069 18.7411C78.8484 17.9322 79.0191 16.9886 79.0191 15.9101C79.0191 14.8316 78.8214 13.8969 78.426 13.1061C78.0485 12.3152 77.5093 11.6591 76.8083 11.1378C76.1073 10.5986 75.2625 10.2032 74.2738 9.95152C73.2852 9.6819 72.1798 9.54709 70.9575 9.54709H65.646V28.4204H69.3398ZM80.153 12.8095H85.4106V28.4204H89.1044V12.8095H94.362V9.54709H80.153V12.8095ZM108.614 9.54709H96.4001V28.4204H108.614V25.158H100.067V20.0083H106.673V16.7459H100.067V12.8095H108.614V9.54709ZM115.022 18.5254V12.8095H117.26C118.482 12.8095 119.426 13.0432 120.091 13.5105C120.756 13.9778 121.089 14.6878 121.089 15.6405C121.089 16.6111 120.756 17.3391 120.091 17.8244C119.426 18.2917 118.482 18.5254 117.26 18.5254H115.022ZM117.799 21.7878L121.035 28.4204H124.837L121.304 21.1946C122.401 20.7632 123.255 20.0892 123.866 19.1725C124.477 18.2558 124.783 17.0785 124.783 15.6405C124.783 14.6159 124.603 13.7262 124.243 12.9713C123.884 12.1983 123.363 11.5602 122.68 11.057C122.014 10.5537 121.206 10.1762 120.253 9.92456C119.3 9.67291 118.24 9.54709 117.071 9.54709H111.356V28.4204H115.022V21.7878H117.799Z" fill="#43916F"/>
<path d="M28.8014 45.7214C28.5241 45.7214 28.2856 45.6707 28.0861 45.5692C27.89 45.4678 27.7175 45.3207 27.5687 45.1279L27.8933 44.8032C28.0049 44.9588 28.1335 45.0772 28.2789 45.1583C28.4243 45.2361 28.6035 45.275 28.8166 45.275C29.0263 45.275 29.1937 45.2293 29.3188 45.138C29.4473 45.0467 29.5116 44.9216 29.5116 44.7626C29.5116 44.6307 29.4812 44.5242 29.4203 44.443C29.3594 44.3619 29.2766 44.2959 29.1717 44.2452C29.0703 44.1911 28.9587 44.1437 28.8369 44.1031C28.7151 44.0592 28.5934 44.0135 28.4716 43.9662C28.3499 43.9154 28.2366 43.8546 28.1318 43.7836C28.0303 43.7091 27.9491 43.6128 27.8883 43.4944C27.8274 43.376 27.7969 43.2272 27.7969 43.048C27.7969 42.8518 27.8443 42.6827 27.939 42.5407C28.0371 42.3986 28.169 42.2904 28.3347 42.216C28.5038 42.1382 28.6932 42.0993 28.9028 42.0993C29.1328 42.0993 29.3374 42.145 29.5167 42.2363C29.6993 42.3242 29.8498 42.4409 29.9682 42.5863L29.6435 42.911C29.5387 42.7893 29.4254 42.6979 29.3036 42.6371C29.1852 42.5762 29.0483 42.5458 28.8927 42.5458C28.7033 42.5458 28.5528 42.588 28.4412 42.6726C28.3296 42.7537 28.2738 42.8687 28.2738 43.0175C28.2738 43.1359 28.3042 43.2323 28.3651 43.3067C28.4294 43.3811 28.5122 43.4437 28.6137 43.4944C28.7151 43.5417 28.8268 43.5874 28.9485 43.6314C29.0736 43.6719 29.1971 43.7176 29.3188 43.7683C29.4406 43.8191 29.5522 43.8833 29.6536 43.9611C29.7551 44.0389 29.8363 44.1403 29.8971 44.2655C29.9614 44.3872 29.9935 44.5411 29.9935 44.7271C29.9935 45.0383 29.8853 45.2818 29.6689 45.4576C29.4558 45.6335 29.1666 45.7214 28.8014 45.7214ZM34.5117 45.6707V44.1234L33.208 42.1501H33.7609L34.7552 43.6719L35.7495 42.1501H36.2923L34.9886 44.1031V45.6707H34.5117ZM39.7705 45.6707V42.1501H40.1053L42.0634 44.7626V42.1501H42.5403V45.6707H42.2055L40.2473 43.0581V45.6707H39.7705ZM48.0138 45.7214C47.7568 45.7214 47.52 45.6758 47.3036 45.5844C47.0905 45.4897 46.9028 45.3595 46.7405 45.1938C46.5815 45.0281 46.4581 44.837 46.3702 44.6206C46.2822 44.4008 46.2383 44.164 46.2383 43.9104C46.2383 43.6567 46.2822 43.4217 46.3702 43.2052C46.4581 42.9854 46.5815 42.7926 46.7405 42.6269C46.8994 42.4612 47.0855 42.3327 47.2985 42.2414C47.515 42.1467 47.7517 42.0993 48.0087 42.0993C48.2827 42.0993 48.5245 42.1467 48.7342 42.2414C48.9472 42.3361 49.1349 42.4646 49.2973 42.6269L48.9675 42.9567C48.8559 42.8315 48.7189 42.7335 48.5566 42.6624C48.3943 42.5914 48.2116 42.5559 48.0087 42.5559C47.7585 42.5559 47.5369 42.6151 47.3442 42.7335C47.1548 42.8484 47.0043 43.0074 46.8927 43.2103C46.7845 43.4132 46.7304 43.6466 46.7304 43.9104C46.7304 44.1742 46.7845 44.4075 46.8927 44.6104C47.0043 44.8134 47.1565 44.974 47.3492 45.0924C47.542 45.2074 47.7618 45.2648 48.0087 45.2648C48.2286 45.2648 48.4196 45.2293 48.582 45.1583C48.7443 45.0839 48.8813 44.9841 48.9929 44.859L49.3226 45.1837C49.1603 45.3528 48.9692 45.4847 48.7494 45.5794C48.5329 45.6741 48.2877 45.7214 48.0138 45.7214ZM52.9522 45.6707V42.1501H53.4291V45.6707H52.9522ZM57.3038 45.6707V42.1501H57.6386L59.5968 44.7626V42.1501H60.0737V45.6707H59.7388L57.7807 43.0581V45.6707H57.3038ZM65.5421 45.7214C65.2952 45.7214 65.0635 45.6758 64.8471 45.5844C64.634 45.4897 64.4463 45.3595 64.284 45.1938C64.125 45.0281 63.9999 44.8353 63.9086 44.6155C63.8173 44.3957 63.7716 44.1589 63.7716 43.9053C63.7716 43.6517 63.8173 43.4166 63.9086 43.2002C63.9999 42.9803 64.1267 42.7876 64.2891 42.6218C64.4514 42.4561 64.6408 42.3276 64.8572 42.2363C65.0771 42.145 65.3155 42.0993 65.5725 42.0993C65.8532 42.0993 66.1119 42.1551 66.3487 42.2667C66.5854 42.375 66.7833 42.5288 66.9422 42.7284L66.6125 43.0581C66.5009 42.8958 66.3538 42.7723 66.1711 42.6878C65.9885 42.5999 65.789 42.5559 65.5725 42.5559C65.3121 42.5559 65.0838 42.6134 64.8877 42.7284C64.6915 42.8434 64.5376 43.0023 64.426 43.2052C64.3178 43.4082 64.2637 43.6415 64.2637 43.9053C64.2637 44.1725 64.3178 44.4075 64.426 44.6104C64.5376 44.8134 64.6881 44.9723 64.8775 45.0873C65.0703 45.2023 65.2867 45.2598 65.5269 45.2598C65.8651 45.2598 66.139 45.1718 66.3487 44.996C66.5617 44.8201 66.6869 44.5648 66.7241 44.23H65.5066V43.7937H67.2314V43.8647C67.2314 44.2739 67.1587 44.6155 67.0132 44.8895C66.8712 45.1634 66.6717 45.3714 66.4146 45.5134C66.161 45.6521 65.8701 45.7214 65.5421 45.7214ZM75.9067 45.6707V44.1234L74.603 42.1501H75.1559L76.1502 43.6719L77.1445 42.1501H77.6873L76.3836 44.1031V45.6707H75.9067ZM82.5852 45.7214C82.335 45.7214 82.1016 45.6758 81.8852 45.5844C81.6721 45.4897 81.4827 45.3595 81.317 45.1938C81.1547 45.0281 81.0278 44.8353 80.9365 44.6155C80.8486 44.3957 80.8046 44.1589 80.8046 43.9053C80.8046 43.6517 80.8486 43.4166 80.9365 43.2002C81.0278 42.9803 81.153 42.7893 81.3119 42.6269C81.4742 42.4612 81.6619 42.3327 81.875 42.2414C82.0915 42.1467 82.3248 42.0993 82.5751 42.0993C82.8253 42.0993 83.057 42.1467 83.2701 42.2414C83.4865 42.3327 83.6759 42.4612 83.8382 42.6269C84.0006 42.7893 84.1274 42.9803 84.2187 43.2002C84.31 43.42 84.3557 43.6567 84.3557 43.9104C84.3557 44.164 84.31 44.4008 84.2187 44.6206C84.1274 44.837 84.0006 45.0281 83.8382 45.1938C83.6793 45.3595 83.4916 45.4897 83.2751 45.5844C83.0621 45.6758 82.8321 45.7214 82.5852 45.7214ZM82.5751 45.2648C82.8253 45.2648 83.0469 45.2074 83.2396 45.0924C83.4358 44.974 83.588 44.8134 83.6962 44.6104C83.8078 44.4041 83.8636 44.1691 83.8636 43.9053C83.8636 43.6449 83.8078 43.4132 83.6962 43.2103C83.5846 43.0074 83.4324 42.8484 83.2396 42.7335C83.0469 42.6151 82.8253 42.5559 82.5751 42.5559C82.3248 42.5559 82.1033 42.6151 81.9105 42.7335C81.7178 42.8484 81.5673 43.0074 81.459 43.2103C81.3508 43.4098 81.2967 43.6415 81.2967 43.9053C81.2967 44.1691 81.3508 44.4041 81.459 44.6104C81.5673 44.8134 81.7178 44.974 81.9105 45.0924C82.1033 45.2074 82.3248 45.2648 82.5751 45.2648ZM89.3725 45.7214C89.1121 45.7214 88.8788 45.6622 88.6725 45.5439C88.4696 45.4255 88.3089 45.2648 88.1905 45.0619C88.0722 44.859 88.013 44.6273 88.013 44.3669V42.1501H88.4899V44.3568C88.4899 44.5428 88.5287 44.7034 88.6065 44.8387C88.6843 44.974 88.7892 45.0788 88.9211 45.1532C89.0563 45.2276 89.2068 45.2648 89.3725 45.2648C89.5416 45.2648 89.6921 45.2276 89.824 45.1532C89.9559 45.0788 90.0591 44.974 90.1335 44.8387C90.2113 44.7034 90.2502 44.5445 90.2502 44.3619V42.1501H90.7321V44.372C90.7321 44.6324 90.6729 44.8641 90.5545 45.067C90.4362 45.2699 90.2738 45.4306 90.0675 45.5489C89.8646 45.6639 89.633 45.7214 89.3725 45.7214ZM94.5602 45.6707V42.1501H95.8538C96.077 42.1501 96.2698 42.194 96.4321 42.282C96.5979 42.3665 96.7264 42.4832 96.8177 42.632C96.909 42.7808 96.9547 42.9516 96.9547 43.1444C96.9547 43.4318 96.8616 43.6652 96.6756 43.8444C96.4896 44.0237 96.2411 44.1201 95.9299 44.1336L97.1931 45.6707H96.5894L95.3465 44.1387H95.0371V45.6707H94.5602ZM95.8386 42.566H95.0371V43.7379H95.8335C96.0398 43.7379 96.1988 43.6855 96.3104 43.5806C96.422 43.4758 96.4778 43.3337 96.4778 43.1545C96.4778 42.9854 96.422 42.8451 96.3104 42.7335C96.1988 42.6218 96.0415 42.566 95.8386 42.566ZM104.898 45.6707V42.1501H105.233L107.191 44.7626V42.1501H107.668V45.6707H107.333L105.375 43.0581V45.6707H104.898ZM112.863 45.7214C112.602 45.7214 112.369 45.6622 112.163 45.5439C111.96 45.4255 111.799 45.2648 111.681 45.0619C111.562 44.859 111.503 44.6273 111.503 44.3669V42.1501H111.98V44.3568C111.98 44.5428 112.019 44.7034 112.097 44.8387C112.174 44.974 112.279 45.0788 112.411 45.1532C112.546 45.2276 112.697 45.2648 112.863 45.2648C113.032 45.2648 113.182 45.2276 113.314 45.1532C113.446 45.0788 113.549 44.974 113.624 44.8387C113.701 44.7034 113.74 44.5445 113.74 44.3619V42.1501H114.222V44.372C114.222 44.6324 114.163 44.8641 114.045 45.067C113.926 45.2699 113.764 45.4306 113.558 45.5489C113.355 45.6639 113.123 45.7214 112.863 45.7214ZM118.05 45.6707V42.1501H118.385L119.765 44.4177L121.14 42.1501H121.475V45.6707H120.998V43.1951L119.932 44.9503H119.598L118.527 43.1951V45.6707H118.05ZM125.35 45.6707V42.1501H126.669C126.895 42.1501 127.086 42.1923 127.242 42.2769C127.397 42.3581 127.514 42.4663 127.592 42.6016C127.673 42.7368 127.714 42.8856 127.714 43.048C127.71 43.3693 127.568 43.6161 127.287 43.7886C127.47 43.8766 127.612 43.9966 127.714 44.1488C127.815 44.301 127.866 44.4769 127.866 44.6764C127.866 44.8624 127.82 45.0315 127.729 45.1837C127.638 45.3325 127.506 45.4509 127.333 45.5388C127.161 45.6267 126.953 45.6707 126.709 45.6707H125.35ZM126.658 42.566H125.826V43.6111H126.679C126.848 43.6111 126.981 43.5671 127.079 43.4792C127.181 43.3879 127.232 43.2577 127.232 43.0886C127.232 42.9195 127.179 42.7909 127.074 42.703C126.97 42.6117 126.831 42.566 126.658 42.566ZM126.75 44.0271H125.826V45.2547H126.735C126.934 45.2547 127.091 45.1955 127.206 45.0772C127.325 44.9554 127.384 44.81 127.384 44.6409C127.384 44.4718 127.326 44.328 127.211 44.2097C127.096 44.0879 126.943 44.0271 126.75 44.0271ZM131.554 45.6707V42.1501H133.872V42.5863H132.031V43.6618H133.73V44.0778H132.031V45.2344H133.898V45.6707H131.554ZM137.59 45.6707V42.1501H138.884C139.107 42.1501 139.3 42.194 139.462 42.282C139.628 42.3665 139.756 42.4832 139.848 42.632C139.939 42.7808 139.984 42.9516 139.984 43.1444C139.984 43.4318 139.891 43.6652 139.705 43.8444C139.519 44.0237 139.271 44.1201 138.96 44.1336L140.223 45.6707H139.619L138.376 44.1387H138.067V45.6707H137.59ZM138.868 42.566H138.067V43.7379H138.863C139.07 43.7379 139.229 43.6855 139.34 43.5806C139.452 43.4758 139.508 43.3337 139.508 43.1545C139.508 42.9854 139.452 42.8451 139.34 42.7335C139.229 42.6218 139.071 42.566 138.868 42.566ZM144.63 45.7214C144.353 45.7214 144.114 45.6707 143.915 45.5692C143.718 45.4678 143.546 45.3207 143.397 45.1279L143.722 44.8032C143.833 44.9588 143.962 45.0772 144.107 45.1583C144.253 45.2361 144.432 45.275 144.645 45.275C144.855 45.275 145.022 45.2293 145.147 45.138C145.276 45.0467 145.34 44.9216 145.34 44.7626C145.34 44.6307 145.31 44.5242 145.249 44.443C145.188 44.3619 145.105 44.2959 145 44.2452C144.899 44.1911 144.787 44.1437 144.665 44.1031C144.544 44.0592 144.422 44.0135 144.3 43.9662C144.178 43.9154 144.065 43.8546 143.96 43.7836C143.859 43.7091 143.778 43.6128 143.717 43.4944C143.656 43.376 143.625 43.2272 143.625 43.048C143.625 42.8518 143.673 42.6827 143.768 42.5407C143.866 42.3986 143.997 42.2904 144.163 42.216C144.332 42.1382 144.522 42.0993 144.731 42.0993C144.961 42.0993 145.166 42.145 145.345 42.2363C145.528 42.3242 145.678 42.4409 145.797 42.5863L145.472 42.911C145.367 42.7893 145.254 42.6979 145.132 42.6371C145.014 42.5762 144.877 42.5458 144.721 42.5458C144.532 42.5458 144.381 42.588 144.27 42.6726C144.158 42.7537 144.102 42.8687 144.102 43.0175C144.102 43.1359 144.133 43.2323 144.194 43.3067C144.258 43.3811 144.341 43.4437 144.442 43.4944C144.544 43.5417 144.655 43.5874 144.777 43.6314C144.902 43.6719 145.026 43.7176 145.147 43.7683C145.269 43.8191 145.381 43.8833 145.482 43.9611C145.584 44.0389 145.665 44.1403 145.726 44.2655C145.79 44.3872 145.822 44.5411 145.822 44.7271C145.822 45.0383 145.714 45.2818 145.497 45.4576C145.284 45.6335 144.995 45.7214 144.63 45.7214Z" fill="#072B2C"/>
</svg>
