<svg width="50" height="50" viewBox="0 0 50 50" fill="none" xmlns="http://www.w3.org/2000/svg">
<g clip-path="url(#clip0_7434_32003)">
<path opacity="0.2" d="M25 4.6875C20.856 4.6875 16.8817 6.3337 13.9515 9.26396C11.0212 12.1942 9.375 16.1685 9.375 20.3125C9.375 34.375 25 45.3125 25 45.3125C25 45.3125 40.625 34.375 40.625 20.3125C40.625 16.1685 38.9788 12.1942 36.0485 9.26396C33.1183 6.3337 29.144 4.6875 25 4.6875ZM25 26.5625C23.7639 26.5625 22.5555 26.1959 21.5277 25.5092C20.4999 24.8224 19.6988 23.8463 19.2258 22.7043C18.7527 21.5622 18.6289 20.3056 18.8701 19.0932C19.1112 17.8808 19.7065 16.7672 20.5806 15.8931C21.4547 15.019 22.5683 14.4237 23.7807 14.1826C24.9931 13.9414 26.2497 14.0652 27.3918 14.5383C28.5338 15.0113 29.5099 15.8124 30.1967 16.8402C30.8834 17.868 31.25 19.0764 31.25 20.3125C31.25 21.9701 30.5915 23.5598 29.4194 24.7319C28.2473 25.904 26.6576 26.5625 25 26.5625Z" fill="white"/>
<path d="M25 26.5625C28.4518 26.5625 31.25 23.7643 31.25 20.3125C31.25 16.8607 28.4518 14.0625 25 14.0625C21.5482 14.0625 18.75 16.8607 18.75 20.3125C18.75 23.7643 21.5482 26.5625 25 26.5625Z" stroke="#ECF4F1" stroke-linecap="round" stroke-linejoin="round"/>
<path d="M40.625 20.3125C40.625 34.375 25 45.3125 25 45.3125C25 45.3125 9.375 34.375 9.375 20.3125C9.375 16.1685 11.0212 12.1942 13.9515 9.26396C16.8817 6.3337 20.856 4.6875 25 4.6875C29.144 4.6875 33.1183 6.3337 36.0485 9.26396C38.9788 12.1942 40.625 16.1685 40.625 20.3125Z" stroke="#ECF4F1" stroke-linecap="round" stroke-linejoin="round"/>
</g>
<defs>
<clipPath id="clip0_7434_32003">
<rect width="50" height="50" fill="white"/>
</clipPath>
</defs>
</svg>
