<svg width="55" height="55" viewBox="0 0 55 55" fill="none" xmlns="http://www.w3.org/2000/svg">
<g clip-path="url(#clip0_7434_32008)">
<path opacity="0.2" d="M10.0375 43.45L44.4125 43.45C46.311 43.45 47.85 41.9109 47.85 40.0125V15.95C47.85 14.0515 46.311 12.5125 44.4125 12.5125L10.0375 12.5125C8.139 12.5125 6.59998 14.0515 6.59998 15.95V40.0125C6.59998 41.9109 8.139 43.45 10.0375 43.45Z" fill="#072B2C"/>
<path d="M34.375 48.125H20.625" stroke="#105F62" stroke-linecap="round" stroke-linejoin="round"/>
<path fill-rule="evenodd" clip-rule="evenodd" d="M12.1 12.0125H10.0375C7.86288 12.0125 6.10001 13.7753 6.10001 15.95V40.0125C6.10001 42.1871 7.86288 43.95 10.0375 43.95H44.4125C46.5871 43.95 48.35 42.1871 48.35 40.0125V15.95C48.35 13.7753 46.5871 12.0125 44.4125 12.0125H43.0375V13.0125H44.4125C46.0348 13.0125 47.35 14.3276 47.35 15.95V40.0125C47.35 41.6348 46.0348 42.95 44.4125 42.95H10.0375C8.41517 42.95 7.10001 41.6348 7.10001 40.0125V15.95C7.10001 14.3276 8.41517 13.0125 10.0375 13.0125H12.1V12.0125Z" fill="#105F62"/>
<path opacity="0.2" d="M38.5974 6.25635H16.5401C16.2742 6.25635 16.0192 6.35982 15.8312 6.54401C15.6431 6.7282 15.5375 6.97801 15.5375 7.23849V26.8813L19.5479 24.9171L23.5583 26.8813L27.5688 24.9171L31.5792 26.8813L35.5896 24.9171L39.6 26.8813V7.23849C39.6 6.97801 39.4944 6.7282 39.3064 6.54401C39.1183 6.35982 38.8633 6.25635 38.5974 6.25635Z" fill="#072B2C"/>
<path d="M15.5375 26.8813V7.23849C15.5375 6.97801 15.6431 6.7282 15.8312 6.54401C16.0192 6.35982 16.2742 6.25635 16.5401 6.25635H38.5974C38.8633 6.25635 39.1183 6.35982 39.3063 6.54401C39.4944 6.7282 39.6 6.97801 39.6 7.23849V26.8813L35.5896 24.9171L31.5792 26.8813L27.5688 24.9171L23.5583 26.8813L19.5479 24.9171L15.5375 26.8813Z" stroke="#105F62" stroke-linecap="round" stroke-linejoin="round"/>
<path d="M20.9 15.4001H34.1" stroke="#105F62" stroke-linecap="round" stroke-linejoin="round"/>
<path d="M20.9 18.7002H34.1" stroke="#105F62" stroke-linecap="round" stroke-linejoin="round"/>
</g>
<defs>
<clipPath id="clip0_7434_32008">
<rect width="55" height="55" fill="white"/>
</clipPath>
</defs>
</svg>
