<svg width="50" height="50" viewBox="0 0 50 50" fill="none" xmlns="http://www.w3.org/2000/svg">
<g clip-path="url(#clip0_7402_8761)">
<path opacity="0.2" d="M9.125 39.5L40.375 39.5C42.1009 39.5 43.5 38.1009 43.5 36.375V14.5C43.5 12.7741 42.1009 11.375 40.375 11.375L9.125 11.375C7.39911 11.375 6 12.7741 6 14.5V36.375C6 38.1009 7.39911 39.5 9.125 39.5Z" fill="#072B2C"/>
<path d="M31.25 43.75H18.75" stroke="#105F62" stroke-linecap="round" stroke-linejoin="round"/>
<path fill-rule="evenodd" clip-rule="evenodd" d="M11 10.875H9.125C7.12297 10.875 5.5 12.498 5.5 14.5V36.375C5.5 38.377 7.12297 40 9.125 40H40.375C42.377 40 44 38.377 44 36.375V14.5C44 12.498 42.377 10.875 40.375 10.875H39.125V11.875H40.375C41.8247 11.875 43 13.0503 43 14.5V36.375C43 37.8247 41.8247 39 40.375 39H9.125C7.67525 39 6.5 37.8247 6.5 36.375V14.5C6.5 13.0503 7.67525 11.875 9.125 11.875H11V10.875Z" fill="#105F62"/>
<path opacity="0.2" d="M35.0885 5.6875H15.0365C14.7947 5.6875 14.5629 5.78157 14.392 5.94901C14.221 6.11646 14.125 6.34356 14.125 6.58036V24.4375L17.7708 22.6518L21.4167 24.4375L25.0625 22.6518L28.7083 24.4375L32.3542 22.6518L36 24.4375V6.58036C36 6.34356 35.904 6.11646 35.733 5.94901C35.5621 5.78157 35.3303 5.6875 35.0885 5.6875Z" fill="#072B2C"/>
<path d="M14.125 24.4375V6.58036C14.125 6.34356 14.221 6.11646 14.392 5.94901C14.5629 5.78157 14.7947 5.6875 15.0365 5.6875H35.0885C35.3303 5.6875 35.5621 5.78157 35.733 5.94901C35.904 6.11646 36 6.34356 36 6.58036V24.4375L32.3542 22.6518L28.7083 24.4375L25.0625 22.6518L21.4167 24.4375L17.7708 22.6518L14.125 24.4375Z" stroke="#105F62" stroke-linecap="round" stroke-linejoin="round"/>
<path d="M19 14H31" stroke="#105F62" stroke-linecap="round" stroke-linejoin="round"/>
<path d="M19 17H31" stroke="#105F62" stroke-linecap="round" stroke-linejoin="round"/>
</g>
<defs>
<clipPath id="clip0_7402_8761">
<rect width="50" height="50" fill="white"/>
</clipPath>
</defs>
</svg>
