<svg width="50" height="50" viewBox="0 0 50 50" fill="none" xmlns="http://www.w3.org/2000/svg">
<g clip-path="url(#clip0_7355_21066)">
<path d="M29.6875 9.375C32.3155 10.067 34.7126 11.4442 36.6342 13.3658C38.5558 15.2874 39.933 17.6845 40.625 20.3125" stroke="white" stroke-linecap="round" stroke-linejoin="round"/>
<path d="M28.125 15.625C31.3516 16.4883 33.5117 18.6484 34.375 21.875" stroke="white" stroke-linecap="round" stroke-linejoin="round"/>
<path opacity="0.2" d="M30.5449 29.9494C30.7613 29.8054 31.0102 29.7177 31.2691 29.6941C31.5279 29.6706 31.7885 29.712 32.0273 29.8146L41.2383 33.9416C41.5487 34.0742 41.8078 34.3039 41.9768 34.5961C42.1458 34.8883 42.2156 35.2274 42.1758 35.5627C41.8723 37.8303 40.7556 39.9106 39.0333 41.4166C37.311 42.9227 35.1004 43.7519 32.8125 43.7502C25.7677 43.7502 19.0114 40.9516 14.03 35.9702C9.04854 30.9888 6.25 24.2325 6.25 17.1877C6.24825 14.8998 7.0775 12.6891 8.58352 10.9668C10.0895 9.24454 12.1698 8.12783 14.4375 7.82439C14.7727 7.78457 15.1118 7.85438 15.4041 8.02338C15.6963 8.19238 15.9259 8.45148 16.0586 8.76189L20.1855 17.9806C20.2869 18.2174 20.3282 18.4756 20.3057 18.7322C20.2833 18.9888 20.1977 19.2358 20.0566 19.4513L15.8828 24.4142C15.7348 24.6376 15.6472 24.8956 15.6287 25.163C15.6102 25.4304 15.6614 25.698 15.7773 25.9396C17.3926 29.2463 20.8105 32.6232 24.127 34.2228C24.3699 34.3382 24.6387 34.3883 24.9069 34.3681C25.1751 34.3479 25.4334 34.2581 25.6563 34.1076L30.5449 29.9494Z" fill="white"/>
<path d="M30.5449 29.9494C30.7613 29.8054 31.0102 29.7177 31.2691 29.6941C31.5279 29.6706 31.7885 29.712 32.0273 29.8146L41.2383 33.9416C41.5487 34.0742 41.8078 34.3039 41.9768 34.5961C42.1458 34.8883 42.2156 35.2274 42.1758 35.5627C41.8723 37.8303 40.7556 39.9106 39.0333 41.4167C37.311 42.9227 35.1004 43.7519 32.8125 43.7502C25.7677 43.7502 19.0114 40.9516 14.03 35.9702C9.04854 30.9888 6.25 24.2325 6.25 17.1877C6.24825 14.8998 7.0775 12.6891 8.58352 10.9668C10.0895 9.24454 12.1698 8.12783 14.4375 7.82439C14.7727 7.78457 15.1118 7.85438 15.4041 8.02338C15.6963 8.19238 15.9259 8.45148 16.0586 8.76189L20.1855 17.9806C20.2869 18.2174 20.3282 18.4756 20.3057 18.7322C20.2833 18.9888 20.1977 19.2358 20.0566 19.4513L15.8828 24.4142C15.7348 24.6376 15.6472 24.8956 15.6287 25.163C15.6102 25.4304 15.6614 25.698 15.7773 25.9396C17.3926 29.2463 20.8105 32.6232 24.127 34.2228C24.3699 34.3382 24.6387 34.3883 24.9069 34.3681C25.1751 34.3479 25.4334 34.2581 25.6563 34.1076L30.5449 29.9494Z" stroke="white" stroke-linecap="round" stroke-linejoin="round"/>
</g>
<defs>
<clipPath id="clip0_7355_21066">
<rect width="50" height="50" fill="white"/>
</clipPath>
</defs>
</svg>
