<svg width="50" height="50" viewBox="0 0 50 50" fill="none" xmlns="http://www.w3.org/2000/svg">
<g clip-path="url(#clip0_7402_8708)">
<path opacity="0.2" d="M7.8125 7.8125C9.0557 7.8125 10.248 8.30636 11.1271 9.18544C12.0061 10.0645 12.5 11.2568 12.5 12.5V37.5C12.5 38.7432 12.9939 39.9355 13.8729 40.8146C14.752 41.6936 15.9443 42.1875 17.1875 42.1875C18.4307 42.1875 19.623 41.6936 20.5021 40.8146C21.3811 39.9355 21.875 38.7432 21.875 37.5C21.875 35.5469 20.3125 34.375 20.3125 34.375H39.0625V12.5C39.0625 11.2568 38.5686 10.0645 37.6896 9.18544C36.8105 8.30636 35.6182 7.8125 34.375 7.8125H7.8125Z" fill="#072B2C"/>
<path d="M39.0625 34.375V12.5C39.0625 11.2568 38.5686 10.0645 37.6896 9.18544C36.8105 8.30636 35.6182 7.8125 34.375 7.8125H7.8125" stroke="#105F62" stroke-linecap="round" stroke-linejoin="round"/>
<path d="M20.3125 20.3125H32.8125" stroke="#105F62" stroke-linecap="round" stroke-linejoin="round"/>
<path d="M20.3125 26.5625H32.8125" stroke="#105F62" stroke-linecap="round" stroke-linejoin="round"/>
<path d="M4.6875 15.625C4.6875 15.625 3.125 14.4531 3.125 12.5C3.125 11.2568 3.61886 10.0645 4.49794 9.18544C5.37701 8.30636 6.5693 7.8125 7.8125 7.8125C9.0557 7.8125 10.248 8.30636 11.1271 9.18544C12.0061 10.0645 12.5 11.2568 12.5 12.5V37.5C12.5 38.7432 12.9939 39.9355 13.8729 40.8146C14.752 41.6936 15.9443 42.1875 17.1875 42.1875M17.1875 42.1875C18.4307 42.1875 19.623 41.6936 20.5021 40.8146C21.3811 39.9355 21.875 38.7432 21.875 37.5C21.875 35.5469 20.3125 34.375 20.3125 34.375H42.1875C42.1875 34.375 43.75 35.5469 43.75 37.5C43.75 38.7432 43.2561 39.9355 42.3771 40.8146C41.498 41.6936 40.3057 42.1875 39.0625 42.1875H17.1875Z" stroke="#105F62" stroke-linecap="round" stroke-linejoin="round"/>
</g>
<defs>
<clipPath id="clip0_7402_8708">
<rect width="50" height="50" fill="white"/>
</clipPath>
</defs>
</svg>
