<svg width="55" height="55" viewBox="0 0 55 55" fill="none" xmlns="http://www.w3.org/2000/svg">
<g clip-path="url(#clip0_5740_19504)">
<path opacity="0.2" d="M27.5 39.5312C32.2462 39.5312 36.0938 35.6837 36.0938 30.9375C36.0938 26.1913 32.2462 22.3438 27.5 22.3438C22.7538 22.3438 18.9062 26.1913 18.9062 30.9375C18.9062 35.6837 22.7538 39.5312 27.5 39.5312Z" fill="#072B2C"/>
<path opacity="0.2" d="M13.75 25.7812C17.547 25.7812 20.625 22.7032 20.625 18.9062C20.625 15.1093 17.547 12.0312 13.75 12.0312C9.95304 12.0312 6.875 15.1093 6.875 18.9062C6.875 22.7032 9.95304 25.7812 13.75 25.7812Z" fill="#072B2C"/>
<path opacity="0.2" d="M41.25 25.7812C45.047 25.7812 48.125 22.7032 48.125 18.9062C48.125 15.1093 45.047 12.0312 41.25 12.0312C37.453 12.0312 34.375 15.1093 34.375 18.9062C34.375 22.7032 37.453 25.7812 41.25 25.7812Z" fill="#072B2C"/>
<path d="M41.25 25.7813C43.2515 25.7797 45.2257 26.245 47.0159 27.1401C48.8061 28.0352 50.3628 29.3354 51.5625 30.9375" stroke="#105F62" stroke-linecap="round" stroke-linejoin="round"/>
<path d="M3.4375 30.9375C4.63718 29.3354 6.19394 28.0352 7.98411 27.1401C9.77429 26.245 11.7485 25.7797 13.75 25.7813" stroke="#105F62" stroke-linecap="round" stroke-linejoin="round"/>
<path d="M27.5 39.5312C32.2462 39.5312 36.0938 35.6837 36.0938 30.9375C36.0938 26.1913 32.2462 22.3438 27.5 22.3438C22.7538 22.3438 18.9062 26.1913 18.9062 30.9375C18.9062 35.6837 22.7538 39.5312 27.5 39.5312Z" stroke="#105F62" stroke-linecap="round" stroke-linejoin="round"/>
<path d="M15.4688 46.4062C16.7026 44.3125 18.4614 42.577 20.5715 41.3712C22.6816 40.1655 25.0697 39.5312 27.5 39.5312C29.9303 39.5312 32.3184 40.1655 34.4285 41.3712C36.5386 42.577 38.2974 44.3125 39.5312 46.4062" stroke="#105F62" stroke-linecap="round" stroke-linejoin="round"/>
<path d="M34.5898 17.1875C34.9113 15.9426 35.5753 14.8128 36.5066 13.9264C37.4379 13.04 38.5991 12.4325 39.8584 12.1729C41.1176 11.9133 42.4244 12.012 43.6303 12.4578C44.8363 12.9035 45.893 13.6786 46.6806 14.6948C47.4682 15.7111 47.9551 16.9278 48.0859 18.2068C48.2167 19.4859 47.9862 20.776 47.4206 21.9306C46.855 23.0852 45.977 24.0581 44.8862 24.7388C43.7955 25.4194 42.5357 25.7806 41.25 25.7812" stroke="#105F62" stroke-linecap="round" stroke-linejoin="round"/>
<path d="M13.75 25.7812C12.4643 25.7806 11.2045 25.4194 10.1138 24.7388C9.02304 24.0581 8.14501 23.0852 7.57942 21.9306C7.01383 20.776 6.78335 19.4859 6.91415 18.2068C7.04495 16.9278 7.53179 15.7111 8.31938 14.6948C9.10697 13.6786 10.1637 12.9035 11.3697 12.4578C12.5756 12.012 13.8824 11.9133 15.1417 12.1729C16.4009 12.4325 17.5621 13.04 18.4934 13.9264C19.4247 14.8128 20.0887 15.9426 20.4102 17.1875" stroke="#105F62" stroke-linecap="round" stroke-linejoin="round"/>
</g>
<defs>
<clipPath id="clip0_5740_19504">
<rect width="55" height="55" fill="white"/>
</clipPath>
</defs>
</svg>
